<svg width="18" height="24" viewBox="0 0 18 24" fill="none" xmlns="http://www.w3.org/2000/svg">
<path fill-rule="evenodd" clip-rule="evenodd" d="M0 18.9052V22.9829C3.04222 23.7301 5.98331 24 8.63728 24C12.6082 24 15.9367 23.3998 18 22.9074V18.8308C15.3665 19.5337 7.8867 21.1066 0 18.9052Z" fill="#0F383A"/>
<path fill-rule="evenodd" clip-rule="evenodd" d="M3.88023 17.4571V16.7531V15.9853V8.20584V7.42936V6.91772C1.61676 7.10029 0 7.42936 0 7.42936V16.7531H0.0370374L0 16.7606C0 16.7606 1.61676 17.192 3.88023 17.4571Z" fill="#0F383A"/>
<path fill-rule="evenodd" clip-rule="evenodd" d="M14.1196 7.42936V8.20567V15.9853V16.7531V17.4571C16.3831 17.192 17.9999 16.7605 17.9999 16.7605L17.9628 16.7531H17.9999V7.42936C17.9999 7.42936 16.3831 7.10029 14.1196 6.91772V7.42936Z" fill="#0F383A"/>
<path fill-rule="evenodd" clip-rule="evenodd" d="M0 1.04248V5.11298C1.38616 4.75457 3.86928 4.22228 6.95352 4.03398V17.6765H10.8338V4.00268C13.0959 4.10789 15.5298 4.44401 18 5.15428V1.06837C10.4758 -0.832332 3.54367 0.219135 0 1.04248Z" fill="#0F383A"/>
</svg>
