<svg width="125" height="106" viewBox="0 0 125 106" fill="none" xmlns="http://www.w3.org/2000/svg">
<path d="M60.8711 3.88008C61.5352 3.5793 62.2676 3.42383 63 3.42383C63.7324 3.42383 64.377 3.5793 65.1289 3.88008L86.3594 13.3945C87.3555 13.8438 88 14.8301 88 15.9238C88 17.0176 87.3555 18.0039 86.3594 18.4531L65.1289 27.9648C64.377 28.2676 63.7324 28.4238 63 28.4238C62.2676 28.4238 61.5352 28.2676 60.8711 27.9648L39.6367 18.4531C38.6407 18.0039 38 17.0176 38 15.9238C38 14.8301 38.6407 13.8438 39.6367 13.3945L60.8711 3.88008ZM63 6.54883C62.6191 6.54883 62.3262 6.61133 62.1406 6.73144L41.6397 15.9238L62.1406 25.1133C62.3262 25.2402 62.6191 25.2988 63 25.2988C63.293 25.2988 63.5859 25.2402 63.8594 25.1133L84.3574 15.9238L63.8594 6.73144C63.5859 6.61133 63.293 6.54883 63 6.54883ZM45.6758 24.8984C46.0293 25.6895 45.6768 26.6172 44.8897 26.9688L41.6397 28.4238L62.1406 37.6133C62.3262 37.7402 62.6191 37.7988 63 37.7988C63.293 37.7988 63.5859 37.7402 63.8594 37.6133L84.3574 28.4238L81.1152 26.9688C80.3242 26.6172 79.9727 25.6895 80.3242 24.8984C80.6758 24.1172 81.6035 23.7656 82.3848 24.1172L86.3594 25.8945C87.3555 26.3438 88 27.3301 88 28.4238C88 29.5176 87.3555 30.5039 86.3594 30.9531L65.1289 40.4648C64.377 40.7676 63.7324 40.9238 63 40.9238C62.2676 40.9238 61.5352 40.7676 60.8711 40.4648L39.6367 30.9531C38.6407 30.5039 38 29.5176 38 28.4238C38 27.3301 38.6407 26.3438 39.6367 25.8945L43.6113 24.1172C44.3984 23.7656 45.3232 24.1172 45.6758 24.8984ZM41.6397 40.9238L62.1406 50.1133C62.3262 50.2402 62.6191 50.2988 63 50.2988C63.293 50.2988 63.5859 50.2402 63.8594 50.1133L84.3574 40.9238L81.1152 39.4688C80.3242 39.1172 79.9727 38.1895 80.3242 37.3984C80.6758 36.6172 81.6035 36.2656 82.3848 36.6172L86.3594 38.3945C87.3555 38.8438 88 39.8301 88 40.9238C88 42.0176 87.3555 43.0039 86.3594 43.4531L65.1289 52.9648C64.377 53.2676 63.7324 53.4238 63 53.4238C62.2676 53.4238 61.5352 53.2676 60.8711 52.9648L39.6367 43.4531C38.6407 43.0039 38 42.0176 38 40.9238C38 39.8301 38.6407 38.8438 39.6367 38.3945L43.6113 36.6172C44.3984 36.2656 45.3232 36.6172 45.6758 37.3984C46.0283 38.1895 45.6768 39.1172 44.8887 39.4688L41.6397 40.9238Z" fill="#333333"/>
<path d="M26.2385 78.3018C25.1718 78.3018 24.2492 78.0725 23.4705 77.6138C22.6918 77.1445 22.0892 76.4778 21.6625 75.6138C21.2465 74.7392 21.0385 73.7098 21.0385 72.5258C21.0385 71.3525 21.2465 70.3338 21.6625 69.4698C22.0892 68.5952 22.6918 67.9285 23.4705 67.4698C24.2492 67.0005 25.1718 66.7658 26.2385 66.7658C26.9532 66.7658 27.6252 66.8832 28.2545 67.1178C28.8945 67.3418 29.4492 67.6672 29.9185 68.0938C30.0892 68.2538 30.1745 68.4405 30.1745 68.6538C30.1745 68.8032 30.1318 68.9365 30.0465 69.0538C29.9612 69.1605 29.8598 69.2138 29.7425 69.2138C29.6145 69.2138 29.4598 69.1552 29.2785 69.0378C28.7345 68.6112 28.2385 68.3125 27.7905 68.1418C27.3532 67.9712 26.8465 67.8858 26.2705 67.8858C25.0332 67.8858 24.0785 68.2912 23.4065 69.1018C22.7452 69.9018 22.4145 71.0432 22.4145 72.5258C22.4145 74.0192 22.7452 75.1712 23.4065 75.9818C24.0785 76.7818 25.0332 77.1818 26.2705 77.1818C26.8358 77.1818 27.3425 77.0965 27.7905 76.9258C28.2385 76.7552 28.7345 76.4565 29.2785 76.0298C29.4598 75.9125 29.6145 75.8538 29.7425 75.8538C29.8598 75.8538 29.9612 75.9072 30.0465 76.0138C30.1318 76.1205 30.1745 76.2538 30.1745 76.4138C30.1745 76.6272 30.0892 76.8138 29.9185 76.9738C29.4492 77.4005 28.8945 77.7312 28.2545 77.9658C27.6252 78.1898 26.9532 78.3018 26.2385 78.3018ZM35.1664 78.2858C34.4304 78.2858 33.7797 78.1205 33.2144 77.7898C32.6597 77.4592 32.2277 76.9898 31.9184 76.3818C31.6197 75.7632 31.4704 75.0485 31.4704 74.2378C31.4704 73.4272 31.6197 72.7178 31.9184 72.1098C32.2277 71.4912 32.6597 71.0165 33.2144 70.6858C33.7797 70.3552 34.4304 70.1898 35.1664 70.1898C35.9024 70.1898 36.553 70.3552 37.1184 70.6858C37.6837 71.0165 38.1157 71.4912 38.4144 72.1098C38.7237 72.7178 38.8784 73.4272 38.8784 74.2378C38.8784 75.0485 38.7237 75.7632 38.4144 76.3818C38.1157 76.9898 37.6837 77.4592 37.1184 77.7898C36.553 78.1205 35.9024 78.2858 35.1664 78.2858ZM35.1664 77.2138C35.9344 77.2138 36.521 76.9632 36.9264 76.4618C37.3424 75.9498 37.5504 75.2085 37.5504 74.2378C37.5504 73.2885 37.3424 72.5578 36.9264 72.0458C36.5104 71.5232 35.9237 71.2618 35.1664 71.2618C34.409 71.2618 33.8224 71.5232 33.4064 72.0458C32.9904 72.5578 32.7824 73.2885 32.7824 74.2378C32.7824 75.1978 32.985 75.9338 33.3904 76.4458C33.8064 76.9578 34.3984 77.2138 35.1664 77.2138ZM49.4814 70.1898C51.2094 70.1898 52.0734 71.2192 52.0734 73.2778V77.6138C52.0734 77.8165 52.0147 77.9765 51.8974 78.0938C51.78 78.2005 51.6254 78.2538 51.4334 78.2538C51.2414 78.2538 51.0814 78.2005 50.9534 78.0938C50.836 77.9765 50.7774 77.8165 50.7774 77.6138V73.3098C50.7774 72.5952 50.6494 72.0778 50.3934 71.7578C50.1374 71.4378 49.7374 71.2778 49.1934 71.2778C48.5427 71.2778 48.0307 71.4965 47.6574 71.9338C47.284 72.3712 47.0974 72.9632 47.0974 73.7098V77.6138C47.0974 77.8165 47.0334 77.9765 46.9054 78.0938C46.788 78.2005 46.6334 78.2538 46.4414 78.2538C46.2494 78.2538 46.0947 78.2005 45.9774 78.0938C45.86 77.9765 45.8014 77.8165 45.8014 77.6138V73.3098C45.8014 72.5952 45.6734 72.0778 45.4174 71.7578C45.1614 71.4378 44.756 71.2778 44.2014 71.2778C43.5614 71.2778 43.0494 71.4965 42.6654 71.9338C42.292 72.3712 42.1054 72.9632 42.1054 73.7098V77.6138C42.1054 77.8165 42.0467 77.9765 41.9294 78.0938C41.812 78.2005 41.6574 78.2538 41.4654 78.2538C41.2734 78.2538 41.1134 78.2005 40.9854 78.0938C40.868 77.9765 40.8094 77.8165 40.8094 77.6138V70.8618C40.8094 70.6698 40.868 70.5152 40.9854 70.3978C41.1134 70.2805 41.2734 70.2218 41.4654 70.2218C41.6467 70.2218 41.796 70.2805 41.9134 70.3978C42.0307 70.5045 42.0894 70.6538 42.0894 70.8458V71.6138C42.324 71.1552 42.6494 70.8032 43.0654 70.5578C43.4814 70.3125 43.9614 70.1898 44.5054 70.1898C45.7214 70.1898 46.516 70.7018 46.8894 71.7258C47.1134 71.2565 47.4547 70.8832 47.9134 70.6058C48.372 70.3285 48.8947 70.1898 49.4814 70.1898ZM58.3544 70.1898C59.037 70.1898 59.6397 70.3605 60.1624 70.7018C60.685 71.0432 61.0904 71.5232 61.3784 72.1418C61.6664 72.7498 61.8104 73.4592 61.8104 74.2698C61.8104 75.0805 61.6664 75.7898 61.3784 76.3978C61.0904 76.9952 60.685 77.4592 60.1624 77.7898C59.6504 78.1205 59.0477 78.2858 58.3544 78.2858C57.7464 78.2858 57.213 78.1525 56.7544 77.8858C56.3064 77.6192 55.965 77.2405 55.7304 76.7498V80.5098C55.7304 80.7018 55.6717 80.8512 55.5544 80.9578C55.4477 81.0752 55.293 81.1338 55.0904 81.1338C54.8877 81.1338 54.7277 81.0752 54.6104 80.9578C54.493 80.8405 54.4344 80.6912 54.4344 80.5098V70.8618C54.4344 70.6698 54.493 70.5152 54.6104 70.3978C54.7277 70.2805 54.8877 70.2218 55.0904 70.2218C55.293 70.2218 55.4477 70.2805 55.5544 70.3978C55.6717 70.5152 55.7304 70.6698 55.7304 70.8618V71.7258C55.965 71.2352 56.3064 70.8565 56.7544 70.5898C57.213 70.3232 57.7464 70.1898 58.3544 70.1898ZM58.0984 77.2138C58.8557 77.2138 59.4424 76.9578 59.8584 76.4458C60.2744 75.9338 60.4824 75.2085 60.4824 74.2698C60.4824 73.3312 60.2744 72.6005 59.8584 72.0778C59.4424 71.5445 58.8557 71.2778 58.0984 71.2778C57.341 71.2778 56.7544 71.5338 56.3384 72.0458C55.933 72.5578 55.7304 73.2885 55.7304 74.2378C55.7304 75.1872 55.933 75.9232 56.3384 76.4458C56.7544 76.9578 57.341 77.2138 58.0984 77.2138ZM69.7789 76.3658C69.8962 76.3658 69.9975 76.4138 70.0829 76.5098C70.1682 76.6058 70.2109 76.7285 70.2109 76.8778C70.2109 77.1445 70.0242 77.3898 69.6509 77.6138C69.2669 77.8378 68.8615 78.0085 68.4349 78.1258C68.0082 78.2325 67.5922 78.2858 67.1869 78.2858C65.9815 78.2858 65.0269 77.9285 64.3229 77.2138C63.6295 76.4992 63.2829 75.5125 63.2829 74.2538C63.2829 73.4538 63.4375 72.7498 63.7469 72.1418C64.0562 71.5232 64.4882 71.0432 65.0429 70.7018C65.6082 70.3605 66.2482 70.1898 66.9629 70.1898C67.9762 70.1898 68.7815 70.5205 69.3789 71.1818C69.9762 71.8432 70.2749 72.7392 70.2749 73.8698C70.2749 74.0832 70.2322 74.2378 70.1469 74.3338C70.0615 74.4298 69.9229 74.4778 69.7309 74.4778H64.5789C64.6749 76.3125 65.5442 77.2298 67.1869 77.2298C67.6029 77.2298 67.9602 77.1765 68.2589 77.0698C68.5575 76.9525 68.8775 76.7978 69.2189 76.6058C69.4962 76.4458 69.6829 76.3658 69.7789 76.3658ZM66.9789 71.1978C66.2962 71.1978 65.7469 71.4112 65.3309 71.8378C64.9255 72.2645 64.6855 72.8672 64.6109 73.6458H69.1389C69.1175 72.8565 68.9202 72.2538 68.5469 71.8378C68.1735 71.4112 67.6509 71.1978 66.9789 71.1978ZM75.7375 77.2298C76.1108 77.2618 76.2975 77.4325 76.2975 77.7418C76.2975 77.9232 76.2282 78.0618 76.0895 78.1578C75.9615 78.2432 75.7642 78.2752 75.4975 78.2538L75.0655 78.2218C74.2122 78.1578 73.5828 77.9018 73.1775 77.4538C72.7722 77.0058 72.5695 76.3285 72.5695 75.4218V71.4058H71.4975C71.3162 71.4058 71.1722 71.3632 71.0655 71.2778C70.9695 71.1818 70.9215 71.0592 70.9215 70.9098C70.9215 70.7498 70.9695 70.6218 71.0655 70.5258C71.1722 70.4298 71.3162 70.3818 71.4975 70.3818H72.5695V68.5738C72.5695 68.3712 72.6282 68.2165 72.7455 68.1098C72.8628 67.9925 73.0228 67.9338 73.2255 67.9338C73.4175 67.9338 73.5722 67.9925 73.6895 68.1098C73.8068 68.2165 73.8655 68.3712 73.8655 68.5738V70.3818H75.6415C75.8122 70.3818 75.9455 70.4298 76.0415 70.5258C76.1482 70.6218 76.2015 70.7498 76.2015 70.9098C76.2015 71.0592 76.1482 71.1818 76.0415 71.2778C75.9455 71.3632 75.8122 71.4058 75.6415 71.4058H73.8655V75.4858C73.8655 76.0725 73.9828 76.4992 74.2175 76.7658C74.4628 77.0218 74.8255 77.1658 75.3055 77.1978L75.7375 77.2298ZM78.231 78.2538C78.039 78.2538 77.879 78.2005 77.751 78.0938C77.6337 77.9765 77.575 77.8165 77.575 77.6138V70.8618C77.575 70.6592 77.6337 70.5045 77.751 70.3978C77.879 70.2805 78.039 70.2218 78.231 70.2218C78.423 70.2218 78.5777 70.2805 78.695 70.3978C78.8123 70.5045 78.871 70.6592 78.871 70.8618V77.6138C78.871 77.8272 78.8123 77.9872 78.695 78.0938C78.5777 78.2005 78.423 78.2538 78.231 78.2538ZM78.231 68.5418C77.975 68.5418 77.767 68.4672 77.607 68.3178C77.447 68.1685 77.367 67.9712 77.367 67.7258C77.367 67.4912 77.447 67.2992 77.607 67.1498C77.767 67.0005 77.975 66.9258 78.231 66.9258C78.487 66.9258 78.695 67.0005 78.855 67.1498C79.015 67.2992 79.095 67.4912 79.095 67.7258C79.095 67.9712 79.015 68.1685 78.855 68.3178C78.695 68.4672 78.487 68.5418 78.231 68.5418ZM85.0188 77.2298C85.3921 77.2618 85.5788 77.4325 85.5788 77.7418C85.5788 77.9232 85.5094 78.0618 85.3708 78.1578C85.2428 78.2432 85.0454 78.2752 84.7788 78.2538L84.3468 78.2218C83.4934 78.1578 82.8641 77.9018 82.4588 77.4538C82.0534 77.0058 81.8508 76.3285 81.8508 75.4218V71.4058H80.7788C80.5974 71.4058 80.4534 71.3632 80.3468 71.2778C80.2508 71.1818 80.2027 71.0592 80.2027 70.9098C80.2027 70.7498 80.2508 70.6218 80.3468 70.5258C80.4534 70.4298 80.5974 70.3818 80.7788 70.3818H81.8508V68.5738C81.8508 68.3712 81.9094 68.2165 82.0268 68.1098C82.1441 67.9925 82.3041 67.9338 82.5068 67.9338C82.6988 67.9338 82.8534 67.9925 82.9708 68.1098C83.0881 68.2165 83.1468 68.3712 83.1468 68.5738V70.3818H84.9227C85.0934 70.3818 85.2268 70.4298 85.3228 70.5258C85.4294 70.6218 85.4828 70.7498 85.4828 70.9098C85.4828 71.0592 85.4294 71.1818 85.3228 71.2778C85.2268 71.3632 85.0934 71.4058 84.9227 71.4058H83.1468V75.4858C83.1468 76.0725 83.2641 76.4992 83.4988 76.7658C83.7441 77.0218 84.1068 77.1658 84.5868 77.1978L85.0188 77.2298ZM87.5123 78.2538C87.3203 78.2538 87.1603 78.2005 87.0323 78.0938C86.9149 77.9765 86.8563 77.8165 86.8563 77.6138V70.8618C86.8563 70.6592 86.9149 70.5045 87.0323 70.3978C87.1603 70.2805 87.3203 70.2218 87.5123 70.2218C87.7043 70.2218 87.8589 70.2805 87.9763 70.3978C88.0936 70.5045 88.1523 70.6592 88.1523 70.8618V77.6138C88.1523 77.8272 88.0936 77.9872 87.9763 78.0938C87.8589 78.2005 87.7043 78.2538 87.5123 78.2538ZM87.5123 68.5418C87.2563 68.5418 87.0483 68.4672 86.8883 68.3178C86.7283 68.1685 86.6483 67.9712 86.6483 67.7258C86.6483 67.4912 86.7283 67.2992 86.8883 67.1498C87.0483 67.0005 87.2563 66.9258 87.5123 66.9258C87.7683 66.9258 87.9763 67.0005 88.1363 67.1498C88.2963 67.2992 88.3763 67.4912 88.3763 67.7258C88.3763 67.9712 88.2963 68.1685 88.1363 68.3178C87.9763 68.4672 87.7683 68.5418 87.5123 68.5418ZM96.191 70.6218C96.3083 70.3658 96.495 70.2378 96.751 70.2378C96.911 70.2378 97.055 70.2912 97.183 70.3978C97.311 70.5045 97.375 70.6378 97.375 70.7978C97.375 70.8938 97.3537 70.9792 97.311 71.0538L94.191 77.7738C94.127 77.9125 94.031 78.0245 93.903 78.1098C93.775 78.1845 93.6363 78.2218 93.487 78.2218C93.3483 78.2218 93.215 78.1845 93.087 78.1098C92.959 78.0245 92.8577 77.9125 92.783 77.7738L89.679 71.0538C89.6363 70.9792 89.615 70.8992 89.615 70.8138C89.615 70.6538 89.6843 70.5152 89.823 70.3978C89.9723 70.2805 90.1323 70.2218 90.303 70.2218C90.4097 70.2218 90.511 70.2538 90.607 70.3178C90.7137 70.3818 90.7937 70.4725 90.847 70.5898L93.519 76.5898L96.191 70.6218ZM104.732 76.3658C104.849 76.3658 104.951 76.4138 105.036 76.5098C105.121 76.6058 105.164 76.7285 105.164 76.8778C105.164 77.1445 104.977 77.3898 104.604 77.6138C104.22 77.8378 103.815 78.0085 103.388 78.1258C102.961 78.2325 102.545 78.2858 102.14 78.2858C100.935 78.2858 99.98 77.9285 99.276 77.2138C98.5827 76.4992 98.236 75.5125 98.236 74.2538C98.236 73.4538 98.3907 72.7498 98.7 72.1418C99.0093 71.5232 99.4413 71.0432 99.996 70.7018C100.561 70.3605 101.201 70.1898 101.916 70.1898C102.929 70.1898 103.735 70.5205 104.332 71.1818C104.929 71.8432 105.228 72.7392 105.228 73.8698C105.228 74.0832 105.185 74.2378 105.1 74.3338C105.015 74.4298 104.876 74.4778 104.684 74.4778H99.532C99.628 76.3125 100.497 77.2298 102.14 77.2298C102.556 77.2298 102.913 77.1765 103.212 77.0698C103.511 76.9525 103.831 76.7978 104.172 76.6058C104.449 76.4458 104.636 76.3658 104.732 76.3658ZM101.932 71.1978C101.249 71.1978 100.7 71.4112 100.284 71.8378C99.8787 72.2645 99.6387 72.8672 99.564 73.6458H104.092C104.071 72.8565 103.873 72.2538 103.5 71.8378C103.127 71.4112 102.604 71.1978 101.932 71.1978ZM44.0571 101.422C44.0998 101.507 44.1211 101.598 44.1211 101.694C44.1211 101.854 44.0571 101.987 43.9291 102.094C43.8118 102.2 43.6678 102.254 43.4971 102.254C43.2305 102.254 43.0438 102.126 42.9371 101.87L41.8011 99.2778H35.7691L34.6171 101.87C34.5105 102.126 34.3238 102.254 34.0571 102.254C33.8865 102.254 33.7371 102.2 33.6091 102.094C33.4811 101.976 33.4171 101.838 33.4171 101.678C33.4171 101.592 33.4385 101.507 33.4811 101.422L38.0571 91.2458C38.1211 91.0965 38.2171 90.9845 38.3451 90.9098C38.4731 90.8352 38.6118 90.7978 38.7611 90.7978C38.9211 90.7978 39.0651 90.8405 39.1931 90.9258C39.3211 91.0005 39.4171 91.1072 39.4811 91.2458L44.0571 101.422ZM36.2491 98.1898H41.3211L38.7771 92.4458L36.2491 98.1898ZM49.6981 94.1898C51.5648 94.1898 52.4981 95.2192 52.4981 97.2778V101.614C52.4981 101.816 52.4395 101.976 52.3221 102.094C52.2155 102.2 52.0608 102.254 51.8581 102.254C51.6555 102.254 51.4955 102.2 51.3781 102.094C51.2608 101.976 51.2021 101.816 51.2021 101.614V97.3578C51.2021 96.6325 51.0581 96.1045 50.7701 95.7738C50.4928 95.4432 50.0448 95.2778 49.4261 95.2778C48.7115 95.2778 48.1408 95.4965 47.7141 95.9338C47.2875 96.3712 47.0741 96.9632 47.0741 97.7098V101.614C47.0741 101.816 47.0155 101.976 46.8981 102.094C46.7915 102.2 46.6368 102.254 46.4341 102.254C46.2315 102.254 46.0715 102.2 45.9541 102.094C45.8368 101.976 45.7781 101.816 45.7781 101.614V94.8618C45.7781 94.6698 45.8368 94.5152 45.9541 94.3978C46.0715 94.2805 46.2315 94.2218 46.4341 94.2218C46.6261 94.2218 46.7755 94.2805 46.8821 94.3978C46.9995 94.5152 47.0581 94.6645 47.0581 94.8458V95.6618C47.3141 95.1818 47.6715 94.8192 48.1301 94.5738C48.5888 94.3178 49.1115 94.1898 49.6981 94.1898ZM58.0559 94.1898C60.0079 94.1898 60.9839 95.2138 60.9839 97.2618V101.614C60.9839 101.806 60.9252 101.96 60.8079 102.078C60.7012 102.195 60.5519 102.254 60.3599 102.254C60.1679 102.254 60.0132 102.195 59.8959 102.078C59.7785 101.96 59.7199 101.806 59.7199 101.614V100.846C59.5172 101.304 59.2079 101.662 58.7919 101.918C58.3759 102.163 57.8959 102.286 57.3519 102.286C56.8505 102.286 56.3865 102.184 55.9599 101.982C55.5439 101.779 55.2132 101.496 54.9679 101.134C54.7225 100.771 54.5999 100.371 54.5999 99.9338C54.5999 99.3472 54.7492 98.8938 55.0479 98.5738C55.3465 98.2432 55.8372 98.0085 56.5199 97.8698C57.2025 97.7205 58.1519 97.6458 59.3679 97.6458H59.7199V97.1178C59.7199 96.4778 59.5865 96.0085 59.3199 95.7098C59.0639 95.4112 58.6425 95.2618 58.0559 95.2618C57.3305 95.2618 56.5945 95.4592 55.8479 95.8538C55.5599 96.0352 55.3572 96.1258 55.2399 96.1258C55.1119 96.1258 55.0052 96.0778 54.9199 95.9818C54.8345 95.8858 54.7919 95.7632 54.7919 95.6138C54.7919 95.4645 54.8345 95.3365 54.9199 95.2298C55.0159 95.1125 55.1652 94.9952 55.3679 94.8778C55.7412 94.6645 56.1625 94.4992 56.6319 94.3818C57.1119 94.2538 57.5865 94.1898 58.0559 94.1898ZM57.5279 101.262C58.1679 101.262 58.6905 101.048 59.0959 100.622C59.5119 100.184 59.7199 99.6245 59.7199 98.9418V98.4778H59.4319C58.4932 98.4778 57.7785 98.5205 57.2879 98.6058C56.7972 98.6805 56.4452 98.8138 56.2319 99.0058C56.0292 99.1872 55.9279 99.4592 55.9279 99.8218C55.9279 100.238 56.0772 100.584 56.3759 100.862C56.6852 101.128 57.0692 101.262 57.5279 101.262ZM64.0123 102.254C63.8203 102.254 63.6603 102.2 63.5323 102.094C63.4149 101.976 63.3563 101.816 63.3563 101.614V91.4538C63.3563 91.2512 63.4149 91.0965 63.5323 90.9898C63.6603 90.8725 63.8203 90.8138 64.0123 90.8138C64.1936 90.8138 64.3429 90.8725 64.4603 90.9898C64.5883 91.0965 64.6523 91.2512 64.6523 91.4538V101.614C64.6523 101.816 64.5883 101.976 64.4603 102.094C64.3429 102.2 64.1936 102.254 64.0123 102.254ZM72.691 94.6218C72.8083 94.3658 72.995 94.2378 73.251 94.2378C73.411 94.2378 73.555 94.2912 73.683 94.3978C73.811 94.5045 73.875 94.6378 73.875 94.7978C73.875 94.8938 73.8537 94.9792 73.811 95.0538L69.315 104.75C69.2617 104.867 69.1817 104.958 69.075 105.022C68.979 105.086 68.8777 105.118 68.771 105.118C68.611 105.118 68.467 105.064 68.339 104.958C68.2217 104.862 68.163 104.734 68.163 104.574C68.163 104.488 68.1843 104.403 68.227 104.318L69.347 101.902L66.179 95.0538C66.1363 94.9792 66.115 94.8992 66.115 94.8138C66.115 94.6538 66.1843 94.5152 66.323 94.3978C66.4723 94.2805 66.6323 94.2218 66.803 94.2218C66.9097 94.2218 67.011 94.2538 67.107 94.3178C67.2137 94.3818 67.2937 94.4725 67.347 94.5898L70.019 100.59L72.691 94.6218ZM77.7771 102.286C77.2865 102.286 76.8171 102.227 76.3691 102.11C75.9318 101.992 75.5425 101.827 75.2011 101.614C75.0091 101.486 74.8705 101.368 74.7851 101.262C74.7105 101.144 74.6731 101.006 74.6731 100.846C74.6731 100.707 74.7105 100.595 74.7851 100.51C74.8705 100.414 74.9771 100.366 75.1051 100.366C75.2331 100.366 75.4198 100.446 75.6651 100.606C75.9851 100.798 76.2998 100.952 76.6091 101.07C76.9291 101.176 77.3238 101.23 77.7931 101.23C78.3691 101.23 78.8171 101.128 79.1371 100.926C79.4571 100.723 79.6171 100.43 79.6171 100.046C79.6171 99.8112 79.5585 99.6245 79.4411 99.4858C79.3238 99.3365 79.1211 99.2085 78.8331 99.1018C78.5451 98.9845 78.1238 98.8672 77.5691 98.7498C76.6305 98.5472 75.9585 98.2752 75.5531 97.9338C75.1478 97.5925 74.9451 97.1285 74.9451 96.5418C74.9451 96.0832 75.0731 95.6778 75.3291 95.3258C75.5851 94.9738 75.9371 94.6965 76.3851 94.4938C76.8438 94.2912 77.3611 94.1898 77.9371 94.1898C78.3531 94.1898 78.7531 94.2485 79.1371 94.3658C79.5318 94.4725 79.8785 94.6272 80.1771 94.8298C80.5398 95.0858 80.7211 95.3525 80.7211 95.6298C80.7211 95.7685 80.6785 95.8858 80.5931 95.9818C80.5078 96.0778 80.4065 96.1258 80.2891 96.1258C80.1611 96.1258 79.9691 96.0352 79.7131 95.8538C79.4145 95.6618 79.1318 95.5125 78.8651 95.4058C78.5985 95.2992 78.2678 95.2458 77.8731 95.2458C77.3718 95.2458 76.9665 95.3578 76.6571 95.5818C76.3585 95.8058 76.2091 96.1045 76.2091 96.4778C76.2091 96.7125 76.2625 96.9045 76.3691 97.0538C76.4865 97.1925 76.6731 97.3205 76.9291 97.4378C77.1958 97.5445 77.5745 97.6512 78.0651 97.7578C78.7905 97.9178 79.3505 98.0938 79.7451 98.2858C80.1505 98.4778 80.4385 98.7125 80.6091 98.9898C80.7798 99.2672 80.8651 99.6192 80.8651 100.046C80.8651 100.718 80.5825 101.262 80.0171 101.678C79.4518 102.083 78.7051 102.286 77.7771 102.286ZM83.4966 102.254C83.3046 102.254 83.1446 102.2 83.0166 102.094C82.8993 101.976 82.8406 101.816 82.8406 101.614V94.8618C82.8406 94.6592 82.8993 94.5045 83.0166 94.3978C83.1446 94.2805 83.3046 94.2218 83.4966 94.2218C83.6886 94.2218 83.8433 94.2805 83.9606 94.3978C84.078 94.5045 84.1366 94.6592 84.1366 94.8618V101.614C84.1366 101.827 84.078 101.987 83.9606 102.094C83.8433 102.2 83.6886 102.254 83.4966 102.254ZM83.4966 92.5418C83.2406 92.5418 83.0326 92.4672 82.8726 92.3178C82.7126 92.1685 82.6326 91.9712 82.6326 91.7258C82.6326 91.4912 82.7126 91.2992 82.8726 91.1498C83.0326 91.0005 83.2406 90.9258 83.4966 90.9258C83.7526 90.9258 83.9606 91.0005 84.1206 91.1498C84.2806 91.2992 84.3606 91.4912 84.3606 91.7258C84.3606 91.9712 84.2806 92.1685 84.1206 92.3178C83.9606 92.4672 83.7526 92.5418 83.4966 92.5418ZM89.1834 102.286C88.6927 102.286 88.2234 102.227 87.7754 102.11C87.338 101.992 86.9487 101.827 86.6074 101.614C86.4154 101.486 86.2767 101.368 86.1914 101.262C86.1167 101.144 86.0794 101.006 86.0794 100.846C86.0794 100.707 86.1167 100.595 86.1914 100.51C86.2767 100.414 86.3834 100.366 86.5114 100.366C86.6394 100.366 86.826 100.446 87.0714 100.606C87.3914 100.798 87.706 100.952 88.0154 101.07C88.3354 101.176 88.73 101.23 89.1994 101.23C89.7754 101.23 90.2234 101.128 90.5434 100.926C90.8634 100.723 91.0234 100.43 91.0234 100.046C91.0234 99.8112 90.9647 99.6245 90.8474 99.4858C90.73 99.3365 90.5274 99.2085 90.2394 99.1018C89.9514 98.9845 89.53 98.8672 88.9754 98.7498C88.0367 98.5472 87.3647 98.2752 86.9594 97.9338C86.554 97.5925 86.3514 97.1285 86.3514 96.5418C86.3514 96.0832 86.4794 95.6778 86.7354 95.3258C86.9914 94.9738 87.3434 94.6965 87.7914 94.4938C88.25 94.2912 88.7674 94.1898 89.3434 94.1898C89.7594 94.1898 90.1594 94.2485 90.5434 94.3658C90.938 94.4725 91.2847 94.6272 91.5834 94.8298C91.946 95.0858 92.1274 95.3525 92.1274 95.6298C92.1274 95.7685 92.0847 95.8858 91.9994 95.9818C91.914 96.0778 91.8127 96.1258 91.6954 96.1258C91.5674 96.1258 91.3754 96.0352 91.1194 95.8538C90.8207 95.6618 90.538 95.5125 90.2714 95.4058C90.0047 95.2992 89.674 95.2458 89.2794 95.2458C88.778 95.2458 88.3727 95.3578 88.0634 95.5818C87.7647 95.8058 87.6154 96.1045 87.6154 96.4778C87.6154 96.7125 87.6687 96.9045 87.7754 97.0538C87.8927 97.1925 88.0794 97.3205 88.3354 97.4378C88.602 97.5445 88.9807 97.6512 89.4714 97.7578C90.1967 97.9178 90.7567 98.0938 91.1514 98.2858C91.5567 98.4778 91.8447 98.7125 92.0154 98.9898C92.186 99.2672 92.2714 99.6192 92.2714 100.046C92.2714 100.718 91.9887 101.262 91.4234 101.678C90.858 102.083 90.1114 102.286 89.1834 102.286Z" fill="#333333"/>
</svg>
