<svg width="117" height="91" viewBox="0 0 117 91" fill="none" xmlns="http://www.w3.org/2000/svg">
<path d="M80.375 38.2363V6.98633C80.375 4.39746 78.2754 2.29883 75.6875 2.29883H44.4375C40.123 2.29883 36.625 5.79688 36.625 10.1113V46.0488C36.625 49.501 39.4229 52.2988 42.875 52.2988H78.8125C79.6762 52.2988 80.375 51.6 80.375 50.7363C80.375 49.8727 79.6719 49.1738 78.8125 49.1738H77.25V42.6357C79.0664 41.9863 80.375 40.2676 80.375 38.2363ZM39.75 10.1113C39.75 7.52246 41.8486 5.42383 44.4375 5.42383H46V39.7988H42.875C41.7314 39.7988 40.6729 40.1298 39.75 40.668V10.1113ZM74.125 49.1738H42.875C41.1523 49.1738 39.75 47.7715 39.75 46.0488C39.75 44.3262 41.1523 42.9238 42.875 42.9238H74.125V49.1738ZM75.6875 39.7988H49.125V5.42383H75.6875C76.5469 5.42383 77.25 6.12402 77.25 6.98633V38.2363C77.25 39.0957 76.5469 39.7988 75.6875 39.7988ZM71 14.7988H55.375C54.5156 14.7988 53.8125 15.502 53.8125 16.3613C53.8125 17.2207 54.5156 17.9238 55.375 17.9238H71C71.8637 17.9238 72.5625 17.225 72.5625 16.3613C72.5625 15.4977 71.8594 14.7988 71 14.7988ZM71 24.1738H55.375C54.5156 24.1738 53.8125 24.877 53.8125 25.7363C53.8125 26.5957 54.5156 27.2988 55.375 27.2988H71C71.8637 27.2988 72.5625 26.6 72.5625 25.7363C72.5625 24.8727 71.8594 24.1738 71 24.1738Z" fill="#333333"/>
<path d="M35.875 77.3578C35.9497 77.4752 35.987 77.5978 35.987 77.7258C35.987 77.8858 35.923 78.0192 35.795 78.1258C35.6777 78.2218 35.539 78.2698 35.379 78.2698C35.1337 78.2698 34.9417 78.1632 34.803 77.9498L32.659 74.5578C32.3817 74.1205 32.0937 73.8218 31.795 73.6618C31.4963 73.4912 31.091 73.4058 30.579 73.4058H28.563V77.5818C28.563 77.7845 28.5043 77.9498 28.387 78.0778C28.2697 78.1952 28.115 78.2538 27.923 78.2538C27.7203 78.2538 27.5603 78.1952 27.443 78.0778C27.3257 77.9498 27.267 77.7845 27.267 77.5818V67.5338C27.267 67.3418 27.3257 67.1872 27.443 67.0698C27.571 66.9525 27.7363 66.8938 27.939 66.8938H31.907C33.1337 66.8938 34.067 67.1658 34.707 67.7098C35.3577 68.2538 35.683 69.0538 35.683 70.1098C35.683 71.0058 35.4217 71.7258 34.899 72.2698C34.387 72.8138 33.651 73.1445 32.691 73.2618C32.9577 73.3472 33.1977 73.4858 33.411 73.6778C33.6243 73.8698 33.8377 74.1365 34.051 74.4778L35.875 77.3578ZM31.795 72.3178C32.6697 72.3178 33.3203 72.1365 33.747 71.7738C34.1843 71.4112 34.403 70.8618 34.403 70.1258C34.403 69.4005 34.1897 68.8618 33.763 68.5098C33.3363 68.1578 32.6803 67.9818 31.795 67.9818H28.563V72.3178H31.795ZM44.0758 76.3658C44.1931 76.3658 44.2944 76.4138 44.3798 76.5098C44.4651 76.6058 44.5078 76.7285 44.5078 76.8778C44.5078 77.1445 44.3211 77.3898 43.9478 77.6138C43.5638 77.8378 43.1584 78.0085 42.7318 78.1258C42.3051 78.2325 41.8891 78.2858 41.4838 78.2858C40.2784 78.2858 39.3238 77.9285 38.6198 77.2138C37.9264 76.4992 37.5798 75.5125 37.5798 74.2538C37.5798 73.4538 37.7344 72.7498 38.0438 72.1418C38.3531 71.5232 38.7851 71.0432 39.3398 70.7018C39.9051 70.3605 40.5451 70.1898 41.2598 70.1898C42.2731 70.1898 43.0784 70.5205 43.6758 71.1818C44.2731 71.8432 44.5718 72.7392 44.5718 73.8698C44.5718 74.0832 44.5291 74.2378 44.4438 74.3338C44.3584 74.4298 44.2198 74.4778 44.0278 74.4778H38.8758C38.9718 76.3125 39.8411 77.2298 41.4838 77.2298C41.8998 77.2298 42.2571 77.1765 42.5558 77.0698C42.8544 76.9525 43.1744 76.7978 43.5158 76.6058C43.7931 76.4458 43.9798 76.3658 44.0758 76.3658ZM41.2758 71.1978C40.5931 71.1978 40.0438 71.4112 39.6278 71.8378C39.2224 72.2645 38.9824 72.8672 38.9078 73.6458H43.4358C43.4144 72.8565 43.2171 72.2538 42.8438 71.8378C42.4704 71.4112 41.9478 71.1978 41.2758 71.1978ZM49.1053 78.2858C48.6146 78.2858 48.1453 78.2272 47.6973 78.1098C47.2599 77.9925 46.8706 77.8272 46.5293 77.6138C46.3373 77.4858 46.1986 77.3685 46.1133 77.2618C46.0386 77.1445 46.0013 77.0058 46.0013 76.8458C46.0013 76.7072 46.0386 76.5952 46.1133 76.5098C46.1986 76.4138 46.3053 76.3658 46.4333 76.3658C46.5613 76.3658 46.7479 76.4458 46.9933 76.6058C47.3133 76.7978 47.6279 76.9525 47.9373 77.0698C48.2573 77.1765 48.6519 77.2298 49.1213 77.2298C49.6973 77.2298 50.1453 77.1285 50.4653 76.9258C50.7853 76.7232 50.9453 76.4298 50.9453 76.0458C50.9453 75.8112 50.8866 75.6245 50.7693 75.4858C50.6519 75.3365 50.4493 75.2085 50.1613 75.1018C49.8733 74.9845 49.4519 74.8672 48.8973 74.7498C47.9586 74.5472 47.2866 74.2752 46.8813 73.9338C46.4759 73.5925 46.2733 73.1285 46.2733 72.5418C46.2733 72.0832 46.4013 71.6778 46.6573 71.3258C46.9133 70.9738 47.2653 70.6965 47.7133 70.4938C48.1719 70.2912 48.6893 70.1898 49.2653 70.1898C49.6813 70.1898 50.0813 70.2485 50.4653 70.3658C50.8599 70.4725 51.2066 70.6272 51.5053 70.8298C51.8679 71.0858 52.0493 71.3525 52.0493 71.6298C52.0493 71.7685 52.0066 71.8858 51.9213 71.9818C51.8359 72.0778 51.7346 72.1258 51.6173 72.1258C51.4893 72.1258 51.2973 72.0352 51.0413 71.8538C50.7426 71.6618 50.4599 71.5125 50.1933 71.4058C49.9266 71.2992 49.5959 71.2458 49.2013 71.2458C48.6999 71.2458 48.2946 71.3578 47.9853 71.5818C47.6866 71.8058 47.5373 72.1045 47.5373 72.4778C47.5373 72.7125 47.5906 72.9045 47.6973 73.0538C47.8146 73.1925 48.0013 73.3205 48.2573 73.4378C48.5239 73.5445 48.9026 73.6512 49.3932 73.7578C50.1186 73.9178 50.6786 74.0938 51.0733 74.2858C51.4786 74.4778 51.7666 74.7125 51.9373 74.9898C52.1079 75.2672 52.1933 75.6192 52.1933 76.0458C52.1933 76.7178 51.9106 77.2618 51.3453 77.6778C50.7799 78.0832 50.0333 78.2858 49.1053 78.2858ZM60.2008 76.3658C60.3181 76.3658 60.4194 76.4138 60.5048 76.5098C60.5901 76.6058 60.6328 76.7285 60.6328 76.8778C60.6328 77.1445 60.4461 77.3898 60.0728 77.6138C59.6888 77.8378 59.2834 78.0085 58.8568 78.1258C58.4301 78.2325 58.0141 78.2858 57.6088 78.2858C56.4034 78.2858 55.4488 77.9285 54.7448 77.2138C54.0514 76.4992 53.7048 75.5125 53.7048 74.2538C53.7048 73.4538 53.8594 72.7498 54.1688 72.1418C54.4781 71.5232 54.9101 71.0432 55.4648 70.7018C56.0301 70.3605 56.6701 70.1898 57.3848 70.1898C58.3981 70.1898 59.2034 70.5205 59.8008 71.1818C60.3981 71.8432 60.6968 72.7392 60.6968 73.8698C60.6968 74.0832 60.6541 74.2378 60.5688 74.3338C60.4834 74.4298 60.3448 74.4778 60.1528 74.4778H55.0008C55.0968 76.3125 55.9661 77.2298 57.6088 77.2298C58.0248 77.2298 58.3821 77.1765 58.6808 77.0698C58.9794 76.9525 59.2994 76.7978 59.6408 76.6058C59.9181 76.4458 60.1048 76.3658 60.2008 76.3658ZM57.4008 71.1978C56.7181 71.1978 56.1688 71.4112 55.7528 71.8378C55.3474 72.2645 55.1074 72.8672 55.0328 73.6458H59.5608C59.5394 72.8565 59.3421 72.2538 58.9688 71.8378C58.5954 71.4112 58.0728 71.1978 57.4008 71.1978ZM65.7903 70.1898C67.7423 70.1898 68.7183 71.2138 68.7183 73.2618V77.6138C68.7183 77.8058 68.6596 77.9605 68.5423 78.0778C68.4356 78.1952 68.2863 78.2538 68.0943 78.2538C67.9023 78.2538 67.7476 78.1952 67.6303 78.0778C67.5129 77.9605 67.4543 77.8058 67.4543 77.6138V76.8458C67.2516 77.3045 66.9423 77.6618 66.5263 77.9178C66.1103 78.1632 65.6303 78.2858 65.0863 78.2858C64.5849 78.2858 64.1209 78.1845 63.6943 77.9818C63.2783 77.7792 62.9476 77.4965 62.7023 77.1338C62.4569 76.7712 62.3343 76.3712 62.3343 75.9338C62.3343 75.3472 62.4836 74.8938 62.7823 74.5738C63.0809 74.2432 63.5716 74.0085 64.2543 73.8698C64.9369 73.7205 65.8863 73.6458 67.1023 73.6458H67.4543V73.1178C67.4543 72.4778 67.3209 72.0085 67.0543 71.7098C66.7983 71.4112 66.3769 71.2618 65.7903 71.2618C65.0649 71.2618 64.3289 71.4592 63.5823 71.8538C63.2943 72.0352 63.0916 72.1258 62.9743 72.1258C62.8463 72.1258 62.7396 72.0778 62.6543 71.9818C62.5689 71.8858 62.5263 71.7632 62.5263 71.6138C62.5263 71.4645 62.5689 71.3365 62.6543 71.2298C62.7503 71.1125 62.8996 70.9952 63.1023 70.8778C63.4756 70.6645 63.8969 70.4992 64.3663 70.3818C64.8463 70.2538 65.3209 70.1898 65.7903 70.1898ZM65.2623 77.2618C65.9023 77.2618 66.4249 77.0485 66.8303 76.6218C67.2463 76.1845 67.4543 75.6245 67.4543 74.9418V74.4778H67.1663C66.2276 74.4778 65.5129 74.5205 65.0223 74.6058C64.5316 74.6805 64.1796 74.8138 63.9663 75.0058C63.7636 75.1872 63.6623 75.4592 63.6623 75.8218C63.6623 76.2378 63.8116 76.5845 64.1103 76.8618C64.4196 77.1285 64.8036 77.2618 65.2623 77.2618ZM74.9466 70.2218C75.3946 70.1898 75.6186 70.3712 75.6186 70.7658C75.6186 70.9365 75.5706 71.0752 75.4746 71.1818C75.3786 71.2778 75.2133 71.3365 74.9786 71.3578L74.4986 71.4058C73.784 71.4698 73.2506 71.7258 72.8986 72.1738C72.5573 72.6112 72.3866 73.1285 72.3866 73.7258V77.6138C72.3866 77.8272 72.328 77.9872 72.2106 78.0938C72.0933 78.2005 71.9386 78.2538 71.7466 78.2538C71.5546 78.2538 71.3946 78.2005 71.2666 78.0938C71.1493 77.9765 71.0906 77.8165 71.0906 77.6138V70.8618C71.0906 70.6592 71.1546 70.5045 71.2826 70.3978C71.4106 70.2805 71.5653 70.2218 71.7466 70.2218C71.9173 70.2218 72.0613 70.2805 72.1786 70.3978C72.296 70.5045 72.3546 70.6538 72.3546 70.8458V71.7418C72.5786 71.2725 72.8933 70.9152 73.2986 70.6698C73.7146 70.4245 74.1893 70.2805 74.7226 70.2378L74.9466 70.2218ZM79.791 78.2858C79.0657 78.2858 78.4203 78.1205 77.855 77.7898C77.3003 77.4592 76.8683 76.9898 76.559 76.3818C76.2603 75.7738 76.111 75.0698 76.111 74.2698C76.111 73.4698 76.2657 72.7605 76.575 72.1418C76.895 71.5232 77.3377 71.0432 77.903 70.7018C78.4683 70.3605 79.119 70.1898 79.855 70.1898C80.2603 70.1898 80.6603 70.2485 81.055 70.3658C81.4603 70.4725 81.8123 70.6325 82.111 70.8458C82.303 70.9738 82.4363 71.1018 82.511 71.2298C82.5963 71.3472 82.639 71.4805 82.639 71.6298C82.639 71.7792 82.5963 71.9018 82.511 71.9978C82.4363 72.0938 82.335 72.1418 82.207 72.1418C82.1323 72.1418 82.0523 72.1205 81.967 72.0778C81.8817 72.0352 81.807 71.9925 81.743 71.9498C81.6897 71.9072 81.6523 71.8805 81.631 71.8698C81.3537 71.6885 81.087 71.5445 80.831 71.4378C80.5857 71.3312 80.2817 71.2778 79.919 71.2778C79.1403 71.2778 78.5323 71.5445 78.095 72.0778C77.6683 72.6005 77.455 73.3312 77.455 74.2698C77.455 75.2085 77.6683 75.9338 78.095 76.4458C78.5323 76.9578 79.1403 77.2138 79.919 77.2138C80.2817 77.2138 80.591 77.1605 80.847 77.0538C81.1137 76.9472 81.3803 76.8032 81.647 76.6218C81.7643 76.5472 81.8763 76.4832 81.983 76.4298C82.0897 76.3765 82.1803 76.3498 82.255 76.3498C82.3723 76.3498 82.4683 76.3978 82.543 76.4938C82.6283 76.5898 82.671 76.7125 82.671 76.8618C82.671 77.0005 82.6337 77.1285 82.559 77.2458C82.4843 77.3525 82.3457 77.4752 82.143 77.6138C81.8443 77.8165 81.4817 77.9818 81.055 78.1098C80.639 78.2272 80.2177 78.2858 79.791 78.2858ZM88.1673 70.1898C89.0846 70.1898 89.7779 70.4512 90.2473 70.9738C90.7166 71.4858 90.9513 72.2538 90.9513 73.2778V77.6138C90.9513 77.8165 90.8926 77.9765 90.7753 78.0938C90.6579 78.2005 90.5033 78.2538 90.3113 78.2538C90.1086 78.2538 89.9486 78.2005 89.8313 78.0938C89.7139 77.9765 89.6553 77.8165 89.6553 77.6138V73.3098C89.6553 72.6165 89.5113 72.1045 89.2233 71.7738C88.9459 71.4432 88.4979 71.2778 87.8793 71.2778C87.1646 71.2778 86.5939 71.4965 86.1673 71.9338C85.7406 72.3712 85.5273 72.9632 85.5273 73.7098V77.6138C85.5273 77.8165 85.4686 77.9765 85.3513 78.0938C85.2446 78.2005 85.0899 78.2538 84.8873 78.2538C84.6846 78.2538 84.5246 78.2005 84.4073 78.0938C84.2899 77.9765 84.2313 77.8165 84.2313 77.6138V67.4378C84.2313 67.2565 84.2899 67.1072 84.4073 66.9898C84.5353 66.8725 84.6953 66.8138 84.8873 66.8138C85.0899 66.8138 85.2446 66.8725 85.3513 66.9898C85.4686 67.0965 85.5273 67.2458 85.5273 67.4378V71.6298C85.7833 71.1605 86.1406 70.8032 86.5993 70.5578C87.0579 70.3125 87.5806 70.1898 88.1673 70.1898Z" fill="#333333"/>
</svg>
