<svg width="117" height="91" viewBox="0 0 117 91" fill="none" xmlns="http://www.w3.org/2000/svg">
<path d="M80.375 33.5488H81.9375C84.5254 33.5488 86.625 35.6484 86.625 38.2363V44.4863C86.625 47.0742 84.5254 49.1738 81.9375 49.1738H75.6875C73.0996 49.1738 71 47.0742 71 44.4863V38.2363C71 35.6484 73.0996 33.5488 75.6875 33.5488H77.25C77.25 25.9805 72.7676 19.457 66.2246 16.498C66.2344 19.0273 64.1641 21.0488 61.625 21.0488H55.375C52.748 21.0488 50.7656 19.0273 50.6875 16.498C44.2324 19.457 39.75 25.9805 39.75 33.5488H41.3125C43.9004 33.5488 46 35.6484 46 38.2363V44.4863C46 47.0742 43.9004 49.1738 41.3125 49.1738H35.0625C32.4736 49.1738 30.375 47.0742 30.375 44.4863V38.2363C30.375 35.6484 32.4736 33.5488 35.0625 33.5488H36.625C36.625 25.5898 40.873 18.627 47.2305 14.7988H39.4668C38.8613 17.4941 36.4121 19.4863 33.5 19.4863C30.0479 19.4863 27.25 16.6836 27.25 13.2363C27.25 9.78418 30.0479 6.98633 33.5 6.98633C36.4121 6.98633 38.8613 8.97851 39.4668 11.6738H50.6875V10.1113C50.6875 7.52246 52.7871 5.42383 55.375 5.42383H61.625C64.2129 5.42383 66.3125 7.52246 66.3125 10.1113V11.6738H77.4453C78.1387 8.97851 80.5898 6.98633 83.5 6.98633C86.9473 6.98633 89.75 9.78418 89.75 13.2363C89.75 16.6836 86.9473 19.4863 83.5 19.4863C80.5898 19.4863 78.1387 17.4941 77.4453 14.7988H69.7695C76.127 18.627 80.375 25.5898 80.375 33.5488ZM61.625 8.54883H55.375C54.5156 8.54883 53.8125 9.24805 53.8125 10.1113V16.3613C53.8125 17.2207 54.5156 17.9238 55.375 17.9238H61.625C62.4844 17.9238 63.1875 17.2207 63.1875 16.3613V10.1113C63.1875 9.24805 62.4844 8.54883 61.625 8.54883ZM75.6875 36.6738C74.8281 36.6738 74.125 37.377 74.125 38.2363V44.4863C74.125 45.3457 74.8281 46.0488 75.6875 46.0488H81.9375C82.7969 46.0488 83.5 45.3457 83.5 44.4863V38.2363C83.5 37.377 82.7969 36.6738 81.9375 36.6738H75.6875ZM35.0625 36.6738C34.1992 36.6738 33.5 37.377 33.5 38.2363V44.4863C33.5 45.3457 34.1992 46.0488 35.0625 46.0488H41.3125C42.1719 46.0488 42.875 45.3457 42.875 44.4863V38.2363C42.875 37.377 42.1719 36.6738 41.3125 36.6738H35.0625ZM33.5 10.1113C31.7744 10.1113 30.375 11.5107 30.375 13.2363C30.375 14.9648 31.7744 16.3613 33.5 16.3613C35.2256 16.3613 36.625 14.9648 36.625 13.2363C36.625 11.5107 35.2256 10.1113 33.5 10.1113ZM83.5 10.1113C81.7715 10.1113 80.375 11.5107 80.375 13.2363C80.375 14.9648 81.7715 16.3613 83.5 16.3613C85.2285 16.3613 86.625 14.9648 86.625 13.2363C86.625 11.5107 85.2285 10.1113 83.5 10.1113Z" fill="#333333"/>
<path d="M29.8233 78.3018C28.3513 78.3018 27.2366 77.9178 26.4793 77.1498C25.7219 76.3818 25.3433 75.2512 25.3433 73.7578V67.4858C25.3433 67.2832 25.4019 67.1232 25.5193 67.0058C25.6366 66.8778 25.7966 66.8138 25.9993 66.8138C26.1913 66.8138 26.3459 66.8778 26.4633 67.0058C26.5806 67.1232 26.6393 67.2832 26.6393 67.4858V73.8698C26.6393 74.9685 26.9059 75.7952 27.4393 76.3498C27.9833 76.9045 28.7779 77.1818 29.8233 77.1818C30.8686 77.1818 31.6579 76.9045 32.1913 76.3498C32.7246 75.7952 32.9913 74.9685 32.9913 73.8698V67.4858C32.9913 67.2832 33.0499 67.1232 33.1673 67.0058C33.2953 66.8778 33.4553 66.8138 33.6473 66.8138C33.8499 66.8138 34.0099 66.8778 34.1273 67.0058C34.2446 67.1232 34.3033 67.2832 34.3033 67.4858V73.7578C34.3033 75.2405 33.9193 76.3712 33.1513 77.1498C32.3939 77.9178 31.2846 78.3018 29.8233 78.3018ZM37.6574 78.2538C37.4547 78.2538 37.2947 78.1952 37.1774 78.0778C37.06 77.9498 37.0014 77.7845 37.0014 77.5818V67.4858C37.0014 67.2832 37.06 67.1232 37.1774 67.0058C37.2947 66.8778 37.4547 66.8138 37.6574 66.8138C37.86 66.8138 38.02 66.8778 38.1374 67.0058C38.2547 67.1232 38.3134 67.2832 38.3134 67.4858V77.5818C38.3134 77.7845 38.2547 77.9498 38.1374 78.0778C38.02 78.1952 37.86 78.2538 37.6574 78.2538ZM45.8921 78.1738C45.6895 78.1738 45.5241 78.1152 45.3961 77.9978C45.2788 77.8805 45.2201 77.7258 45.2201 77.5338V67.5338C45.2201 67.3418 45.2788 67.1872 45.3961 67.0698C45.5241 66.9525 45.6895 66.8938 45.8921 66.8938H49.0121C50.8148 66.8938 52.2068 67.3845 53.1881 68.3658C54.1801 69.3365 54.6761 70.7232 54.6761 72.5258C54.6761 74.3285 54.1801 75.7205 53.1881 76.7018C52.1961 77.6832 50.8041 78.1738 49.0121 78.1738H45.8921ZM48.9321 77.0538C51.8548 77.0538 53.3161 75.5445 53.3161 72.5258C53.3161 69.5178 51.8548 68.0138 48.9321 68.0138H46.5321V77.0538H48.9321ZM62.8883 76.3658C63.0056 76.3658 63.1069 76.4138 63.1923 76.5098C63.2776 76.6058 63.3203 76.7285 63.3203 76.8778C63.3203 77.1445 63.1336 77.3898 62.7603 77.6138C62.3763 77.8378 61.9709 78.0085 61.5443 78.1258C61.1176 78.2325 60.7016 78.2858 60.2963 78.2858C59.0909 78.2858 58.1363 77.9285 57.4323 77.2138C56.7389 76.4992 56.3923 75.5125 56.3923 74.2538C56.3923 73.4538 56.5469 72.7498 56.8563 72.1418C57.1656 71.5232 57.5976 71.0432 58.1523 70.7018C58.7176 70.3605 59.3576 70.1898 60.0723 70.1898C61.0856 70.1898 61.8909 70.5205 62.4883 71.1818C63.0856 71.8432 63.3843 72.7392 63.3843 73.8698C63.3843 74.0832 63.3416 74.2378 63.2563 74.3338C63.1709 74.4298 63.0323 74.4778 62.8403 74.4778H57.6883C57.7843 76.3125 58.6536 77.2298 60.2963 77.2298C60.7123 77.2298 61.0696 77.1765 61.3683 77.0698C61.6669 76.9525 61.9869 76.7978 62.3283 76.6058C62.6056 76.4458 62.7923 76.3658 62.8883 76.3658ZM60.0883 71.1978C59.4056 71.1978 58.8563 71.4112 58.4403 71.8378C58.0349 72.2645 57.7949 72.8672 57.7203 73.6458H62.2483C62.2269 72.8565 62.0296 72.2538 61.6563 71.8378C61.2829 71.4112 60.7603 71.1978 60.0883 71.1978ZM67.9178 78.2858C67.4271 78.2858 66.9578 78.2272 66.5098 78.1098C66.0724 77.9925 65.6831 77.8272 65.3418 77.6138C65.1498 77.4858 65.0111 77.3685 64.9258 77.2618C64.8511 77.1445 64.8138 77.0058 64.8138 76.8458C64.8138 76.7072 64.8511 76.5952 64.9258 76.5098C65.0111 76.4138 65.1178 76.3658 65.2458 76.3658C65.3738 76.3658 65.5604 76.4458 65.8058 76.6058C66.1258 76.7978 66.4404 76.9525 66.7498 77.0698C67.0698 77.1765 67.4644 77.2298 67.9338 77.2298C68.5098 77.2298 68.9578 77.1285 69.2778 76.9258C69.5978 76.7232 69.7578 76.4298 69.7578 76.0458C69.7578 75.8112 69.6991 75.6245 69.5818 75.4858C69.4644 75.3365 69.2618 75.2085 68.9738 75.1018C68.6858 74.9845 68.2644 74.8672 67.7098 74.7498C66.7711 74.5472 66.0991 74.2752 65.6938 73.9338C65.2884 73.5925 65.0858 73.1285 65.0858 72.5418C65.0858 72.0832 65.2138 71.6778 65.4698 71.3258C65.7258 70.9738 66.0778 70.6965 66.5258 70.4938C66.9844 70.2912 67.5018 70.1898 68.0778 70.1898C68.4938 70.1898 68.8938 70.2485 69.2778 70.3658C69.6724 70.4725 70.0191 70.6272 70.3178 70.8298C70.6804 71.0858 70.8618 71.3525 70.8618 71.6298C70.8618 71.7685 70.8191 71.8858 70.7338 71.9818C70.6484 72.0778 70.5471 72.1258 70.4298 72.1258C70.3018 72.1258 70.1098 72.0352 69.8538 71.8538C69.5551 71.6618 69.2724 71.5125 69.0058 71.4058C68.7391 71.2992 68.4084 71.2458 68.0138 71.2458C67.5124 71.2458 67.1071 71.3578 66.7978 71.5818C66.4991 71.8058 66.3498 72.1045 66.3498 72.4778C66.3498 72.7125 66.4031 72.9045 66.5098 73.0538C66.6271 73.1925 66.8138 73.3205 67.0698 73.4378C67.3364 73.5445 67.7151 73.6512 68.2057 73.7578C68.9311 73.9178 69.4911 74.0938 69.8858 74.2858C70.2911 74.4778 70.5791 74.7125 70.7498 74.9898C70.9204 75.2672 71.0058 75.6192 71.0058 76.0458C71.0058 76.7178 70.7231 77.2618 70.1578 77.6778C69.5924 78.0832 68.8458 78.2858 67.9178 78.2858ZM73.6373 78.2538C73.4453 78.2538 73.2853 78.2005 73.1573 78.0938C73.0399 77.9765 72.9813 77.8165 72.9813 77.6138V70.8618C72.9813 70.6592 73.0399 70.5045 73.1573 70.3978C73.2853 70.2805 73.4453 70.2218 73.6373 70.2218C73.8293 70.2218 73.9839 70.2805 74.1013 70.3978C74.2186 70.5045 74.2773 70.6592 74.2773 70.8618V77.6138C74.2773 77.8272 74.2186 77.9872 74.1013 78.0938C73.9839 78.2005 73.8293 78.2538 73.6373 78.2538ZM73.6373 68.5418C73.3813 68.5418 73.1733 68.4672 73.0133 68.3178C72.8533 68.1685 72.7733 67.9712 72.7733 67.7258C72.7733 67.4912 72.8533 67.2992 73.0133 67.1498C73.1733 67.0005 73.3813 66.9258 73.6373 66.9258C73.8933 66.9258 74.1013 67.0005 74.2613 67.1498C74.4213 67.2992 74.5013 67.4912 74.5013 67.7258C74.5013 67.9712 74.4213 68.1685 74.2613 68.3178C74.1013 68.4672 73.8933 68.5418 73.6373 68.5418ZM83.02 70.2218C83.2227 70.2218 83.3827 70.2805 83.5 70.3978C83.6173 70.5152 83.676 70.6698 83.676 70.8618V77.6458C83.676 78.8085 83.3773 79.6832 82.78 80.2698C82.1827 80.8672 81.2973 81.1658 80.124 81.1658C78.9827 81.1658 78.0333 80.9418 77.276 80.4938C76.892 80.2805 76.7 80.0352 76.7 79.7578C76.7 79.6085 76.7373 79.4858 76.812 79.3898C76.8973 79.2938 77.004 79.2458 77.132 79.2458C77.2387 79.2458 77.4307 79.3205 77.708 79.4698C78.0813 79.6618 78.4493 79.8165 78.812 79.9338C79.1747 80.0512 79.6067 80.1098 80.108 80.1098C80.8653 80.1098 81.436 79.9072 81.82 79.5018C82.204 79.1072 82.396 78.5258 82.396 77.7578V76.3818C82.172 76.8832 81.8253 77.2672 81.356 77.5338C80.8973 77.8005 80.3533 77.9338 79.724 77.9338C79.0413 77.9338 78.4333 77.7738 77.9 77.4538C77.3773 77.1338 76.9667 76.6805 76.668 76.0938C76.38 75.5072 76.236 74.8298 76.236 74.0618C76.236 73.2938 76.38 72.6165 76.668 72.0298C76.9667 71.4432 77.3773 70.9898 77.9 70.6698C78.4333 70.3498 79.0413 70.1898 79.724 70.1898C80.3427 70.1898 80.8813 70.3232 81.34 70.5898C81.7987 70.8565 82.1453 71.2352 82.38 71.7258V70.8618C82.38 70.6698 82.4333 70.5152 82.54 70.3978C82.6573 70.2805 82.8173 70.2218 83.02 70.2218ZM79.98 76.8618C80.7267 76.8618 81.3133 76.6165 81.74 76.1258C82.1667 75.6245 82.38 74.9365 82.38 74.0618C82.38 73.1978 82.1667 72.5205 81.74 72.0298C81.324 71.5285 80.7373 71.2778 79.98 71.2778C79.2227 71.2778 78.6253 71.5285 78.188 72.0298C77.7613 72.5205 77.548 73.1978 77.548 74.0618C77.548 74.9365 77.7613 75.6245 78.188 76.1258C78.6253 76.6165 79.2227 76.8618 79.98 76.8618ZM89.995 70.1898C91.8617 70.1898 92.795 71.2192 92.795 73.2778V77.6138C92.795 77.8165 92.7363 77.9765 92.619 78.0938C92.5123 78.2005 92.3577 78.2538 92.155 78.2538C91.9523 78.2538 91.7923 78.2005 91.675 78.0938C91.5577 77.9765 91.499 77.8165 91.499 77.6138V73.3578C91.499 72.6325 91.355 72.1045 91.067 71.7738C90.7897 71.4432 90.3417 71.2778 89.723 71.2778C89.0083 71.2778 88.4377 71.4965 88.011 71.9338C87.5843 72.3712 87.371 72.9632 87.371 73.7098V77.6138C87.371 77.8165 87.3123 77.9765 87.195 78.0938C87.0883 78.2005 86.9337 78.2538 86.731 78.2538C86.5283 78.2538 86.3683 78.2005 86.251 78.0938C86.1337 77.9765 86.075 77.8165 86.075 77.6138V70.8618C86.075 70.6698 86.1337 70.5152 86.251 70.3978C86.3683 70.2805 86.5283 70.2218 86.731 70.2218C86.923 70.2218 87.0723 70.2805 87.179 70.3978C87.2963 70.5152 87.355 70.6645 87.355 70.8458V71.6618C87.611 71.1818 87.9683 70.8192 88.427 70.5738C88.8857 70.3178 89.4083 70.1898 89.995 70.1898Z" fill="#333333"/>
</svg>
