<svg width="117" height="91" viewBox="0 0 117 91" fill="none" xmlns="http://www.w3.org/2000/svg">
<path d="M49.125 11.1113V25.1738H39.75V11.1113C39.75 10.252 39.0508 9.54883 38.1875 9.54883C37.3242 9.54883 36.625 10.252 36.625 11.1113V39.2363C36.625 43.543 40.1289 47.0488 44.4375 47.0488C48.7461 47.0488 52.25 43.543 52.25 39.2363V11.1113C52.25 10.252 51.5469 9.54883 50.6875 9.54883C49.8281 9.54883 49.125 10.252 49.125 11.1113ZM49.125 39.2363C49.125 41.8242 47.0254 43.9238 44.4375 43.9238C41.8496 43.9238 39.75 41.8242 39.75 39.2363V28.2988H49.125V39.2363ZM78.8125 9.54883C77.9531 9.54883 77.25 10.252 77.25 11.1113V18.1738H67.875V11.1113C67.875 10.252 67.1719 9.54883 66.3125 9.54883C65.4531 9.54883 64.75 10.252 64.75 11.1113V39.2363C64.75 43.5459 68.2539 47.0488 72.5625 47.0488C76.8711 47.0488 80.375 43.5449 80.375 39.2363V11.1113C80.375 10.252 79.6719 9.54883 78.8125 9.54883ZM53.8125 3.29883H35.0625C34.1988 3.29883 33.5 3.99805 33.5 4.86133C33.5 5.72461 34.1988 6.42383 35.0625 6.42383H53.8125C54.6719 6.42383 55.375 5.72461 55.375 4.86133C55.375 3.99805 54.6719 3.29883 53.8125 3.29883ZM81.9375 3.29883H63.1875C62.3281 3.29883 61.625 3.99805 61.625 4.86133C61.625 5.72461 62.3281 6.42383 63.1875 6.42383H81.9375C82.7969 6.42383 83.5 5.72461 83.5 4.86133C83.5 3.99805 82.7969 3.29883 81.9375 3.29883Z" fill="#333333"/>
<path d="M31.3306 77.4218C31.3732 77.5072 31.3946 77.5978 31.3946 77.6938C31.3946 77.8538 31.3306 77.9872 31.2026 78.0938C31.0852 78.2005 30.9412 78.2538 30.7706 78.2538C30.5039 78.2538 30.3172 78.1258 30.2106 77.8698L29.0746 75.2778H23.0426L21.8906 77.8698C21.7839 78.1258 21.5972 78.2538 21.3306 78.2538C21.1599 78.2538 21.0106 78.2005 20.8826 78.0938C20.7546 77.9765 20.6906 77.8378 20.6906 77.6778C20.6906 77.5925 20.7119 77.5072 20.7546 77.4218L25.3306 67.2458C25.3946 67.0965 25.4906 66.9845 25.6186 66.9098C25.7466 66.8352 25.8852 66.7978 26.0346 66.7978C26.1946 66.7978 26.3386 66.8405 26.4666 66.9258C26.5946 67.0005 26.6906 67.1072 26.7546 67.2458L31.3306 77.4218ZM23.5226 74.1898H28.5946L26.0506 68.4458L23.5226 74.1898ZM39.6436 72.3818C40.2942 72.5525 40.7956 72.8725 41.1476 73.3418C41.5102 73.8112 41.6916 74.3978 41.6916 75.1018C41.6916 76.0938 41.3662 76.8565 40.7156 77.3898C40.0649 77.9125 39.1422 78.1738 37.9476 78.1738H33.9156C33.7129 78.1738 33.5476 78.1152 33.4196 77.9978C33.3022 77.8805 33.2436 77.7258 33.2436 77.5338V67.5338C33.2436 67.3418 33.3022 67.1872 33.4196 67.0698C33.5476 66.9525 33.7129 66.8938 33.9156 66.8938H37.7716C38.9342 66.8938 39.8356 67.1498 40.4756 67.6618C41.1156 68.1738 41.4356 68.8992 41.4356 69.8378C41.4356 70.4458 41.2756 70.9685 40.9556 71.4058C40.6462 71.8432 40.2089 72.1685 39.6436 72.3818ZM34.5396 71.9018H37.5796C38.4222 71.9018 39.0569 71.7312 39.4836 71.3898C39.9209 71.0485 40.1396 70.5525 40.1396 69.9018C40.1396 68.6218 39.2862 67.9818 37.5796 67.9818H34.5396V71.9018ZM37.8196 77.0858C38.7049 77.0858 39.3556 76.9258 39.7716 76.6058C40.1982 76.2752 40.4116 75.7632 40.4116 75.0698C40.4116 73.6832 39.5476 72.9898 37.8196 72.9898H34.5396V77.0858H37.8196ZM51.5418 78.2538C51.3391 78.2538 51.1738 78.1952 51.0458 78.0778C50.9285 77.9498 50.8698 77.7845 50.8698 77.5818V68.0138H47.4298C47.2378 68.0138 47.0885 67.9658 46.9818 67.8698C46.8751 67.7738 46.8218 67.6352 46.8218 67.4538C46.8218 67.2725 46.8751 67.1338 46.9818 67.0378C47.0885 66.9418 47.2378 66.8938 47.4298 66.8938H55.6378C55.8298 66.8938 55.9791 66.9418 56.0858 67.0378C56.1925 67.1338 56.2458 67.2725 56.2458 67.4538C56.2458 67.6352 56.1925 67.7738 56.0858 67.8698C55.9791 67.9658 55.8298 68.0138 55.6378 68.0138H52.1978V77.5818C52.1978 77.7845 52.1391 77.9498 52.0218 78.0778C51.9045 78.1952 51.7445 78.2538 51.5418 78.2538ZM62.3336 76.3658C62.4509 76.3658 62.5522 76.4138 62.6376 76.5098C62.7229 76.6058 62.7656 76.7285 62.7656 76.8778C62.7656 77.1445 62.5789 77.3898 62.2056 77.6138C61.8216 77.8378 61.4162 78.0085 60.9896 78.1258C60.5629 78.2325 60.1469 78.2858 59.7416 78.2858C58.5362 78.2858 57.5816 77.9285 56.8776 77.2138C56.1842 76.4992 55.8376 75.5125 55.8376 74.2538C55.8376 73.4538 55.9922 72.7498 56.3016 72.1418C56.6109 71.5232 57.0429 71.0432 57.5976 70.7018C58.1629 70.3605 58.8029 70.1898 59.5176 70.1898C60.5309 70.1898 61.3362 70.5205 61.9336 71.1818C62.5309 71.8432 62.8296 72.7392 62.8296 73.8698C62.8296 74.0832 62.7869 74.2378 62.7016 74.3338C62.6162 74.4298 62.4776 74.4778 62.2856 74.4778H57.1336C57.2296 76.3125 58.0989 77.2298 59.7416 77.2298C60.1576 77.2298 60.5149 77.1765 60.8136 77.0698C61.1122 76.9525 61.4322 76.7978 61.7736 76.6058C62.0509 76.4458 62.2376 76.3658 62.3336 76.3658ZM59.5336 71.1978C58.8509 71.1978 58.3016 71.4112 57.8856 71.8378C57.4802 72.2645 57.2402 72.8672 57.1656 73.6458H61.6936C61.6722 72.8565 61.4749 72.2538 61.1016 71.8378C60.7282 71.4112 60.2056 71.1978 59.5336 71.1978ZM67.3631 78.2858C66.8724 78.2858 66.4031 78.2272 65.9551 78.1098C65.5177 77.9925 65.1284 77.8272 64.7871 77.6138C64.5951 77.4858 64.4564 77.3685 64.3711 77.2618C64.2964 77.1445 64.2591 77.0058 64.2591 76.8458C64.2591 76.7072 64.2964 76.5952 64.3711 76.5098C64.4564 76.4138 64.5631 76.3658 64.6911 76.3658C64.8191 76.3658 65.0057 76.4458 65.2511 76.6058C65.5711 76.7978 65.8857 76.9525 66.1951 77.0698C66.5151 77.1765 66.9097 77.2298 67.3791 77.2298C67.9551 77.2298 68.4031 77.1285 68.7231 76.9258C69.0431 76.7232 69.2031 76.4298 69.2031 76.0458C69.2031 75.8112 69.1444 75.6245 69.0271 75.4858C68.9097 75.3365 68.7071 75.2085 68.4191 75.1018C68.1311 74.9845 67.7097 74.8672 67.1551 74.7498C66.2164 74.5472 65.5444 74.2752 65.1391 73.9338C64.7337 73.5925 64.5311 73.1285 64.5311 72.5418C64.5311 72.0832 64.6591 71.6778 64.9151 71.3258C65.1711 70.9738 65.5231 70.6965 65.9711 70.4938C66.4297 70.2912 66.9471 70.1898 67.5231 70.1898C67.9391 70.1898 68.3391 70.2485 68.7231 70.3658C69.1177 70.4725 69.4644 70.6272 69.7631 70.8298C70.1257 71.0858 70.3071 71.3525 70.3071 71.6298C70.3071 71.7685 70.2644 71.8858 70.1791 71.9818C70.0937 72.0778 69.9924 72.1258 69.8751 72.1258C69.7471 72.1258 69.5551 72.0352 69.2991 71.8538C69.0004 71.6618 68.7177 71.5125 68.4511 71.4058C68.1844 71.2992 67.8537 71.2458 67.4591 71.2458C66.9577 71.2458 66.5524 71.3578 66.2431 71.5818C65.9444 71.8058 65.7951 72.1045 65.7951 72.4778C65.7951 72.7125 65.8484 72.9045 65.9551 73.0538C66.0724 73.1925 66.2591 73.3205 66.5151 73.4378C66.7817 73.5445 67.1604 73.6512 67.6511 73.7578C68.3764 73.9178 68.9364 74.0938 69.3311 74.2858C69.7364 74.4778 70.0244 74.7125 70.1951 74.9898C70.3657 75.2672 70.4511 75.6192 70.4511 76.0458C70.4511 76.7178 70.1684 77.2618 69.6031 77.6778C69.0377 78.0832 68.2911 78.2858 67.3631 78.2858ZM75.9484 77.2298C76.3218 77.2618 76.5084 77.4325 76.5084 77.7418C76.5084 77.9232 76.4391 78.0618 76.3004 78.1578C76.1724 78.2432 75.9751 78.2752 75.7084 78.2538L75.2764 78.2218C74.4231 78.1578 73.7938 77.9018 73.3884 77.4538C72.9831 77.0058 72.7804 76.3285 72.7804 75.4218V71.4058H71.7084C71.5271 71.4058 71.3831 71.3632 71.2764 71.2778C71.1804 71.1818 71.1324 71.0592 71.1324 70.9098C71.1324 70.7498 71.1804 70.6218 71.2764 70.5258C71.3831 70.4298 71.5271 70.3818 71.7084 70.3818H72.7804V68.5738C72.7804 68.3712 72.8391 68.2165 72.9564 68.1098C73.0738 67.9925 73.2338 67.9338 73.4364 67.9338C73.6284 67.9338 73.7831 67.9925 73.9004 68.1098C74.0178 68.2165 74.0764 68.3712 74.0764 68.5738V70.3818H75.8524C76.0231 70.3818 76.1564 70.4298 76.2524 70.5258C76.3591 70.6218 76.4124 70.7498 76.4124 70.9098C76.4124 71.0592 76.3591 71.1818 76.2524 71.2778C76.1564 71.3632 76.0231 71.4058 75.8524 71.4058H74.0764V75.4858C74.0764 76.0725 74.1938 76.4992 74.4284 76.7658C74.6738 77.0218 75.0364 77.1658 75.5164 77.1978L75.9484 77.2298ZM78.4419 78.2538C78.2499 78.2538 78.0899 78.2005 77.9619 78.0938C77.8446 77.9765 77.7859 77.8165 77.7859 77.6138V70.8618C77.7859 70.6592 77.8446 70.5045 77.9619 70.3978C78.0899 70.2805 78.2499 70.2218 78.4419 70.2218C78.6339 70.2218 78.7886 70.2805 78.9059 70.3978C79.0233 70.5045 79.0819 70.6592 79.0819 70.8618V77.6138C79.0819 77.8272 79.0233 77.9872 78.9059 78.0938C78.7886 78.2005 78.6339 78.2538 78.4419 78.2538ZM78.4419 68.5418C78.1859 68.5418 77.9779 68.4672 77.8179 68.3178C77.6579 68.1685 77.5779 67.9712 77.5779 67.7258C77.5779 67.4912 77.6579 67.2992 77.8179 67.1498C77.9779 67.0005 78.1859 66.9258 78.4419 66.9258C78.6979 66.9258 78.9059 67.0005 79.0659 67.1498C79.2259 67.2992 79.3059 67.4912 79.3059 67.7258C79.3059 67.9712 79.2259 68.1685 79.0659 68.3178C78.9059 68.4672 78.6979 68.5418 78.4419 68.5418ZM85.4247 70.1898C87.2914 70.1898 88.2247 71.2192 88.2247 73.2778V77.6138C88.2247 77.8165 88.166 77.9765 88.0487 78.0938C87.942 78.2005 87.7874 78.2538 87.5847 78.2538C87.382 78.2538 87.222 78.2005 87.1047 78.0938C86.9874 77.9765 86.9287 77.8165 86.9287 77.6138V73.3578C86.9287 72.6325 86.7847 72.1045 86.4967 71.7738C86.2194 71.4432 85.7714 71.2778 85.1527 71.2778C84.438 71.2778 83.8674 71.4965 83.4407 71.9338C83.014 72.3712 82.8007 72.9632 82.8007 73.7098V77.6138C82.8007 77.8165 82.742 77.9765 82.6247 78.0938C82.518 78.2005 82.3634 78.2538 82.1607 78.2538C81.958 78.2538 81.798 78.2005 81.6807 78.0938C81.5634 77.9765 81.5047 77.8165 81.5047 77.6138V70.8618C81.5047 70.6698 81.5634 70.5152 81.6807 70.3978C81.798 70.2805 81.958 70.2218 82.1607 70.2218C82.3527 70.2218 82.502 70.2805 82.6087 70.3978C82.726 70.5152 82.7847 70.6645 82.7847 70.8458V71.6618C83.0407 71.1818 83.398 70.8192 83.8567 70.5738C84.3154 70.3178 84.838 70.1898 85.4247 70.1898ZM96.9184 70.2218C97.1211 70.2218 97.2811 70.2805 97.3984 70.3978C97.5158 70.5152 97.5744 70.6698 97.5744 70.8618V77.6458C97.5744 78.8085 97.2758 79.6832 96.6784 80.2698C96.0811 80.8672 95.1958 81.1658 94.0224 81.1658C92.8811 81.1658 91.9318 80.9418 91.1744 80.4938C90.7904 80.2805 90.5984 80.0352 90.5984 79.7578C90.5984 79.6085 90.6358 79.4858 90.7104 79.3898C90.7958 79.2938 90.9024 79.2458 91.0304 79.2458C91.1371 79.2458 91.3291 79.3205 91.6064 79.4698C91.9798 79.6618 92.3478 79.8165 92.7104 79.9338C93.0731 80.0512 93.5051 80.1098 94.0064 80.1098C94.7638 80.1098 95.3344 79.9072 95.7184 79.5018C96.1024 79.1072 96.2944 78.5258 96.2944 77.7578V76.3818C96.0704 76.8832 95.7238 77.2672 95.2544 77.5338C94.7958 77.8005 94.2518 77.9338 93.6224 77.9338C92.9398 77.9338 92.3318 77.7738 91.7984 77.4538C91.2758 77.1338 90.8651 76.6805 90.5664 76.0938C90.2784 75.5072 90.1344 74.8298 90.1344 74.0618C90.1344 73.2938 90.2784 72.6165 90.5664 72.0298C90.8651 71.4432 91.2758 70.9898 91.7984 70.6698C92.3318 70.3498 92.9398 70.1898 93.6224 70.1898C94.2411 70.1898 94.7798 70.3232 95.2384 70.5898C95.6971 70.8565 96.0438 71.2352 96.2784 71.7258V70.8618C96.2784 70.6698 96.3318 70.5152 96.4384 70.3978C96.5558 70.2805 96.7158 70.2218 96.9184 70.2218ZM93.8784 76.8618C94.6251 76.8618 95.2118 76.6165 95.6384 76.1258C96.0651 75.6245 96.2784 74.9365 96.2784 74.0618C96.2784 73.1978 96.0651 72.5205 95.6384 72.0298C95.2224 71.5285 94.6358 71.2778 93.8784 71.2778C93.1211 71.2778 92.5238 71.5285 92.0864 72.0298C91.6598 72.5205 91.4464 73.1978 91.4464 74.0618C91.4464 74.9365 91.6598 75.6245 92.0864 76.1258C92.5238 76.6165 93.1211 76.8618 93.8784 76.8618Z" fill="#333333"/>
</svg>
