<svg width="567" height="210" viewBox="0 0 567 210" fill="none" xmlns="http://www.w3.org/2000/svg">
<path d="M0 207.349V2.22656H70.2759C83.5425 2.22656 96.3452 4.31396 108.684 8.48877C121.116 12.5708 132.249 18.7866 142.083 27.1362C151.917 35.4858 159.709 46.0156 165.461 58.7256C171.213 71.3428 174.089 86.2329 174.089 103.396C174.089 120.652 171.213 135.82 165.461 148.901C159.709 161.89 152.056 172.744 142.5 181.465C132.944 190.093 122.229 196.587 110.354 200.947C98.479 205.215 86.3257 207.349 73.894 207.349H0ZM45.6445 166.714H75.1465C80.6201 166.714 86.4185 165.554 92.5415 163.235C98.7573 160.916 104.602 157.251 110.076 152.241C115.549 147.139 119.956 140.598 123.296 132.62C126.729 124.548 128.445 114.807 128.445 103.396C128.445 92.0776 126.729 82.5684 123.296 74.8682C119.956 67.168 115.549 60.9985 110.076 56.3599C104.602 51.6284 98.7573 48.1958 92.5415 46.062C86.4185 43.9282 80.6201 42.8613 75.1465 42.8613H45.6445V166.714Z" fill="#1E1E1E"/>
<path d="M198.999 207.349V2.22656H319.094V42.8613H244.644V83.9136H306.292V123.296H244.644V166.714H319.094V207.349H198.999Z" fill="#1E1E1E"/>
<path d="M417.48 209.575C405.605 209.575 394.38 207.302 383.804 202.756C373.32 198.21 364.275 192.134 356.667 184.526C349.153 176.826 343.911 168.384 340.942 159.199L384.221 140.969C385.798 145.33 388.118 149.597 391.179 153.772C394.241 157.854 397.952 161.287 402.312 164.07C406.765 166.76 411.775 168.105 417.341 168.105C421.887 168.105 426.016 167.178 429.727 165.322C433.438 163.467 436.406 160.962 438.633 157.808C440.952 154.561 442.112 150.989 442.112 147.092C442.112 142.639 440.72 138.835 437.937 135.681C435.154 132.527 431.628 129.883 427.361 127.749C423.093 125.615 418.64 123.806 414.001 122.322C409.363 120.745 405.188 119.353 401.477 118.147C392.2 115.085 383.525 111.05 375.454 106.04C367.383 101.03 360.842 94.6289 355.833 86.8359C350.823 78.9502 348.318 69.3481 348.318 58.0298C348.318 46.4331 351.055 36.2744 356.528 27.5537C362.002 18.833 369.702 12.0605 379.629 7.23633C389.556 2.41211 401.106 0 414.28 0C426.155 0 436.592 1.90186 445.591 5.70557C454.59 9.4165 462.151 14.4727 468.274 20.874C474.49 27.2754 479.221 34.4189 482.468 42.3047L440.581 59.4214C439.653 56.9165 438.03 54.2261 435.71 51.3501C433.391 48.3813 430.422 45.8301 426.804 43.6963C423.279 41.5625 419.197 40.4956 414.558 40.4956C409.27 40.4956 404.446 42.1191 400.085 45.3662C395.725 48.5205 393.545 52.9272 393.545 58.5864C393.545 63.2251 395.076 67.2144 398.137 70.5542C401.199 73.8013 404.956 76.5845 409.409 78.9038C413.955 81.1304 418.501 82.9858 423.047 84.4702C427.686 85.9546 431.489 87.1606 434.458 88.0884C438.354 89.2017 443.225 91.0571 449.07 93.6548C455.007 96.1597 460.898 99.6387 466.743 104.092C472.588 108.545 477.458 114.204 481.355 121.069C485.344 127.935 487.339 136.284 487.339 146.118C487.432 157.808 484.417 168.477 478.293 178.125C472.263 187.773 463.96 195.427 453.384 201.086C442.9 206.746 430.933 209.575 417.48 209.575Z" fill="#1E1E1E"/>
<path d="M520.598 207.349V2.22656H566.104V207.349H520.598Z" fill="#1E1E1E"/>
</svg>
