<svg width="200" height="211" viewBox="0 0 200 211" fill="none" xmlns="http://www.w3.org/2000/svg">
<path d="M106.597 210.15C91.1035 210.15 76.8628 207.553 63.8745 202.357C50.8862 197.162 39.6143 189.879 30.0586 180.509C20.5029 171.139 13.0811 160.146 7.79297 147.528C2.59766 134.911 0 121.181 0 106.337C0 91.4004 2.64404 77.5308 7.93213 64.728C13.2202 51.9253 20.7349 40.7461 30.4761 31.1904C40.2173 21.542 51.7676 14.0273 65.127 8.64648C78.4863 3.26562 93.1445 0.575195 109.102 0.575195C120.234 0.575195 131.228 1.9668 142.083 4.75C152.937 7.5332 163.003 11.8008 172.28 17.5527L154.885 58.4658C150.154 53.7344 143.799 49.8379 135.82 46.7764C127.935 43.7148 119.028 42.1841 109.102 42.1841C97.2266 42.1841 86.4648 44.7354 76.8164 49.8379C67.2607 54.9404 59.6533 62.2231 53.9941 71.686C48.335 81.0562 45.5054 92.189 45.5054 105.084C45.5054 114.547 47.0361 123.222 50.0977 131.107C53.1592 138.9 57.4731 145.673 63.0396 151.425C68.606 157.177 75.1465 161.63 82.6611 164.784C90.1758 167.938 98.3398 169.516 107.153 169.516C116.709 169.516 125.198 167.707 132.62 164.088C140.134 160.377 146.025 155.368 150.293 149.059C154.561 142.75 156.694 135.514 156.694 127.35H100.613V89.4985H199.695V122.479C199.695 139.271 195.845 154.301 188.145 167.567C180.444 180.741 169.636 191.132 155.72 198.739C141.804 206.347 125.43 210.15 106.597 210.15Z" fill="#1E1E1E"/>
</svg>
