<svg width="530" height="206" viewBox="0 0 530 206" fill="none" xmlns="http://www.w3.org/2000/svg">
<path d="M0 205.272V0.150391H33.2593L116.895 104.381L131.785 124.56H133.037L131.785 80.0283V0.150391H177.429V205.272H144.031L60.9521 99.2324L45.9229 78.4976H44.8096L45.6445 124.977V205.272H0Z" fill="#1E1E1E"/>
<path d="M214.863 205.272V0.150391H334.958V40.7852H260.508V81.8374H322.156V121.22H260.508V164.638H334.958V205.272H214.863Z" fill="#1E1E1E"/>
<path d="M398.694 134.44V97.2842H434.875C441.184 97.2842 446.75 96.1245 451.575 93.8052C456.399 91.3931 460.11 88.0996 462.708 83.9248C465.398 79.6572 466.743 74.7402 466.743 69.1738C466.743 60.4531 463.635 53.5415 457.419 48.439C451.296 43.3364 443.225 40.7852 433.206 40.7852H398.694V0.150391H440.303C453.755 0.150391 465.815 2.60889 476.484 7.52588C487.246 12.3501 495.735 19.4473 501.951 28.8174C508.259 38.1875 511.414 49.645 511.414 63.1899C511.414 76.5493 508.12 88.6099 501.533 99.3716C495.039 110.133 485.576 118.668 473.145 124.977C460.806 131.286 446.055 134.44 428.892 134.44H398.694ZM366.27 205.272V0.150391H411.914V205.272H366.27ZM478.293 205.272L434.18 127.899L467.996 100.902L529.783 205.272H478.293Z" fill="#1E1E1E"/>
</svg>
