<svg width="125" height="125" viewBox="0 0 125 125" fill="none" xmlns="http://www.w3.org/2000/svg">
<path d="M25.4362 27.04C25.0382 27.4564 24.5653 27.7514 24.0175 27.925C23.4611 28.0903 22.9057 28.1156 22.3515 28.0008C21.7968 27.869 21.3069 27.5999 20.8819 27.1936C20.4829 26.8122 20.2009 26.3518 20.036 25.8123C19.8793 25.2641 19.8626 24.7086 19.9857 24.1456C20.1171 23.574 20.3942 23.067 20.8171 22.6246C21.2151 22.2082 21.6882 21.9217 22.2363 21.7651C22.7841 21.5915 23.3395 21.5662 23.9024 21.6893C24.4567 21.8042 24.9507 22.0689 25.3844 22.4835C25.8008 22.8815 26.0831 23.3589 26.2315 23.9157C26.3795 24.4556 26.3834 25.0072 26.2433 25.5705C26.1115 26.1252 25.8425 26.615 25.4362 27.04Z" fill="#333333"/>
<path d="M40.4126 18.265C39.2471 18.8847 38.1032 19.1871 36.9808 19.1722C35.8691 19.1517 34.8492 18.831 33.921 18.21C33.0035 17.5834 32.2405 16.698 31.6321 15.5537C31.0237 14.4093 30.7191 13.2869 30.7184 12.1865C30.7227 11.0698 31.0272 10.0449 31.6319 9.11177C32.2473 8.17303 33.1377 7.39383 34.3032 6.77415C35.0343 6.38545 35.798 6.12208 36.5944 5.98405C37.4015 5.84038 38.1207 5.83849 38.7523 5.97836L38.9449 8.52614C37.6795 8.36992 36.5647 8.54813 35.6005 9.06077C34.6893 9.54524 34.1421 10.2031 33.9589 11.0344C33.7863 11.8601 34.0014 12.8398 34.6041 13.9735C35.2069 15.1072 35.9016 15.8387 36.6882 16.1679C37.4798 16.481 38.3313 16.3952 39.2425 15.9108C40.2067 15.3981 40.9778 14.5736 41.556 13.4372L43.5604 15.0216C43.3232 15.6234 42.9194 16.2187 42.349 16.8074C41.7891 17.3904 41.1437 17.8763 40.4126 18.265Z" fill="#333333"/>
<path d="M51.9053 14.3497C50.639 14.6256 49.4806 14.6078 48.4302 14.2963C47.389 13.9705 46.5128 13.3877 45.8018 12.5478C45.0881 11.6962 44.5908 10.6256 44.3097 9.33581C44.0287 8.04607 44.0369 6.87141 44.3341 5.81185C44.6288 4.74055 45.1831 3.84605 45.9969 3.12833C46.8225 2.40806 47.8685 1.90998 49.1347 1.63407C50.401 1.35817 51.5535 1.37726 52.5922 1.69133C53.6426 2.00286 54.5188 2.58569 55.2207 3.43984C55.9318 4.27971 56.4278 5.34451 56.7089 6.63425C56.9899 7.92399 56.983 9.10451 56.6883 10.1758C56.3911 11.2354 55.831 12.1312 55.0079 12.8631C54.1941 13.5809 53.1598 14.0764 51.9053 14.3497ZM51.365 11.8699C52.303 11.6656 52.9642 11.1776 53.3488 10.406C53.7308 9.62275 53.7838 8.59797 53.5079 7.33168C53.232 6.06538 52.7529 5.1627 52.0705 4.62362C51.3998 4.08198 50.6013 3.91207 49.6751 4.11389C48.7371 4.31827 48.0758 4.80623 47.6912 5.57779C47.3041 6.33762 47.2498 7.35654 47.5282 8.63455C47.8067 9.91257 48.2813 10.8224 48.952 11.364C49.6226 11.9057 50.427 12.0743 51.365 11.8699Z" fill="#333333"/>
<path d="M72.7148 0.850052L71.762 13.5042L69.3209 13.3204L64.0859 5.65175L63.5413 12.8853L60.472 12.6542L61.4248 0L63.8299 0.181092L69.0829 7.85113L69.6275 0.617605L72.7148 0.850052Z" fill="#333333"/>
<path d="M80.3546 5.38838L76.7491 4.19457L77.5921 1.64851L87.9814 5.08847L87.1384 7.63454L83.5329 6.44073L80.3871 15.9415L77.2088 14.8891L80.3546 5.38838Z" fill="#333333"/>
<path d="M92.7156 19.7806L87.9627 16.7891L85.6031 18.4092L82.7848 16.6354L94.5564 9.05009L96.7805 10.45L95.048 24.3538L92.2755 22.6088L92.7156 19.7806ZM93.14 17.1127L93.8292 12.7398L90.1846 15.2526L93.14 17.1127Z" fill="#333333"/>
<path d="M99.6778 29.7083C98.7831 28.7377 98.2008 27.7077 97.9309 26.6182C97.6692 25.5375 97.7211 24.4696 98.0867 23.4145C98.4604 22.3681 99.1238 21.4057 100.077 20.5273C101.03 19.6489 102.038 19.07 103.103 18.7906C104.184 18.5118 105.253 18.5468 106.308 18.8955C107.372 19.2529 108.352 19.9169 109.246 20.8875C109.808 21.4963 110.256 22.1684 110.591 22.9039C110.935 23.6482 111.119 24.3435 111.143 24.99L108.727 25.8216C108.558 24.5579 108.103 23.5245 107.363 22.7217C106.664 21.9629 105.888 21.6002 105.038 21.6335C104.195 21.6757 103.302 22.1319 102.358 23.0022C101.414 23.8725 100.882 24.7298 100.763 25.5742C100.661 26.4193 100.959 27.2212 101.659 27.98C102.399 28.7829 103.392 29.32 104.638 29.5915L103.613 31.9319C102.97 31.8548 102.292 31.6149 101.578 31.2123C100.873 30.8184 100.239 30.317 99.6778 29.7083Z" fill="#333333"/>
<path d="M114.042 32.1521L112.218 28.8207L114.57 27.5328L119.826 37.1323L117.473 38.4202L115.65 35.0888L106.871 39.8948L105.263 36.9581L114.042 32.1521Z" fill="#333333"/>
<path d="M125 61.7407L112.387 63.1337L112.071 60.2712L118.69 59.54L113.895 57.6068L113.662 55.4956L117.814 52.5922L111.3 53.2936L110.984 50.431L123.597 49.0379L123.884 51.6321L117.128 56.2174L124.719 59.2001L125 61.7407Z" fill="#333333"/>
<path d="M124.916 67.9325L123.486 76.8364L120.962 76.4312L121.881 70.7085L119.5 70.326L118.638 75.6933L116.132 75.2909L116.994 69.9236L114.399 69.507L113.48 75.2297L110.956 74.8244L112.386 65.9205L124.916 67.9325Z" fill="#333333"/>
<path d="M108.146 86.1875C108.415 85.6783 108.79 85.2653 109.269 84.9487C109.759 84.6377 110.287 84.4617 110.851 84.4207C111.421 84.3959 111.966 84.5209 112.485 84.7957C112.973 85.0536 113.37 85.4195 113.677 85.8934C113.977 86.3779 114.145 86.9078 114.18 87.4829C114.21 88.0687 114.082 88.6321 113.796 89.1732C113.527 89.6825 113.15 90.0873 112.665 90.3877C112.186 90.7044 111.659 90.8804 111.083 90.9157C110.519 90.9567 109.971 90.837 109.441 90.5567C108.932 90.2875 108.53 89.9054 108.235 89.4103C107.945 88.9314 107.79 88.4019 107.771 87.8217C107.747 87.2521 107.872 86.7074 108.146 86.1875Z" fill="#333333"/>
<path d="M95.3888 99.2636C96.3608 98.4063 97.3814 97.8582 98.4507 97.6193C99.5188 97.3972 100.568 97.48 101.598 97.8677C102.636 98.2644 103.591 98.9578 104.464 99.9478C105.337 100.938 105.902 101.968 106.158 103.038C106.422 104.118 106.373 105.169 106.011 106.192C105.64 107.223 104.969 108.167 103.997 109.024C103.025 109.881 102.009 110.425 100.948 110.656C99.8792 110.895 98.8301 110.813 97.8013 110.408C96.7714 110.02 95.8199 109.331 94.9468 108.341C94.0737 107.351 93.5052 106.317 93.2413 105.237C92.9854 104.167 93.0389 103.112 93.4017 102.072C93.7634 101.049 94.4258 100.113 95.3888 99.2636ZM97.0675 101.167C96.3475 101.802 96.0073 102.55 96.0468 103.411C96.0942 104.281 96.5465 105.203 97.4037 106.175C98.261 107.147 99.1188 107.702 99.9773 107.841C100.827 107.988 101.607 107.748 102.318 107.121C103.038 106.486 103.378 105.737 103.339 104.876C103.307 104.024 102.859 103.108 101.994 102.127C101.129 101.146 100.271 100.582 99.4218 100.435C98.5723 100.288 97.7875 100.532 97.0675 101.167Z" fill="#009788"/>
<path d="M94.2266 116.37L88.6928 119.025C87.427 119.633 86.2867 119.781 85.272 119.469C84.2625 119.168 83.4826 118.444 82.9322 117.298C82.3871 116.162 82.3158 115.098 82.7183 114.106C83.1101 113.119 83.9334 112.325 85.1884 111.723L87.7362 110.5L85.7504 106.362L88.7364 104.929L94.2266 116.37ZM86.6688 113.767C86.117 114.032 85.7658 114.341 85.6152 114.692C85.4538 115.049 85.4873 115.466 85.7157 115.942C85.9441 116.418 86.2481 116.705 86.6276 116.802C87.0015 116.915 87.4643 116.84 88.016 116.575L90.1581 115.547L88.8109 112.74L86.6688 113.767Z" fill="#009788"/>
<path d="M79.8119 122.575L70.9853 124.423L70.4614 121.922L76.1344 120.734L75.6401 118.373L70.3195 119.487L69.7993 117.003L75.12 115.889L74.5814 113.317L68.9084 114.505L68.3846 112.003L77.2112 110.155L79.8119 122.575Z" fill="#009788"/>
<path d="M54.2614 124.309L54.8631 111.634L57.3084 111.75L62.7539 119.27L63.0978 112.024L66.1724 112.17L65.5707 124.846L63.1614 124.732L57.6979 117.21L57.3539 124.456L54.2614 124.309Z" fill="#009788"/>
<path d="M39.9835 117.712L43.4566 119.249L42.3712 121.702L32.3634 117.273L33.4488 114.82L36.9219 116.357L40.9721 107.206L44.0337 108.561L39.9835 117.712Z" fill="#009788"/>
<path d="M31.9745 101.038C32.9855 101.849 33.7002 102.761 34.1187 103.773C34.5203 104.788 34.6182 105.835 34.4125 106.916C34.1993 108.007 33.6798 109.067 32.8538 110.097C32.0279 111.126 31.1096 111.859 30.0989 112.294C29.0806 112.739 28.0366 112.87 26.9667 112.689C25.8875 112.5 24.8424 112 23.8315 111.189C22.8205 110.379 22.1105 109.471 21.7014 108.466C21.2829 107.453 21.185 106.405 21.4075 105.322C21.6132 104.241 22.129 103.186 22.955 102.156C23.7809 101.127 24.703 100.389 25.7212 99.9446C26.7319 99.5093 27.7806 99.3813 28.8674 99.5608C29.9372 99.7421 30.9729 100.234 31.9745 101.038ZM30.3865 103.018C29.6376 102.417 28.8423 102.21 28.0006 102.396C27.1514 102.592 26.3213 103.195 25.5104 104.206C24.6995 105.217 24.2991 106.157 24.3092 107.027C24.3099 107.889 24.6801 108.617 25.4195 109.21C26.1684 109.81 26.9637 110.018 27.8054 109.831C28.6396 109.654 29.4659 109.056 30.2843 108.035C31.1028 107.015 31.5116 106.074 31.5109 105.212C31.5101 104.35 31.1353 103.618 30.3865 103.018Z" fill="#009788"/>
<path d="M2.46488 79.1508L15.8915 77.9945L16.9851 80.3841L11.1778 85.9914L19.2323 85.2944L20.3334 87.7004L10.6745 97.0894L9.27381 94.0287L15.4964 88.2908L6.99668 89.053L6.04537 86.9744L12.3615 81.0947L3.76824 81.9987L2.46488 79.1508Z" fill="#009788"/>
<path d="M13.5116 66.4738C13.6112 67.766 13.4346 68.911 12.9819 69.9087C12.5164 70.8954 11.8189 71.6833 10.8894 72.2725C9.94793 72.8626 8.81916 73.2083 7.50306 73.3097C6.18696 73.4112 5.02453 73.242 4.01575 72.8022C2.99501 72.3633 2.185 71.6916 1.58572 70.7869C0.985519 69.8704 0.635627 68.766 0.536045 67.4738C0.436463 66.1816 0.613471 65.0427 1.06707 64.0569C1.51974 63.0592 2.21726 62.2712 3.15963 61.6931C4.08911 61.104 5.21189 60.7587 6.52799 60.6572C7.84409 60.5558 9.01251 60.7245 10.0332 61.1634C11.042 61.6032 11.8525 62.2809 12.4647 63.1966C13.0639 64.1012 13.4129 65.1936 13.5116 66.4738ZM10.9811 66.6689C10.9073 65.7117 10.5147 64.9897 9.80317 64.503C9.0797 64.0171 8.07188 63.824 6.77971 63.9236C5.48754 64.0231 4.52766 64.3739 3.90006 64.9759C3.27154 65.566 2.9937 66.3336 3.06654 67.2788C3.14031 68.236 3.53294 68.9579 4.24445 69.4447C4.94399 69.9324 5.94582 70.126 7.24996 70.0255C8.55409 69.925 9.52042 69.5797 10.1489 68.9897C10.7775 68.3996 11.0548 67.626 10.9811 66.6689Z" fill="#009788"/>
<path d="M15.2928 46.574L14.5609 50.1356L10.1518 51.4715C9.63784 51.6477 9.32047 52.0296 9.1997 52.6173L8.99682 53.6047L13.6516 54.5612L12.9958 57.7525L0.565513 55.1983L1.78283 49.2741C2.09199 47.7695 2.65298 46.7087 3.46581 46.0917C4.2693 45.4605 5.28815 45.2717 6.52236 45.5253C7.46272 45.7185 8.20888 46.1414 8.76085 46.7938C9.30107 47.4439 9.58624 48.262 9.61635 49.2482C9.91649 48.5626 10.4979 48.0879 11.3607 47.8242L15.2928 46.574ZM7.02015 50.8831C7.16748 50.1661 7.16088 49.6319 7.00034 49.2804C6.84222 48.9171 6.51044 48.6835 6.005 48.5797C5.48781 48.4734 5.08494 48.556 4.79639 48.8275C4.4985 49.0848 4.27589 49.572 4.12856 50.289L3.66482 52.5458L6.55641 53.14L7.02015 50.8831Z" fill="#009788"/>
<path d="M19.7044 37.3578L12.2835 39.3659L17.4205 41.9313L15.9408 44.8943L4.58773 39.2248L6.06744 36.2617L10.9469 38.6984L8.287 31.8171L10.016 28.3548L12.9097 36.0571L21.4576 33.8472L19.7044 37.3578Z" fill="#009788"/>
</svg>
