<svg width="148" height="148" viewBox="0 0 148 148" fill="none" xmlns="http://www.w3.org/2000/svg">
<path d="M69.375 4.625C69.375 2.07084 71.4563 0 74 0C76.5437 0 78.625 2.07084 78.625 4.625V30.0625C78.625 32.6063 76.5437 34.6875 74 34.6875C71.4563 34.6875 69.375 32.6063 69.375 30.0625V4.625ZM46.25 74C46.25 58.4195 58.4195 46.25 74 46.25C89.3203 46.25 101.75 58.4195 101.75 74C101.75 89.3203 89.3203 101.75 74 101.75C58.4195 101.75 46.25 89.3203 46.25 74ZM74 92.5C84.2039 92.5 92.5 84.2039 92.5 74C92.5 63.7961 84.2039 55.5 74 55.5C63.7961 55.5 55.5 63.7961 55.5 74C55.5 84.2039 63.7961 92.5 74 92.5ZM74 148C71.4563 148 69.375 145.919 69.375 143.375V120.25C69.375 117.706 71.4563 115.625 74 115.625C76.5437 115.625 78.625 117.706 78.625 120.25V143.375C78.625 145.919 76.5437 148 74 148ZM0 74C0 71.4563 2.07084 69.375 4.625 69.375H27.75C30.2938 69.375 32.375 71.4563 32.375 74C32.375 76.5437 30.2938 78.625 27.75 78.625H4.625C2.07084 78.625 0 76.5437 0 74ZM143.375 69.375C145.919 69.375 148 71.4563 148 74C148 76.5437 145.919 78.625 143.375 78.625H117.938C115.394 78.625 113.312 76.5437 113.312 74C113.312 71.4563 115.394 69.375 117.938 69.375H143.375ZM21.6739 126.32C19.8673 124.528 19.8673 121.58 21.6739 119.787L38.0117 103.427C39.8328 101.634 42.7523 101.634 44.5734 103.427C46.3656 105.248 46.3656 108.167 44.5734 109.988L28.2154 126.32C26.4088 128.141 23.4805 128.141 21.6739 126.32ZM119.787 21.6739C121.58 19.8673 124.528 19.8673 126.32 21.6739C128.141 23.4805 128.141 26.4088 126.32 28.2154L108.341 46.1922C106.52 48.0133 103.6 48.0133 101.808 46.1922C99.9867 44.4 99.9867 41.4805 101.808 39.6594L119.787 21.6739ZM21.6739 21.6739C23.4805 19.8673 26.4088 19.8673 28.2154 21.6739L44.5734 38.0117C46.3656 39.8328 46.3656 42.7523 44.5734 44.5734C42.7523 46.3656 39.8328 46.3656 38.0117 44.5734L21.6739 28.2154C19.8673 26.4088 19.8673 23.4805 21.6739 21.6739ZM126.32 119.787C128.141 121.58 128.141 124.528 126.32 126.32C124.528 128.141 121.58 128.141 119.787 126.32L101.808 108.341C99.9867 106.52 99.9867 103.6 101.808 101.808C103.6 99.9867 106.52 99.9867 108.341 101.808L126.32 119.787Z" fill="#FAE1EE"/>
</svg>
