<svg width="36" height="72" viewBox="0 0 36 72" fill="none" xmlns="http://www.w3.org/2000/svg">
<path d="M36 65.25C36 66.4937 34.9937 67.5 33.75 67.5H2.25C1.00631 67.5 0 66.4875 0 65.25C0 64.0125 1.00631 63 2.25 63H15.75V11.07L8.03953 16.4672C7.02422 17.1844 5.61797 16.9313 4.90641 15.9188C4.19484 14.8922 4.44094 13.4958 5.46047 12.7843L16.7105 5.03582C17.3983 4.55235 18.2967 4.49089 19.0392 4.88197C19.7859 5.14269 20.25 5.91191 20.25 6.75144V63H33.75C34.9875 63 36 64.0125 36 65.25Z" fill="#E5409C"/>
</svg>
