<svg width="39" height="62" viewBox="0 0 39 62" fill="none" xmlns="http://www.w3.org/2000/svg">
<g clip-path="url(#clip0_109_85)">
<path d="M39.0001 56.0786C39.0001 57.2532 38.1226 58.1251 37.0501 58.1251H1.9501C1.14487 58.1251 0.423007 57.6329 0.131726 56.8875C-0.159555 56.142 0.0422211 55.2939 0.638239 54.7526L26.622 31.2362C32.1917 26.384 32.8401 18.1944 28.1186 12.5635C25.7767 9.76748 22.4739 8.07217 18.8176 7.78518C15.1918 7.51623 11.6404 8.66311 8.88113 11.0583L4.97991 14.4587C4.17066 15.1489 2.94095 15.0762 2.22798 14.277C1.51988 13.4657 1.60154 12.2426 2.41323 11.5391L6.31932 8.14361C9.87198 5.05209 14.4545 3.5917 19.1223 3.92107C23.8315 4.29211 28.0899 6.47979 31.1136 10.0823C37.2 17.3419 36.3652 27.9073 29.2184 34.1315L6.98841 54.2452H37.0501C38.1226 54.1411 39.0001 55.1219 39.0001 56.0786Z" fill="#E5409C"/>
</g>
<defs>
<clipPath id="clip0_109_85">
<rect width="39" height="62" fill="white"/>
</clipPath>
</defs>
</svg>
