<svg width="126" height="126" viewBox="0 0 126 126" fill="none" xmlns="http://www.w3.org/2000/svg">
<path d="M20.7498 33.7985C20.42 34.2733 19.9971 34.6394 19.4811 34.8968C18.9552 35.1474 18.4085 35.2589 17.8411 35.2314C17.2707 35.1871 16.7431 34.9966 16.2585 34.66C15.8035 34.344 15.4522 33.9314 15.2046 33.4222C14.964 32.9032 14.8608 32.355 14.8952 31.7777C14.9365 31.1905 15.1323 30.6447 15.4827 30.1403C15.8124 29.6655 16.2368 29.3077 16.7559 29.0671C17.2719 28.8097 17.8186 28.6981 18.3959 28.7325C18.9633 28.76 19.4943 28.9455 19.9888 29.289C20.4636 29.6188 20.8179 30.0481 21.0517 30.5771C21.2825 31.0893 21.3723 31.6355 21.3211 32.2159C21.2769 32.7863 21.0864 33.3138 20.7498 33.7985Z" fill="white"/>
<path d="M14.6728 43.8245C15.0144 43.6328 15.3417 43.581 15.6547 43.6691C15.9794 43.7604 16.2275 43.9678 16.3992 44.2913C16.5742 44.6032 16.6161 44.9215 16.5248 45.2461C16.4204 45.6171 16.1768 45.9051 15.7938 46.1102L9.00852 50.019L13.4255 51.2613C13.8429 51.3787 14.139 51.5934 14.314 51.9053C14.489 52.2172 14.5178 52.5819 14.4004 52.9992C14.283 53.4166 14.0684 53.7128 13.7564 53.8878C13.4445 54.0627 13.0799 54.0915 12.6625 53.9742L2.90685 51.2303C2.50109 51.1162 2.21072 50.9031 2.03574 50.5912C1.86076 50.2793 1.83196 49.9146 1.94934 49.4973C2.06673 49.0799 2.28139 48.7837 2.59332 48.6088C2.90525 48.4338 3.26409 48.4033 3.66986 48.5175L7.82601 49.6864L4.2079 43.0016C4.02459 42.6749 3.97858 42.3492 4.06988 42.0245C4.16118 41.6999 4.36279 41.4501 4.67473 41.2752C4.97506 41.0969 5.28754 41.0534 5.61215 41.1447C5.94835 41.2393 6.21064 41.4632 6.39903 41.8164L9.11288 47.0459L14.6728 43.8245Z" fill="white"/>
<path d="M11.7584 56.7912C12.0269 56.6159 12.2876 56.5308 12.5405 56.5359C12.8776 56.5426 13.1517 56.6867 13.3629 56.9679C13.5743 57.2372 13.6764 57.5524 13.6691 57.9136C13.6645 58.1424 13.6059 58.3641 13.4932 58.5786C13.3804 58.7932 13.2082 58.9704 12.9766 59.1103L9.38875 61.4232C9.07158 61.6216 8.84447 61.8339 8.70743 62.06C8.55835 62.2859 8.4803 62.5734 8.47329 62.9226L8.44389 64.3855L12.0922 64.4588C12.5257 64.4675 12.8663 64.6008 13.114 64.8587C13.3621 65.1046 13.4818 65.4383 13.4734 65.8597C13.4647 66.2932 13.3313 66.6338 13.0734 66.8816C12.8155 67.1293 12.4698 67.2489 12.0363 67.2402L1.92223 67.037C1.5008 67.0285 1.17801 66.9076 0.953832 66.6742C0.729657 66.4408 0.621802 66.1135 0.630269 65.692L0.721342 61.1588C0.751336 59.6657 1.10507 58.5466 1.78254 57.8013C2.44821 57.0438 3.40114 56.6775 4.64132 56.7024C5.61661 56.722 6.4239 57.0092 7.06321 57.5641C7.70252 58.119 8.1146 58.8922 8.29945 59.8836C8.37895 59.5238 8.52985 59.2077 8.75214 58.9351C8.96264 58.6502 9.26922 58.3793 9.67188 58.1224L11.7584 56.7912ZM6.36605 61.6877C6.38226 60.881 6.25552 60.2943 5.98584 59.9275C5.70413 59.5604 5.26225 59.3709 4.66023 59.3588C4.04616 59.3465 3.59703 59.5181 3.31284 59.8738C3.02865 60.2294 2.87845 60.8106 2.86224 61.6173L2.80818 64.3084L6.31199 64.3788L6.36605 61.6877Z" fill="white"/>
<path d="M15.3425 75.6587C15.6623 76.8821 15.6846 78.0152 15.4095 79.0581C15.1197 80.0923 14.5669 80.9774 13.751 81.7135C12.9235 82.4526 11.8689 82.9896 10.5872 83.3246C9.30556 83.6596 8.12888 83.7058 7.05719 83.4631C5.97385 83.2235 5.05859 82.7221 4.31142 81.9589C3.5612 81.1841 3.0262 80.185 2.70642 78.9616C2.38664 77.7382 2.36583 76.6109 2.64399 75.5797C2.91911 74.5369 3.47043 73.6459 4.29794 72.9068C5.11381 72.1708 6.16257 71.6352 7.44425 71.3002C8.72592 70.9652 9.90842 70.9175 10.9918 71.1572C12.0635 71.3998 12.9802 71.9071 13.7421 72.6788C14.4893 73.442 15.0228 74.4353 15.3425 75.6587ZM13.2278 76.2115C12.9598 75.1861 12.3884 74.4766 11.5138 74.0828C10.636 73.6774 9.51556 73.6529 8.15233 74.0092C6.7891 74.3655 5.82825 74.9279 5.26978 75.6962C4.69966 76.4676 4.55012 77.3718 4.82118 78.4088C5.09223 79.4458 5.66509 80.1612 6.53976 80.5549C7.39974 80.9401 8.51134 80.9545 9.87458 80.5982C11.2378 80.2418 12.2045 79.678 12.7746 78.9066C13.3447 78.1352 13.4958 77.2368 13.2278 76.2115Z" fill="white"/>
<path d="M8.82144 91.8371C8.52208 91.9124 8.25131 91.902 8.00914 91.8059C7.75021 91.7068 7.54197 91.5433 7.3844 91.3155C7.18573 91.0283 7.10703 90.724 7.1483 90.4026C7.18271 90.0713 7.35344 89.7994 7.66049 89.5871C7.80906 89.4843 7.99303 89.401 8.21242 89.3371L18.8034 86.5802C19.1028 86.5049 19.4006 86.5332 19.6968 86.6651C19.9763 86.794 20.2085 86.9921 20.3935 87.2595C20.5785 87.527 20.6819 87.8142 20.7039 88.1211C20.716 88.4349 20.634 88.7186 20.4579 88.9722L15.7343 95.5121L23.5613 93.459C23.8607 93.3837 24.155 93.407 24.4444 93.529C24.7239 93.6579 24.9561 93.856 25.1411 94.1234C25.3192 94.381 25.4227 94.6681 25.4515 94.985C25.4635 95.2988 25.3815 95.5825 25.2055 95.8361L18.8893 104.773C18.762 104.949 18.6241 105.089 18.4755 105.191C18.1685 105.404 17.8505 105.463 17.5215 105.368C17.1826 105.28 16.9104 105.088 16.7048 104.791C16.5404 104.553 16.4575 104.296 16.4561 104.018C16.438 103.738 16.5169 103.471 16.693 103.218L21.692 96.3772L13.496 98.5319C13.1966 98.6072 12.9175 98.5953 12.6585 98.4961C12.3928 98.3871 12.1845 98.2236 12.0338 98.0057C11.8762 97.7779 11.7967 97.5254 11.7953 97.2481C11.7939 96.9709 11.8862 96.7021 12.0722 96.4417L17.1558 89.5649L8.82144 91.8371Z" fill="white"/>
<path d="M39.001 106.067C40.1033 106.687 40.934 107.458 41.4932 108.38C42.036 109.307 42.2888 110.319 42.2517 111.418C42.2087 112.526 41.8627 113.658 41.2135 114.813C40.5644 115.968 39.7803 116.846 38.8614 117.449C37.9366 118.062 36.9402 118.372 35.8722 118.38C34.7937 118.381 33.7033 118.072 32.601 117.452C31.4987 116.833 30.6732 116.065 30.1245 115.149C29.5653 114.226 29.3072 113.211 29.3502 112.102C29.3873 111.004 29.7304 109.877 30.3796 108.723C31.0287 107.568 31.8157 106.684 32.7405 106.071C33.6595 105.469 34.6611 105.161 35.7455 105.149C36.8136 105.142 37.8987 105.448 39.001 106.067ZM37.9299 107.973C37.0061 107.453 36.0988 107.372 35.208 107.728C34.3067 108.077 33.5108 108.866 32.8204 110.095C32.1299 111.323 31.8671 112.405 32.0321 113.34C32.1911 114.286 32.7377 115.022 33.6721 115.547C34.6064 116.072 35.5189 116.157 36.4097 115.801C37.2841 115.45 38.0665 114.66 38.757 113.432C39.4474 112.204 39.7132 111.117 39.5542 110.171C39.3951 109.225 38.8537 108.492 37.9299 107.973Z" fill="white"/>
<path d="M50.2114 110.939C50.6191 111.046 50.9189 111.256 51.111 111.568C51.2913 111.877 51.3279 112.235 51.2209 112.643L48.8987 121.483L51.7291 122.227C52.5911 122.453 52.9241 122.939 52.7283 123.685C52.5356 124.418 52.0082 124.672 51.1463 124.446L42.7598 122.243C41.8978 122.017 41.5632 121.536 41.756 120.803C41.9518 120.057 42.4807 119.798 43.3426 120.024L46.1731 120.767L48.4953 111.927C48.6023 111.519 48.8103 111.225 49.1192 111.045C49.428 110.864 49.7921 110.829 50.2114 110.939Z" fill="white"/>
<path d="M65.1695 125.425C64.774 125.464 64.4434 125.364 64.1776 125.124C63.901 124.897 63.7425 124.58 63.7021 124.173L62.7025 114.088C62.6609 113.669 62.7529 113.315 62.9784 113.026C63.1931 112.751 63.4982 112.593 63.8937 112.554C64.3252 112.511 64.6881 112.633 64.9827 112.918L71.7692 120.033L71.0974 113.256C71.0559 112.837 71.1419 112.483 71.3554 112.196C71.5582 111.921 71.8573 111.765 72.2528 111.726C72.6482 111.686 72.9783 111.781 73.2429 112.009C73.5088 112.249 73.6625 112.578 73.704 112.998L74.7036 123.082C74.744 123.49 74.6568 123.831 74.4421 124.107C74.2166 124.395 73.9061 124.559 73.5106 124.598C73.0672 124.642 72.7102 124.52 72.4396 124.233L65.6584 117.172L66.3266 123.913C66.367 124.32 66.2798 124.662 66.0651 124.937C65.8515 125.224 65.553 125.387 65.1695 125.425Z" fill="white"/>
<path d="M82.7841 108.681C83.1801 108.536 83.5247 108.532 83.8181 108.669C84.1114 108.806 84.3303 109.072 84.4746 109.468L87.933 118.955C88.0774 119.351 88.0812 119.696 87.9446 119.989C87.808 120.283 87.5417 120.502 87.1457 120.646L81.1376 122.836C80.3003 123.141 79.7579 122.954 79.5104 122.276C79.2588 121.585 79.5517 121.088 80.389 120.782L85.0563 119.081L84.0355 116.281L79.7076 117.858C78.8703 118.164 78.3259 117.971 78.0743 117.281C77.8268 116.602 78.1217 116.11 78.959 115.805L83.2869 114.227L82.1918 111.223L77.5245 112.924C76.6872 113.23 76.1428 113.037 75.8912 112.347C75.6437 111.668 75.9386 111.176 76.7759 110.871L82.7841 108.681Z" fill="white"/>
<path d="M93.2519 102.333C93.6132 102.093 93.9692 102.009 94.3197 102.08C94.6702 102.151 94.9653 102.367 95.205 102.728L100.796 111.159C101.029 111.51 101.114 111.844 101.049 112.162C100.985 112.479 100.777 112.754 100.426 112.987L96.6476 115.493C95.4934 116.258 94.4021 116.563 93.3737 116.407C92.3453 116.251 91.485 115.651 90.7927 114.607C90.1005 113.563 89.8825 112.537 90.1387 111.529C90.395 110.521 91.1002 109.634 92.2544 108.869L94.7835 107.192L92.8565 104.286C92.6169 103.925 92.5325 103.569 92.6035 103.218C92.6745 102.868 92.8906 102.573 93.2519 102.333ZM93.7336 110.446C92.5594 111.224 92.3084 112.121 92.9807 113.134C93.6597 114.158 94.5863 114.28 95.7605 113.502L97.9885 112.024L95.9617 108.968L93.7336 110.446Z" fill="white"/>
<path d="M100.283 95.2514C101.113 94.2978 102.037 93.6407 103.053 93.2803C104.071 92.9369 105.113 92.8947 106.181 93.1539C107.258 93.4209 108.296 93.9894 109.295 94.8594C110.294 95.7294 110.996 96.6754 111.399 97.6974C111.812 98.7274 111.913 99.766 111.704 100.813C111.487 101.87 110.963 102.875 110.132 103.828C109.302 104.782 108.382 105.434 107.374 105.786C106.357 106.146 105.311 106.193 104.234 105.926C103.166 105.667 102.133 105.102 101.133 104.232C100.134 103.362 99.4286 102.412 99.016 101.382C98.6125 100.36 98.5149 99.3171 98.7231 98.2528C98.9324 97.2055 99.4523 96.205 100.283 95.2514ZM101.931 96.6868C101.235 97.4861 100.971 98.3579 101.139 99.3023C101.298 100.256 101.91 101.195 102.972 102.121C104.035 103.046 105.041 103.523 105.99 103.551C106.949 103.587 107.78 103.201 108.484 102.393C109.188 101.585 109.456 100.708 109.288 99.7638C109.122 98.8363 108.507 97.91 107.445 96.9846C106.382 96.0593 105.371 95.5785 104.413 95.5423C103.454 95.5061 102.627 95.8876 101.931 96.6868Z" fill="white"/>
<path d="M111.049 81.1101C111.254 80.5699 111.577 80.1128 112.016 79.7388C112.466 79.369 112.97 79.1292 113.527 79.0194C114.091 78.9251 114.649 78.983 115.201 79.1931C115.718 79.3904 116.159 79.7063 116.521 80.1409C116.88 80.5868 117.112 81.0941 117.217 81.6627C117.319 82.2425 117.26 82.8194 117.041 83.3934C116.835 83.9336 116.51 84.3829 116.064 84.7414C115.625 85.1155 115.121 85.3552 114.552 85.4608C113.995 85.5706 113.435 85.5183 112.872 85.3039C112.332 85.0981 111.885 84.7666 111.531 84.3095C111.183 83.8679 110.965 83.3593 110.875 82.7837C110.781 82.2194 110.838 81.6615 111.049 81.1101Z" fill="white"/>
<path d="M112.77 62.3839C112.789 61.9629 112.918 61.6433 113.157 61.4251C113.396 61.207 113.726 61.1075 114.147 61.1267L124.235 61.5871C124.656 61.6063 124.975 61.7354 125.194 61.9745C125.412 62.2135 125.511 62.5435 125.492 62.9646L125.2 69.3528C125.16 70.243 124.779 70.6717 124.057 70.6387C123.323 70.6052 122.976 70.1434 123.017 69.2531L123.243 64.2905L120.266 64.1546L120.056 68.7563C120.015 69.6466 119.628 70.0749 118.894 70.0414C118.172 70.0085 117.832 69.5469 117.872 68.6566L118.082 64.055L114.888 63.9092L114.662 68.8718C114.621 69.762 114.234 70.1904 113.5 70.1569C112.778 70.124 112.438 69.6624 112.478 68.7721L112.77 62.3839Z" fill="white"/>
<path d="M124.77 54.1565C124.856 54.5444 124.796 54.8847 124.59 55.1774C124.398 55.4792 124.103 55.6746 123.703 55.7636L113.688 57.9939C113.3 58.0803 112.969 58.0367 112.696 57.863C112.423 57.6894 112.246 57.4204 112.165 57.056C112.086 56.7034 112.134 56.3905 112.307 56.1174C112.481 55.8443 112.762 55.6646 113.15 55.5782L119.374 54.1921L114.108 52.7367C113.766 52.6402 113.502 52.5077 113.317 52.3393C113.134 52.1826 113.012 51.9691 112.952 51.6987C112.894 51.4401 112.914 51.1952 113.01 50.964C113.107 50.7327 113.29 50.5008 113.559 50.2681L117.621 46.7355L111.485 48.102C111.109 48.1858 110.778 48.1421 110.493 47.9711C110.22 47.7975 110.043 47.5285 109.962 47.1641C109.883 46.8115 109.931 46.4986 110.105 46.2255C110.278 45.9524 110.559 45.7727 110.947 45.6863L120.962 43.456C121.362 43.367 121.711 43.4126 122.01 43.5927C122.324 43.782 122.524 44.0706 122.61 44.4585C122.736 45.0228 122.532 45.5186 121.998 45.9459L116.006 51.0371L123.588 53.0872C124.258 53.271 124.652 53.6275 124.77 54.1565Z" fill="white"/>
<path d="M103.831 34.8988C103.593 34.551 103.503 34.1964 103.562 33.8349C103.628 33.4833 103.834 33.1884 104.182 32.9503L111.724 27.7857L110.071 25.3712C109.567 24.6359 109.633 24.0505 110.269 23.615C110.895 23.1863 111.46 23.3396 111.963 24.0749L116.863 31.2292C117.366 31.9645 117.305 32.5465 116.679 32.9752C116.043 33.4106 115.473 33.2607 114.97 32.5254L113.316 30.1109L105.774 35.2754C105.427 35.5136 105.077 35.5998 104.725 35.534C104.374 35.4682 104.076 35.2565 103.831 34.8988Z" fill="white"/>
<path d="M96.6958 26.8081C95.7638 25.9714 95.1253 25.0421 94.7803 24.0203C94.4353 22.9984 94.4045 21.9511 94.6879 20.8784C94.9712 19.8057 95.5554 18.7764 96.4404 17.7907C97.3254 16.8049 98.2819 16.1181 99.31 15.7301C100.346 15.3332 101.391 15.2514 102.444 15.4846C103.497 15.7178 104.489 16.2528 105.421 17.0896C106.595 18.1435 107.318 19.3752 107.59 20.7848C107.628 21.013 107.625 21.205 107.583 21.3608C107.54 21.5166 107.446 21.6752 107.301 21.8365C107.092 22.0695 106.844 22.2108 106.557 22.2603C106.286 22.309 106.057 22.2489 105.869 22.0799C105.743 21.9673 105.643 21.8533 105.569 21.7379C105.512 21.6216 105.461 21.4708 105.417 21.2856C105.267 20.7308 105.085 20.2673 104.869 19.8952C104.66 19.5141 104.382 19.1667 104.032 18.8529C103.172 18.0805 102.281 17.7661 101.359 17.9095C100.454 18.0521 99.527 18.6521 98.5777 19.7095C96.6629 21.8423 96.5702 23.6851 98.2998 25.2378C98.6313 25.5355 98.9892 25.7678 99.3735 25.9348C99.7657 26.0927 100.264 26.2322 100.867 26.3532C101.074 26.3932 101.234 26.44 101.348 26.4936C101.47 26.5382 101.589 26.6128 101.705 26.7174C101.894 26.8864 101.974 27.1123 101.947 27.3952C101.936 27.6772 101.826 27.9347 101.617 28.1677C101.472 28.329 101.316 28.4397 101.149 28.4999C100.999 28.5591 100.817 28.5817 100.603 28.5677C99.172 28.4486 97.8697 27.8621 96.6958 26.8081Z" fill="white"/>
<path d="M91.9338 20.2229C91.9212 20.4598 91.8765 20.6533 91.7999 20.8035C91.6467 21.1039 91.392 21.2985 91.0358 21.3872C90.6959 21.4706 90.3703 21.433 90.0592 21.2743C89.8554 21.1704 89.6896 21.0182 89.5619 20.8179C89.4398 20.6069 89.3878 20.3641 89.4062 20.0896L89.5218 17.7557L84.0665 14.9733L82.2451 16.4372C82.0337 16.6132 81.8066 16.7138 81.5641 16.7387C81.3377 16.7585 81.1173 16.7136 80.9027 16.6042C80.5916 16.4455 80.3646 16.2013 80.2218 15.8716C80.0845 15.5312 80.0925 15.2108 80.2457 14.9104C80.3223 14.7602 80.4527 14.6105 80.6371 14.4611L89.6357 7.55288C89.885 7.35559 90.1605 7.25277 90.4622 7.24441C90.7694 7.22532 91.0571 7.28418 91.3253 7.42097C91.6042 7.56324 91.8261 7.76429 91.991 8.02414C92.1559 8.28398 92.2398 8.57011 92.2427 8.88252L91.9338 20.2229ZM85.8879 13.5094L89.6374 15.4218L89.9047 10.2857L85.8879 13.5094Z" fill="white"/>
<path d="M75.2139 14.8634C74.8039 14.7654 74.4995 14.5625 74.3007 14.255C74.1135 13.9502 74.069 13.5928 74.167 13.1829L76.2929 4.29286L73.4467 3.61224C72.5799 3.40497 72.2362 2.92652 72.4155 2.17691C72.5919 1.439 73.1135 1.17368 73.9803 1.38095L82.4135 3.39763C83.2802 3.6049 83.6254 4.07748 83.4489 4.81539C83.2696 5.565 82.7466 5.83618 81.8799 5.62891L79.0337 4.94828L76.9078 13.8383C76.8097 14.2482 76.6083 14.5468 76.3035 14.7339C75.9988 14.9211 75.6355 14.9642 75.2139 14.8634Z" fill="white"/>
<path d="M66.8144 0.652414C67.2118 0.651152 67.5314 0.78261 67.7731 1.04679C68.0268 1.29889 68.1543 1.62967 68.1556 2.03913L68.1878 12.1733C68.1891 12.5948 68.0637 12.9384 67.8117 13.2041C67.5716 13.4578 67.2529 13.5853 66.8555 13.5865C66.4219 13.5879 66.0722 13.4325 65.8062 13.1202L59.73 5.38978L59.7517 12.2001C59.753 12.6216 59.6337 12.9652 59.3936 13.2309C59.1656 13.4845 58.8529 13.612 58.4555 13.6132C58.0581 13.6145 57.7385 13.489 57.4969 13.2369C57.2552 12.9727 57.1337 12.6299 57.1323 12.2084L57.1001 2.07424C57.0988 1.66478 57.2182 1.33322 57.4583 1.07955C57.7103 0.813801 58.0351 0.680296 58.4325 0.679034C58.8781 0.677619 59.2218 0.833087 59.4637 1.14544L65.5397 8.82166L65.5182 2.04751C65.5169 1.63805 65.6362 1.30648 65.8763 1.05281C66.1163 0.787105 66.429 0.653638 66.8144 0.652414Z" fill="white"/>
<path d="M48.8139 15.7742C47.6015 16.1334 46.4697 16.1925 45.4185 15.9513C44.3754 15.6952 43.4728 15.1713 42.7107 14.3798C41.9452 13.5766 41.3742 12.54 40.9978 11.2699C40.6215 9.99973 40.5372 8.82516 40.745 7.74617C40.9494 6.65563 41.4208 5.7246 42.1594 4.95308C42.9095 4.17813 43.8907 3.61103 45.1031 3.25175C46.3155 2.89248 47.4415 2.83514 48.4812 3.07972C49.5324 3.32089 50.4408 3.84303 51.2063 4.64615C51.9684 5.43773 52.5377 6.46858 52.914 7.73872C53.2904 9.00886 53.3764 10.1892 53.172 11.2797C52.9642 12.3587 52.487 13.2915 51.7403 14.078C51.0018 14.8495 50.0263 15.4149 48.8139 15.7742ZM48.1929 13.6784C49.209 13.3773 49.8996 12.7833 50.2648 11.8963C50.6416 11.0059 50.6298 9.88522 50.2294 8.53426C49.8291 7.18329 49.2359 6.24117 48.4498 5.70791C47.6604 5.16309 46.7518 5.04295 45.7241 5.34748C44.6965 5.65201 44.0001 6.24776 43.6349 7.13474C43.2778 8.00675 43.2994 9.11823 43.6998 10.4692C44.1001 11.8202 44.695 12.7681 45.4845 13.3129C46.274 13.8577 47.1768 13.9795 48.1929 13.6784Z" fill="white"/>
<path d="M37.6273 20.5297C36.5652 21.1934 35.4954 21.5495 34.418 21.598C33.3406 21.6465 32.3257 21.386 31.3734 20.8166C30.4211 20.2473 29.5939 19.4009 28.8919 18.2775C28.1898 17.1541 27.7948 16.0447 27.7067 14.9494C27.6123 13.8439 27.823 12.8176 28.3387 11.8704C28.8545 10.9232 29.6435 10.1177 30.7056 9.45398C32.0434 8.61789 33.4272 8.26433 34.857 8.39332C35.0868 8.42014 35.2706 8.47568 35.4084 8.55993C35.5463 8.64419 35.6727 8.77824 35.7876 8.96206C35.9535 9.22759 36.0205 9.50525 35.9886 9.79503C35.9605 10.0682 35.8392 10.2718 35.6248 10.4058C35.4818 10.4952 35.3445 10.5597 35.2131 10.5992C35.0854 10.6222 34.9265 10.6292 34.7363 10.6203C34.1618 10.61 33.6659 10.6572 33.2484 10.7619C32.8246 10.8564 32.4135 11.028 32.0153 11.277C31.0348 11.8897 30.4859 12.6588 30.3684 13.5843C30.2548 14.4932 30.5745 15.5502 31.3276 16.7553C32.8466 19.1859 34.5917 19.7853 36.5627 18.5535C36.9406 18.3174 37.2629 18.0378 37.5297 17.7148C37.7902 17.3817 38.0621 16.9419 38.3455 16.3956C38.4412 16.2079 38.5306 16.0668 38.6136 15.9724C38.6902 15.8677 38.7949 15.7739 38.9276 15.6909C39.1421 15.5569 39.3815 15.5422 39.6457 15.6469C39.9138 15.735 40.1308 15.9118 40.2967 16.1773C40.4116 16.3612 40.4748 16.5418 40.4863 16.7192C40.5016 16.8801 40.4729 17.0614 40.4001 17.2631C39.8894 18.6047 38.9651 19.6936 37.6273 20.5297Z" fill="white"/>
</svg>
