<svg width="117" height="91" viewBox="0 0 117 91" fill="none" xmlns="http://www.w3.org/2000/svg">
<path d="M50.4375 12.6738H66.0625C66.9219 12.6738 67.625 11.9707 67.625 11.1113C67.625 10.252 66.9219 9.54883 66.0625 9.54883H63.6328C64.168 8.62598 64.5 7.56836 64.5 6.42383C64.5 2.97168 61.7021 0.173828 58.25 0.173828C54.7978 0.173828 52 2.97168 52 6.42383C52 7.56836 52.33 8.62598 52.8669 9.54883H50.4375C49.5781 9.54883 48.875 10.252 48.875 11.1113C48.875 11.9707 49.5781 12.6738 50.4375 12.6738ZM58.25 3.29883C59.9727 3.29883 61.375 4.70117 61.375 6.42383C61.375 8.14649 59.9727 9.54883 58.25 9.54883C56.5273 9.54883 55.125 8.14649 55.125 6.42383C55.125 4.70117 56.5312 3.29883 58.25 3.29883ZM70.75 6.42383C69.8863 6.42383 69.1875 7.12266 69.1875 7.98633C69.1875 8.85 69.8906 9.54883 70.75 9.54883C72.4727 9.54883 73.875 10.9492 73.875 12.6738V43.9238C73.875 45.6484 72.4727 47.0488 70.75 47.0488H45.75C44.0273 47.0488 42.625 45.6484 42.625 43.9238V12.6738C42.625 10.9492 44.0273 9.54883 45.75 9.54883C46.6137 9.54883 47.3125 8.85 47.3125 7.98633C47.3125 7.12266 46.6133 6.42383 45.75 6.42383C42.3027 6.42383 39.5 9.22852 39.5 12.6738V43.9238C39.5 47.3691 42.3027 50.1738 45.75 50.1738H70.75C74.1973 50.1738 77 47.3691 77 43.9238V12.6738C77 9.22852 74.1973 6.42383 70.75 6.42383Z" fill="#333333"/>
<path d="M20.0498 78.3018C18.5778 78.3018 17.4631 77.9178 16.7058 77.1498C15.9485 76.3818 15.5698 75.2512 15.5698 73.7578V67.4858C15.5698 67.2832 15.6285 67.1232 15.7458 67.0058C15.8631 66.8778 16.0231 66.8138 16.2258 66.8138C16.4178 66.8138 16.5725 66.8778 16.6898 67.0058C16.8071 67.1232 16.8658 67.2832 16.8658 67.4858V73.8698C16.8658 74.9685 17.1325 75.7952 17.6658 76.3498C18.2098 76.9045 19.0045 77.1818 20.0498 77.1818C21.0951 77.1818 21.8845 76.9045 22.4178 76.3498C22.9511 75.7952 23.2178 74.9685 23.2178 73.8698V67.4858C23.2178 67.2832 23.2765 67.1232 23.3938 67.0058C23.5218 66.8778 23.6818 66.8138 23.8738 66.8138C24.0765 66.8138 24.2365 66.8778 24.3538 67.0058C24.4711 67.1232 24.5298 67.2832 24.5298 67.4858V73.7578C24.5298 75.2405 24.1458 76.3712 23.3778 77.1498C22.6205 77.9178 21.5111 78.3018 20.0498 78.3018ZM29.6599 78.2858C29.1693 78.2858 28.6999 78.2272 28.2519 78.1098C27.8146 77.9925 27.4253 77.8272 27.0839 77.6138C26.8919 77.4858 26.7533 77.3685 26.6679 77.2618C26.5933 77.1445 26.5559 77.0058 26.5559 76.8458C26.5559 76.7072 26.5933 76.5952 26.6679 76.5098C26.7533 76.4138 26.8599 76.3658 26.9879 76.3658C27.1159 76.3658 27.3026 76.4458 27.5479 76.6058C27.8679 76.7978 28.1826 76.9525 28.4919 77.0698C28.8119 77.1765 29.2066 77.2298 29.6759 77.2298C30.2519 77.2298 30.6999 77.1285 31.0199 76.9258C31.3399 76.7232 31.4999 76.4298 31.4999 76.0458C31.4999 75.8112 31.4413 75.6245 31.3239 75.4858C31.2066 75.3365 31.0039 75.2085 30.7159 75.1018C30.4279 74.9845 30.0066 74.8672 29.4519 74.7498C28.5133 74.5472 27.8413 74.2752 27.4359 73.9338C27.0306 73.5925 26.8279 73.1285 26.8279 72.5418C26.8279 72.0832 26.9559 71.6778 27.2119 71.3258C27.4679 70.9738 27.8199 70.6965 28.2679 70.4938C28.7266 70.2912 29.2439 70.1898 29.8199 70.1898C30.2359 70.1898 30.6359 70.2485 31.0199 70.3658C31.4146 70.4725 31.7613 70.6272 32.0599 70.8298C32.4226 71.0858 32.6039 71.3525 32.6039 71.6298C32.6039 71.7685 32.5613 71.8858 32.4759 71.9818C32.3906 72.0778 32.2893 72.1258 32.1719 72.1258C32.0439 72.1258 31.8519 72.0352 31.5959 71.8538C31.2973 71.6618 31.0146 71.5125 30.7479 71.4058C30.4813 71.2992 30.1506 71.2458 29.7559 71.2458C29.2546 71.2458 28.8493 71.3578 28.5399 71.5818C28.2413 71.8058 28.0919 72.1045 28.0919 72.4778C28.0919 72.7125 28.1453 72.9045 28.2519 73.0538C28.3693 73.1925 28.5559 73.3205 28.8119 73.4378C29.0786 73.5445 29.4573 73.6512 29.9479 73.7578C30.6733 73.9178 31.2333 74.0938 31.6279 74.2858C32.0333 74.4778 32.3213 74.7125 32.4919 74.9898C32.6626 75.2672 32.7479 75.6192 32.7479 76.0458C32.7479 76.7178 32.4653 77.2618 31.8999 77.6778C31.3346 78.0832 30.5879 78.2858 29.6599 78.2858ZM40.7554 76.3658C40.8728 76.3658 40.9741 76.4138 41.0594 76.5098C41.1448 76.6058 41.1874 76.7285 41.1874 76.8778C41.1874 77.1445 41.0008 77.3898 40.6274 77.6138C40.2434 77.8378 39.8381 78.0085 39.4114 78.1258C38.9848 78.2325 38.5688 78.2858 38.1634 78.2858C36.9581 78.2858 36.0034 77.9285 35.2994 77.2138C34.6061 76.4992 34.2594 75.5125 34.2594 74.2538C34.2594 73.4538 34.4141 72.7498 34.7234 72.1418C35.0328 71.5232 35.4648 71.0432 36.0194 70.7018C36.5848 70.3605 37.2248 70.1898 37.9394 70.1898C38.9528 70.1898 39.7581 70.5205 40.3554 71.1818C40.9528 71.8432 41.2514 72.7392 41.2514 73.8698C41.2514 74.0832 41.2088 74.2378 41.1234 74.3338C41.0381 74.4298 40.8994 74.4778 40.7074 74.4778H35.5554C35.6514 76.3125 36.5208 77.2298 38.1634 77.2298C38.5794 77.2298 38.9368 77.1765 39.2354 77.0698C39.5341 76.9525 39.8541 76.7978 40.1954 76.6058C40.4728 76.4458 40.6594 76.3658 40.7554 76.3658ZM37.9554 71.1978C37.2728 71.1978 36.7234 71.4112 36.3074 71.8378C35.9021 72.2645 35.6621 72.8672 35.5874 73.6458H40.1154C40.0941 72.8565 39.8968 72.2538 39.5234 71.8378C39.1501 71.4112 38.6274 71.1978 37.9554 71.1978ZM47.0169 70.2218C47.4649 70.1898 47.6889 70.3712 47.6889 70.7658C47.6889 70.9365 47.6409 71.0752 47.5449 71.1818C47.4489 71.2778 47.2836 71.3365 47.0489 71.3578L46.5689 71.4058C45.8543 71.4698 45.3209 71.7258 44.9689 72.1738C44.6276 72.6112 44.4569 73.1285 44.4569 73.7258V77.6138C44.4569 77.8272 44.3983 77.9872 44.2809 78.0938C44.1636 78.2005 44.0089 78.2538 43.8169 78.2538C43.6249 78.2538 43.4649 78.2005 43.3369 78.0938C43.2196 77.9765 43.1609 77.8165 43.1609 77.6138V70.8618C43.1609 70.6592 43.2249 70.5045 43.3529 70.3978C43.4809 70.2805 43.6356 70.2218 43.8169 70.2218C43.9876 70.2218 44.1316 70.2805 44.2489 70.3978C44.3663 70.5045 44.4249 70.6538 44.4249 70.8458V71.7418C44.6489 71.2725 44.9636 70.9152 45.3689 70.6698C45.7849 70.4245 46.2596 70.2805 46.7929 70.2378L47.0169 70.2218ZM56.5106 78.2538C56.3079 78.2538 56.1426 78.1952 56.0146 78.0778C55.8972 77.9498 55.8386 77.7845 55.8386 77.5818V68.0138H52.3986C52.2066 68.0138 52.0572 67.9658 51.9506 67.8698C51.8439 67.7738 51.7906 67.6352 51.7906 67.4538C51.7906 67.2725 51.8439 67.1338 51.9506 67.0378C52.0572 66.9418 52.2066 66.8938 52.3986 66.8938H60.6066C60.7986 66.8938 60.9479 66.9418 61.0546 67.0378C61.1612 67.1338 61.2146 67.2725 61.2146 67.4538C61.2146 67.6352 61.1612 67.7738 61.0546 67.8698C60.9479 67.9658 60.7986 68.0138 60.6066 68.0138H57.1666V77.5818C57.1666 77.7845 57.1079 77.9498 56.9906 78.0778C56.8732 78.1952 56.7132 78.2538 56.5106 78.2538ZM67.3023 76.3658C67.4196 76.3658 67.521 76.4138 67.6063 76.5098C67.6916 76.6058 67.7343 76.7285 67.7343 76.8778C67.7343 77.1445 67.5476 77.3898 67.1743 77.6138C66.7903 77.8378 66.385 78.0085 65.9583 78.1258C65.5316 78.2325 65.1156 78.2858 64.7103 78.2858C63.505 78.2858 62.5503 77.9285 61.8463 77.2138C61.153 76.4992 60.8063 75.5125 60.8063 74.2538C60.8063 73.4538 60.961 72.7498 61.2703 72.1418C61.5796 71.5232 62.0116 71.0432 62.5663 70.7018C63.1316 70.3605 63.7716 70.1898 64.4863 70.1898C65.4996 70.1898 66.305 70.5205 66.9023 71.1818C67.4996 71.8432 67.7983 72.7392 67.7983 73.8698C67.7983 74.0832 67.7556 74.2378 67.6703 74.3338C67.585 74.4298 67.4463 74.4778 67.2543 74.4778H62.1023C62.1983 76.3125 63.0676 77.2298 64.7103 77.2298C65.1263 77.2298 65.4836 77.1765 65.7823 77.0698C66.081 76.9525 66.401 76.7978 66.7423 76.6058C67.0196 76.4458 67.2063 76.3658 67.3023 76.3658ZM64.5023 71.1978C63.8196 71.1978 63.2703 71.4112 62.8543 71.8378C62.449 72.2645 62.209 72.8672 62.1343 73.6458H66.6623C66.641 72.8565 66.4436 72.2538 66.0703 71.8378C65.697 71.4112 65.1743 71.1978 64.5023 71.1978ZM72.3318 78.2858C71.8411 78.2858 71.3718 78.2272 70.9238 78.1098C70.4865 77.9925 70.0971 77.8272 69.7558 77.6138C69.5638 77.4858 69.4251 77.3685 69.3398 77.2618C69.2651 77.1445 69.2278 77.0058 69.2278 76.8458C69.2278 76.7072 69.2651 76.5952 69.3398 76.5098C69.4251 76.4138 69.5318 76.3658 69.6598 76.3658C69.7878 76.3658 69.9745 76.4458 70.2198 76.6058C70.5398 76.7978 70.8545 76.9525 71.1638 77.0698C71.4838 77.1765 71.8785 77.2298 72.3478 77.2298C72.9238 77.2298 73.3718 77.1285 73.6918 76.9258C74.0118 76.7232 74.1718 76.4298 74.1718 76.0458C74.1718 75.8112 74.1131 75.6245 73.9958 75.4858C73.8785 75.3365 73.6758 75.2085 73.3878 75.1018C73.0998 74.9845 72.6785 74.8672 72.1238 74.7498C71.1851 74.5472 70.5131 74.2752 70.1078 73.9338C69.7025 73.5925 69.4998 73.1285 69.4998 72.5418C69.4998 72.0832 69.6278 71.6778 69.8838 71.3258C70.1398 70.9738 70.4918 70.6965 70.9398 70.4938C71.3985 70.2912 71.9158 70.1898 72.4918 70.1898C72.9078 70.1898 73.3078 70.2485 73.6918 70.3658C74.0865 70.4725 74.4331 70.6272 74.7318 70.8298C75.0945 71.0858 75.2758 71.3525 75.2758 71.6298C75.2758 71.7685 75.2331 71.8858 75.1478 71.9818C75.0625 72.0778 74.9611 72.1258 74.8438 72.1258C74.7158 72.1258 74.5238 72.0352 74.2678 71.8538C73.9691 71.6618 73.6865 71.5125 73.4198 71.4058C73.1531 71.2992 72.8225 71.2458 72.4278 71.2458C71.9265 71.2458 71.5211 71.3578 71.2118 71.5818C70.9131 71.8058 70.7638 72.1045 70.7638 72.4778C70.7638 72.7125 70.8171 72.9045 70.9238 73.0538C71.0411 73.1925 71.2278 73.3205 71.4838 73.4378C71.7505 73.5445 72.1291 73.6512 72.6198 73.7578C73.3451 73.9178 73.9051 74.0938 74.2998 74.2858C74.7051 74.4778 74.9931 74.7125 75.1638 74.9898C75.3345 75.2672 75.4198 75.6192 75.4198 76.0458C75.4198 76.7178 75.1371 77.2618 74.5718 77.6778C74.0065 78.0832 73.2598 78.2858 72.3318 78.2858ZM80.9172 77.2298C81.2905 77.2618 81.4772 77.4325 81.4772 77.7418C81.4772 77.9232 81.4079 78.0618 81.2692 78.1578C81.1412 78.2432 80.9439 78.2752 80.6772 78.2538L80.2452 78.2218C79.3919 78.1578 78.7625 77.9018 78.3572 77.4538C77.9519 77.0058 77.7492 76.3285 77.7492 75.4218V71.4058H76.6772C76.4959 71.4058 76.3519 71.3632 76.2452 71.2778C76.1492 71.1818 76.1012 71.0592 76.1012 70.9098C76.1012 70.7498 76.1492 70.6218 76.2452 70.5258C76.3519 70.4298 76.4959 70.3818 76.6772 70.3818H77.7492V68.5738C77.7492 68.3712 77.8079 68.2165 77.9252 68.1098C78.0425 67.9925 78.2025 67.9338 78.4052 67.9338C78.5972 67.9338 78.7519 67.9925 78.8692 68.1098C78.9865 68.2165 79.0452 68.3712 79.0452 68.5738V70.3818H80.8212C80.9919 70.3818 81.1252 70.4298 81.2212 70.5258C81.3279 70.6218 81.3812 70.7498 81.3812 70.9098C81.3812 71.0592 81.3279 71.1818 81.2212 71.2778C81.1252 71.3632 80.9919 71.4058 80.8212 71.4058H79.0452V75.4858C79.0452 76.0725 79.1625 76.4992 79.3972 76.7658C79.6425 77.0218 80.0052 77.1658 80.4852 77.1978L80.9172 77.2298ZM83.4107 78.2538C83.2187 78.2538 83.0587 78.2005 82.9307 78.0938C82.8134 77.9765 82.7547 77.8165 82.7547 77.6138V70.8618C82.7547 70.6592 82.8134 70.5045 82.9307 70.3978C83.0587 70.2805 83.2187 70.2218 83.4107 70.2218C83.6027 70.2218 83.7574 70.2805 83.8747 70.3978C83.992 70.5045 84.0507 70.6592 84.0507 70.8618V77.6138C84.0507 77.8272 83.992 77.9872 83.8747 78.0938C83.7574 78.2005 83.6027 78.2538 83.4107 78.2538ZM83.4107 68.5418C83.1547 68.5418 82.9467 68.4672 82.7867 68.3178C82.6267 68.1685 82.5467 67.9712 82.5467 67.7258C82.5467 67.4912 82.6267 67.2992 82.7867 67.1498C82.9467 67.0005 83.1547 66.9258 83.4107 66.9258C83.6667 66.9258 83.8747 67.0005 84.0347 67.1498C84.1947 67.2992 84.2747 67.4912 84.2747 67.7258C84.2747 67.9712 84.1947 68.1685 84.0347 68.3178C83.8747 68.4672 83.6667 68.5418 83.4107 68.5418ZM90.3934 70.1898C92.2601 70.1898 93.1934 71.2192 93.1934 73.2778V77.6138C93.1934 77.8165 93.1348 77.9765 93.0174 78.0938C92.9108 78.2005 92.7561 78.2538 92.5534 78.2538C92.3508 78.2538 92.1908 78.2005 92.0734 78.0938C91.9561 77.9765 91.8974 77.8165 91.8974 77.6138V73.3578C91.8974 72.6325 91.7534 72.1045 91.4654 71.7738C91.1881 71.4432 90.7401 71.2778 90.1214 71.2778C89.4068 71.2778 88.8361 71.4965 88.4094 71.9338C87.9828 72.3712 87.7694 72.9632 87.7694 73.7098V77.6138C87.7694 77.8165 87.7108 77.9765 87.5934 78.0938C87.4868 78.2005 87.3321 78.2538 87.1294 78.2538C86.9268 78.2538 86.7668 78.2005 86.6494 78.0938C86.5321 77.9765 86.4734 77.8165 86.4734 77.6138V70.8618C86.4734 70.6698 86.5321 70.5152 86.6494 70.3978C86.7668 70.2805 86.9268 70.2218 87.1294 70.2218C87.3214 70.2218 87.4708 70.2805 87.5774 70.3978C87.6948 70.5152 87.7534 70.6645 87.7534 70.8458V71.6618C88.0094 71.1818 88.3668 70.8192 88.8254 70.5738C89.2841 70.3178 89.8068 70.1898 90.3934 70.1898ZM101.887 70.2218C102.09 70.2218 102.25 70.2805 102.367 70.3978C102.485 70.5152 102.543 70.6698 102.543 70.8618V77.6458C102.543 78.8085 102.245 79.6832 101.647 80.2698C101.05 80.8672 100.165 81.1658 98.9912 81.1658C97.8499 81.1658 96.9005 80.9418 96.1432 80.4938C95.7592 80.2805 95.5672 80.0352 95.5672 79.7578C95.5672 79.6085 95.6045 79.4858 95.6792 79.3898C95.7645 79.2938 95.8712 79.2458 95.9992 79.2458C96.1059 79.2458 96.2979 79.3205 96.5752 79.4698C96.9485 79.6618 97.3165 79.8165 97.6792 79.9338C98.0419 80.0512 98.4739 80.1098 98.9752 80.1098C99.7325 80.1098 100.303 79.9072 100.687 79.5018C101.071 79.1072 101.263 78.5258 101.263 77.7578V76.3818C101.039 76.8832 100.693 77.2672 100.223 77.5338C99.7645 77.8005 99.2205 77.9338 98.5912 77.9338C97.9085 77.9338 97.3005 77.7738 96.7672 77.4538C96.2445 77.1338 95.8339 76.6805 95.5352 76.0938C95.2472 75.5072 95.1032 74.8298 95.1032 74.0618C95.1032 73.2938 95.2472 72.6165 95.5352 72.0298C95.8339 71.4432 96.2445 70.9898 96.7672 70.6698C97.3005 70.3498 97.9085 70.1898 98.5912 70.1898C99.2099 70.1898 99.7485 70.3232 100.207 70.5898C100.666 70.8565 101.013 71.2352 101.247 71.7258V70.8618C101.247 70.6698 101.301 70.5152 101.407 70.3978C101.525 70.2805 101.685 70.2218 101.887 70.2218ZM98.8472 76.8618C99.5939 76.8618 100.181 76.6165 100.607 76.1258C101.034 75.6245 101.247 74.9365 101.247 74.0618C101.247 73.1978 101.034 72.5205 100.607 72.0298C100.191 71.5285 99.6045 71.2778 98.8472 71.2778C98.0899 71.2778 97.4925 71.5285 97.0552 72.0298C96.6285 72.5205 96.4152 73.1978 96.4152 74.0618C96.4152 74.9365 96.6285 75.6245 97.0552 76.1258C97.4925 76.6165 98.0899 76.8618 98.8472 76.8618Z" fill="#333333"/>
</svg>
