<svg width="117" height="91" viewBox="0 0 117 91" fill="none" xmlns="http://www.w3.org/2000/svg">
<path d="M33.5 2.29883C36.4121 2.29883 38.8613 4.29101 39.4668 6.98633H58.6953C59.3887 4.29101 61.8398 2.29883 64.75 2.29883C68.1973 2.29883 71 5.09668 71 8.54883C71 11.4609 69.0078 13.9102 66.3125 14.5156V24.3691C69.0078 25.0625 71 27.5137 71 30.4238C71 33.8711 68.1973 36.6738 64.75 36.6738C61.8398 36.6738 59.3887 34.6816 58.6953 31.9863H39.4668C38.8613 34.6816 36.4121 36.6738 33.5 36.6738C30.0479 36.6738 27.25 33.8711 27.25 30.4238C27.25 27.5137 29.2422 25.0625 31.9375 24.3691V14.5156C29.2422 13.9102 27.25 11.4609 27.25 8.54883C27.25 5.09668 30.0479 2.29883 33.5 2.29883ZM58.6953 10.1113H39.4668C38.9883 12.3086 37.2598 14.0371 35.0625 14.5156V24.3691C37.2598 24.9355 38.9883 26.6641 39.4668 28.8613H58.6953C59.2617 26.6641 60.9902 24.9355 63.1875 24.3691V14.5156C60.9902 14.0371 59.2617 12.3086 58.6953 10.1113ZM67.875 30.4238C67.875 28.6953 66.4785 27.2988 64.75 27.2988C63.0215 27.2988 61.625 28.6953 61.625 30.4238C61.625 32.1523 63.0215 33.5488 64.75 33.5488C66.4785 33.5488 67.875 32.1523 67.875 30.4238ZM30.375 30.4238C30.375 32.1523 31.7744 33.5488 33.5 33.5488C35.2256 33.5488 36.625 32.1523 36.625 30.4238C36.625 28.6953 35.2256 27.2988 33.5 27.2988C31.7744 27.2988 30.375 28.6953 30.375 30.4238ZM67.875 8.54883C67.875 6.82324 66.4785 5.42383 64.75 5.42383C63.0215 5.42383 61.625 6.82324 61.625 8.54883C61.625 10.2744 63.0215 11.6738 64.75 11.6738C66.4785 11.6738 67.875 10.2744 67.875 8.54883ZM30.375 8.54883C30.375 10.2744 31.7744 11.6738 33.5 11.6738C35.2256 11.6738 36.625 10.2744 36.625 8.54883C36.625 6.82324 35.2256 5.42383 33.5 5.42383C31.7744 5.42383 30.375 6.82324 30.375 8.54883ZM77.4453 22.6113C78.1387 19.916 80.5898 17.9238 83.5 17.9238C86.9473 17.9238 89.75 20.7266 89.75 24.1738C89.75 27.084 87.7578 29.5352 85.0625 30.1406V39.9941C87.7578 40.6875 89.75 43.1387 89.75 46.0488C89.75 49.4961 86.9473 52.2988 83.5 52.2988C80.5898 52.2988 78.1387 50.3066 77.4453 47.6113H58.2168C57.6113 50.3066 55.1602 52.2988 52.25 52.2988C48.8027 52.2988 46 49.4961 46 46.0488C46 43.1387 47.9922 40.6875 50.6875 39.9941V36.6738C50.6875 35.8145 51.3906 35.1113 52.25 35.1113C53.1094 35.1113 53.8125 35.8145 53.8125 36.6738V39.9941C56.0098 40.5605 57.7383 42.2891 58.2168 44.4863H77.4453C78.0117 42.2891 79.7402 40.5605 81.9375 39.9941V30.1406C79.7402 29.6621 78.0117 27.9336 77.4453 25.7363H74.125C73.2656 25.7363 72.5625 25.0332 72.5625 24.1738C72.5625 23.3145 73.2656 22.6113 74.125 22.6113H77.4453ZM80.375 24.1738C80.375 25.9023 81.7715 27.2988 83.5 27.2988C85.2285 27.2988 86.625 25.9023 86.625 24.1738C86.625 22.4453 85.2285 21.0488 83.5 21.0488C81.7715 21.0488 80.375 22.4453 80.375 24.1738ZM83.5 42.9238C81.7715 42.9238 80.375 44.3203 80.375 46.0488C80.375 47.7773 81.7715 49.1738 83.5 49.1738C85.2285 49.1738 86.625 47.7773 86.625 46.0488C86.625 44.3203 85.2285 42.9238 83.5 42.9238ZM49.125 46.0488C49.125 47.7773 50.5215 49.1738 52.25 49.1738C53.9785 49.1738 55.375 47.7773 55.375 46.0488C55.375 44.3203 53.9785 42.9238 52.25 42.9238C50.5215 42.9238 49.125 44.3203 49.125 46.0488Z" fill="#333333"/>
<path d="M7.44681 78.1738C7.24415 78.1738 7.07881 78.1152 6.95081 77.9978C6.83348 77.8805 6.77481 77.7258 6.77481 77.5338V67.5338C6.77481 67.3418 6.83348 67.1872 6.95081 67.0698C7.07881 66.9525 7.24415 66.8938 7.44681 66.8938H10.5668C12.3695 66.8938 13.7615 67.3845 14.7428 68.3658C15.7348 69.3365 16.2308 70.7232 16.2308 72.5258C16.2308 74.3285 15.7348 75.7205 14.7428 76.7018C13.7508 77.6832 12.3588 78.1738 10.5668 78.1738H7.44681ZM10.4868 77.0538C13.4095 77.0538 14.8708 75.5445 14.8708 72.5258C14.8708 69.5178 13.4095 68.0138 10.4868 68.0138H8.08681V77.0538H10.4868ZM24.4429 76.3658C24.5603 76.3658 24.6616 76.4138 24.7469 76.5098C24.8323 76.6058 24.8749 76.7285 24.8749 76.8778C24.8749 77.1445 24.6883 77.3898 24.3149 77.6138C23.9309 77.8378 23.5256 78.0085 23.0989 78.1258C22.6723 78.2325 22.2563 78.2858 21.8509 78.2858C20.6456 78.2858 19.6909 77.9285 18.9869 77.2138C18.2936 76.4992 17.9469 75.5125 17.9469 74.2538C17.9469 73.4538 18.1016 72.7498 18.4109 72.1418C18.7203 71.5232 19.1523 71.0432 19.7069 70.7018C20.2723 70.3605 20.9123 70.1898 21.6269 70.1898C22.6403 70.1898 23.4456 70.5205 24.0429 71.1818C24.6403 71.8432 24.9389 72.7392 24.9389 73.8698C24.9389 74.0832 24.8963 74.2378 24.8109 74.3338C24.7256 74.4298 24.5869 74.4778 24.3949 74.4778H19.2429C19.3389 76.3125 20.2083 77.2298 21.8509 77.2298C22.2669 77.2298 22.6243 77.1765 22.9229 77.0698C23.2216 76.9525 23.5416 76.7978 23.8829 76.6058C24.1603 76.4458 24.3469 76.3658 24.4429 76.3658ZM21.6429 71.1978C20.9603 71.1978 20.4109 71.4112 19.9949 71.8378C19.5896 72.2645 19.3496 72.8672 19.2749 73.6458H23.8029C23.7816 72.8565 23.5843 72.2538 23.2109 71.8378C22.8376 71.4112 22.3149 71.1978 21.6429 71.1978ZM29.4724 78.2858C28.9818 78.2858 28.5124 78.2272 28.0644 78.1098C27.6271 77.9925 27.2378 77.8272 26.8964 77.6138C26.7044 77.4858 26.5658 77.3685 26.4804 77.2618C26.4058 77.1445 26.3684 77.0058 26.3684 76.8458C26.3684 76.7072 26.4058 76.5952 26.4804 76.5098C26.5658 76.4138 26.6724 76.3658 26.8004 76.3658C26.9284 76.3658 27.1151 76.4458 27.3604 76.6058C27.6804 76.7978 27.9951 76.9525 28.3044 77.0698C28.6244 77.1765 29.0191 77.2298 29.4884 77.2298C30.0644 77.2298 30.5124 77.1285 30.8324 76.9258C31.1524 76.7232 31.3124 76.4298 31.3124 76.0458C31.3124 75.8112 31.2538 75.6245 31.1364 75.4858C31.0191 75.3365 30.8164 75.2085 30.5284 75.1018C30.2404 74.9845 29.8191 74.8672 29.2644 74.7498C28.3258 74.5472 27.6538 74.2752 27.2484 73.9338C26.8431 73.5925 26.6404 73.1285 26.6404 72.5418C26.6404 72.0832 26.7684 71.6778 27.0244 71.3258C27.2804 70.9738 27.6324 70.6965 28.0804 70.4938C28.5391 70.2912 29.0564 70.1898 29.6324 70.1898C30.0484 70.1898 30.4484 70.2485 30.8324 70.3658C31.2271 70.4725 31.5738 70.6272 31.8724 70.8298C32.2351 71.0858 32.4164 71.3525 32.4164 71.6298C32.4164 71.7685 32.3738 71.8858 32.2884 71.9818C32.2031 72.0778 32.1018 72.1258 31.9844 72.1258C31.8564 72.1258 31.6644 72.0352 31.4084 71.8538C31.1098 71.6618 30.8271 71.5125 30.5604 71.4058C30.2938 71.2992 29.9631 71.2458 29.5684 71.2458C29.0671 71.2458 28.6618 71.3578 28.3524 71.5818C28.0538 71.8058 27.9044 72.1045 27.9044 72.4778C27.9044 72.7125 27.9578 72.9045 28.0644 73.0538C28.1818 73.1925 28.3684 73.3205 28.6244 73.4378C28.8911 73.5445 29.2698 73.6512 29.7604 73.7578C30.4858 73.9178 31.0458 74.0938 31.4404 74.2858C31.8458 74.4778 32.1338 74.7125 32.3044 74.9898C32.4751 75.2672 32.5604 75.6192 32.5604 76.0458C32.5604 76.7178 32.2778 77.2618 31.7124 77.6778C31.1471 78.0832 30.4004 78.2858 29.4724 78.2858ZM35.1919 78.2538C34.9999 78.2538 34.8399 78.2005 34.7119 78.0938C34.5946 77.9765 34.5359 77.8165 34.5359 77.6138V70.8618C34.5359 70.6592 34.5946 70.5045 34.7119 70.3978C34.8399 70.2805 34.9999 70.2218 35.1919 70.2218C35.3839 70.2218 35.5386 70.2805 35.6559 70.3978C35.7733 70.5045 35.8319 70.6592 35.8319 70.8618V77.6138C35.8319 77.8272 35.7733 77.9872 35.6559 78.0938C35.5386 78.2005 35.3839 78.2538 35.1919 78.2538ZM35.1919 68.5418C34.9359 68.5418 34.7279 68.4672 34.5679 68.3178C34.4079 68.1685 34.3279 67.9712 34.3279 67.7258C34.3279 67.4912 34.4079 67.2992 34.5679 67.1498C34.7279 67.0005 34.9359 66.9258 35.1919 66.9258C35.4479 66.9258 35.6559 67.0005 35.8159 67.1498C35.9759 67.2992 36.0559 67.4912 36.0559 67.7258C36.0559 67.9712 35.9759 68.1685 35.8159 68.3178C35.6559 68.4672 35.4479 68.5418 35.1919 68.5418ZM44.5747 70.2218C44.7774 70.2218 44.9374 70.2805 45.0547 70.3978C45.172 70.5152 45.2307 70.6698 45.2307 70.8618V77.6458C45.2307 78.8085 44.932 79.6832 44.3347 80.2698C43.7374 80.8672 42.852 81.1658 41.6787 81.1658C40.5374 81.1658 39.588 80.9418 38.8307 80.4938C38.4467 80.2805 38.2547 80.0352 38.2547 79.7578C38.2547 79.6085 38.292 79.4858 38.3667 79.3898C38.452 79.2938 38.5587 79.2458 38.6867 79.2458C38.7934 79.2458 38.9854 79.3205 39.2627 79.4698C39.636 79.6618 40.004 79.8165 40.3667 79.9338C40.7294 80.0512 41.1614 80.1098 41.6627 80.1098C42.42 80.1098 42.9907 79.9072 43.3747 79.5018C43.7587 79.1072 43.9507 78.5258 43.9507 77.7578V76.3818C43.7267 76.8832 43.38 77.2672 42.9107 77.5338C42.452 77.8005 41.908 77.9338 41.2787 77.9338C40.596 77.9338 39.988 77.7738 39.4547 77.4538C38.932 77.1338 38.5214 76.6805 38.2227 76.0938C37.9347 75.5072 37.7907 74.8298 37.7907 74.0618C37.7907 73.2938 37.9347 72.6165 38.2227 72.0298C38.5214 71.4432 38.932 70.9898 39.4547 70.6698C39.988 70.3498 40.596 70.1898 41.2787 70.1898C41.8974 70.1898 42.436 70.3232 42.8947 70.5898C43.3534 70.8565 43.7 71.2352 43.9347 71.7258V70.8618C43.9347 70.6698 43.988 70.5152 44.0947 70.3978C44.212 70.2805 44.372 70.2218 44.5747 70.2218ZM41.5347 76.8618C42.2814 76.8618 42.868 76.6165 43.2947 76.1258C43.7214 75.6245 43.9347 74.9365 43.9347 74.0618C43.9347 73.1978 43.7214 72.5205 43.2947 72.0298C42.8787 71.5285 42.292 71.2778 41.5347 71.2778C40.7774 71.2778 40.18 71.5285 39.7427 72.0298C39.316 72.5205 39.1027 73.1978 39.1027 74.0618C39.1027 74.9365 39.316 75.6245 39.7427 76.1258C40.18 76.6165 40.7774 76.8618 41.5347 76.8618ZM51.5497 70.1898C53.4164 70.1898 54.3497 71.2192 54.3497 73.2778V77.6138C54.3497 77.8165 54.291 77.9765 54.1737 78.0938C54.067 78.2005 53.9124 78.2538 53.7097 78.2538C53.507 78.2538 53.347 78.2005 53.2297 78.0938C53.1124 77.9765 53.0537 77.8165 53.0537 77.6138V73.3578C53.0537 72.6325 52.9097 72.1045 52.6217 71.7738C52.3444 71.4432 51.8964 71.2778 51.2777 71.2778C50.563 71.2778 49.9924 71.4965 49.5657 71.9338C49.139 72.3712 48.9257 72.9632 48.9257 73.7098V77.6138C48.9257 77.8165 48.867 77.9765 48.7497 78.0938C48.643 78.2005 48.4884 78.2538 48.2857 78.2538C48.083 78.2538 47.923 78.2005 47.8057 78.0938C47.6884 77.9765 47.6297 77.8165 47.6297 77.6138V70.8618C47.6297 70.6698 47.6884 70.5152 47.8057 70.3978C47.923 70.2805 48.083 70.2218 48.2857 70.2218C48.4777 70.2218 48.627 70.2805 48.7337 70.3978C48.851 70.5152 48.9097 70.6645 48.9097 70.8458V71.6618C49.1657 71.1818 49.523 70.8192 49.9817 70.5738C50.4404 70.3178 50.963 70.1898 51.5497 70.1898ZM64.6404 78.3018C63.8404 78.3018 63.0724 78.1845 62.3364 77.9498C61.6111 77.7045 61.0298 77.3792 60.5924 76.9738C60.4324 76.8245 60.3524 76.6378 60.3524 76.4138C60.3524 76.2645 60.3951 76.1365 60.4804 76.0298C60.5658 75.9125 60.6671 75.8538 60.7844 75.8538C60.9231 75.8538 61.0724 75.9125 61.2324 76.0298C62.2244 76.7978 63.3551 77.1818 64.6244 77.1818C65.5418 77.1818 66.2458 77.0058 66.7364 76.6538C67.2271 76.3018 67.4724 75.8005 67.4724 75.1498C67.4724 74.7765 67.3551 74.4778 67.1204 74.2538C66.8858 74.0192 66.5764 73.8325 66.1924 73.6938C65.8084 73.5552 65.2911 73.4112 64.6404 73.2618C63.7658 73.0592 63.0458 72.8458 62.4804 72.6218C61.9258 72.3978 61.4724 72.0778 61.1204 71.6618C60.7791 71.2458 60.6084 70.7018 60.6084 70.0298C60.6084 69.3898 60.7791 68.8245 61.1204 68.3338C61.4724 67.8325 61.9578 67.4485 62.5764 67.1818C63.2058 66.9045 63.9204 66.7658 64.7204 66.7658C65.4671 66.7658 66.1604 66.8832 66.8004 67.1178C67.4511 67.3418 67.9951 67.6672 68.4324 68.0938C68.6031 68.2645 68.6884 68.4512 68.6884 68.6538C68.6884 68.8032 68.6458 68.9365 68.5604 69.0538C68.4751 69.1605 68.3738 69.2138 68.2564 69.2138C68.1391 69.2138 67.9844 69.1552 67.7924 69.0378C67.2698 68.6112 66.7844 68.3125 66.3364 68.1418C65.8884 67.9712 65.3498 67.8858 64.7204 67.8858C63.8351 67.8858 63.1471 68.0725 62.6564 68.4458C62.1658 68.8085 61.9204 69.3205 61.9204 69.9818C61.9204 70.5472 62.1338 70.9738 62.5604 71.2618C62.9978 71.5392 63.6644 71.7845 64.5604 71.9978C65.5311 72.2325 66.2938 72.4512 66.8484 72.6538C67.4031 72.8458 67.8618 73.1392 68.2244 73.5338C68.5978 73.9285 68.7844 74.4565 68.7844 75.1178C68.7844 75.7472 68.6084 76.3018 68.2564 76.7818C67.9151 77.2618 67.4298 77.6352 66.8004 77.9018C66.1711 78.1685 65.4511 78.3018 64.6404 78.3018ZM76.2457 70.6218C76.363 70.3658 76.5497 70.2378 76.8057 70.2378C76.9657 70.2378 77.1097 70.2912 77.2377 70.3978C77.3657 70.5045 77.4297 70.6378 77.4297 70.7978C77.4297 70.8938 77.4084 70.9792 77.3657 71.0538L72.8697 80.7498C72.8164 80.8672 72.7364 80.9578 72.6297 81.0218C72.5337 81.0858 72.4324 81.1178 72.3257 81.1178C72.1657 81.1178 72.0217 81.0645 71.8937 80.9578C71.7764 80.8618 71.7177 80.7338 71.7177 80.5738C71.7177 80.4885 71.739 80.4032 71.7817 80.3178L72.9017 77.9018L69.7337 71.0538C69.691 70.9792 69.6697 70.8992 69.6697 70.8138C69.6697 70.6538 69.739 70.5152 69.8777 70.3978C70.027 70.2805 70.187 70.2218 70.3577 70.2218C70.4644 70.2218 70.5657 70.2538 70.6617 70.3178C70.7684 70.3818 70.8484 70.4725 70.9017 70.5898L73.5737 76.5898L76.2457 70.6218ZM81.3318 78.2858C80.8411 78.2858 80.3718 78.2272 79.9238 78.1098C79.4865 77.9925 79.0971 77.8272 78.7558 77.6138C78.5638 77.4858 78.4251 77.3685 78.3398 77.2618C78.2651 77.1445 78.2278 77.0058 78.2278 76.8458C78.2278 76.7072 78.2651 76.5952 78.3398 76.5098C78.4251 76.4138 78.5318 76.3658 78.6598 76.3658C78.7878 76.3658 78.9745 76.4458 79.2198 76.6058C79.5398 76.7978 79.8545 76.9525 80.1638 77.0698C80.4838 77.1765 80.8785 77.2298 81.3478 77.2298C81.9238 77.2298 82.3718 77.1285 82.6918 76.9258C83.0118 76.7232 83.1718 76.4298 83.1718 76.0458C83.1718 75.8112 83.1131 75.6245 82.9958 75.4858C82.8785 75.3365 82.6758 75.2085 82.3878 75.1018C82.0998 74.9845 81.6785 74.8672 81.1238 74.7498C80.1851 74.5472 79.5131 74.2752 79.1078 73.9338C78.7025 73.5925 78.4998 73.1285 78.4998 72.5418C78.4998 72.0832 78.6278 71.6778 78.8838 71.3258C79.1398 70.9738 79.4918 70.6965 79.9398 70.4938C80.3985 70.2912 80.9158 70.1898 81.4918 70.1898C81.9078 70.1898 82.3078 70.2485 82.6918 70.3658C83.0865 70.4725 83.4331 70.6272 83.7318 70.8298C84.0945 71.0858 84.2758 71.3525 84.2758 71.6298C84.2758 71.7685 84.2331 71.8858 84.1478 71.9818C84.0625 72.0778 83.9611 72.1258 83.8438 72.1258C83.7158 72.1258 83.5238 72.0352 83.2678 71.8538C82.9691 71.6618 82.6865 71.5125 82.4198 71.4058C82.1531 71.2992 81.8225 71.2458 81.4278 71.2458C80.9265 71.2458 80.5211 71.3578 80.2118 71.5818C79.9131 71.8058 79.7638 72.1045 79.7638 72.4778C79.7638 72.7125 79.8171 72.9045 79.9238 73.0538C80.0411 73.1925 80.2278 73.3205 80.4838 73.4378C80.7505 73.5445 81.1291 73.6512 81.6198 73.7578C82.3451 73.9178 82.9051 74.0938 83.2998 74.2858C83.7051 74.4778 83.9931 74.7125 84.1638 74.9898C84.3345 75.2672 84.4198 75.6192 84.4198 76.0458C84.4198 76.7178 84.1371 77.2618 83.5718 77.6778C83.0065 78.0832 82.2598 78.2858 81.3318 78.2858ZM89.9172 77.2298C90.2905 77.2618 90.4772 77.4325 90.4772 77.7418C90.4772 77.9232 90.4079 78.0618 90.2692 78.1578C90.1412 78.2432 89.9439 78.2752 89.6772 78.2538L89.2452 78.2218C88.3919 78.1578 87.7625 77.9018 87.3572 77.4538C86.9519 77.0058 86.7492 76.3285 86.7492 75.4218V71.4058H85.6772C85.4959 71.4058 85.3519 71.3632 85.2452 71.2778C85.1492 71.1818 85.1012 71.0592 85.1012 70.9098C85.1012 70.7498 85.1492 70.6218 85.2452 70.5258C85.3519 70.4298 85.4959 70.3818 85.6772 70.3818H86.7492V68.5738C86.7492 68.3712 86.8079 68.2165 86.9252 68.1098C87.0425 67.9925 87.2025 67.9338 87.4052 67.9338C87.5972 67.9338 87.7519 67.9925 87.8692 68.1098C87.9865 68.2165 88.0452 68.3712 88.0452 68.5738V70.3818H89.8212C89.9919 70.3818 90.1252 70.4298 90.2212 70.5258C90.3279 70.6218 90.3812 70.7498 90.3812 70.9098C90.3812 71.0592 90.3279 71.1818 90.2212 71.2778C90.1252 71.3632 89.9919 71.4058 89.8212 71.4058H88.0452V75.4858C88.0452 76.0725 88.1625 76.4992 88.3972 76.7658C88.6425 77.0218 89.0052 77.1658 89.4852 77.1978L89.9172 77.2298ZM97.7867 76.3658C97.904 76.3658 98.0054 76.4138 98.0907 76.5098C98.176 76.6058 98.2187 76.7285 98.2187 76.8778C98.2187 77.1445 98.032 77.3898 97.6587 77.6138C97.2747 77.8378 96.8694 78.0085 96.4427 78.1258C96.016 78.2325 95.6 78.2858 95.1947 78.2858C93.9894 78.2858 93.0347 77.9285 92.3307 77.2138C91.6374 76.4992 91.2907 75.5125 91.2907 74.2538C91.2907 73.4538 91.4454 72.7498 91.7547 72.1418C92.064 71.5232 92.496 71.0432 93.0507 70.7018C93.616 70.3605 94.256 70.1898 94.9707 70.1898C95.984 70.1898 96.7894 70.5205 97.3867 71.1818C97.984 71.8432 98.2827 72.7392 98.2827 73.8698C98.2827 74.0832 98.24 74.2378 98.1547 74.3338C98.0694 74.4298 97.9307 74.4778 97.7387 74.4778H92.5867C92.6827 76.3125 93.552 77.2298 95.1947 77.2298C95.6107 77.2298 95.968 77.1765 96.2667 77.0698C96.5654 76.9525 96.8854 76.7978 97.2267 76.6058C97.504 76.4458 97.6907 76.3658 97.7867 76.3658ZM94.9867 71.1978C94.304 71.1978 93.7547 71.4112 93.3387 71.8378C92.9334 72.2645 92.6934 72.8672 92.6187 73.6458H97.1467C97.1254 72.8565 96.928 72.2538 96.5547 71.8378C96.1814 71.4112 95.6587 71.1978 94.9867 71.1978ZM108.864 70.1898C110.592 70.1898 111.456 71.2192 111.456 73.2778V77.6138C111.456 77.8165 111.398 77.9765 111.28 78.0938C111.163 78.2005 111.008 78.2538 110.816 78.2538C110.624 78.2538 110.464 78.2005 110.336 78.0938C110.219 77.9765 110.16 77.8165 110.16 77.6138V73.3098C110.16 72.5952 110.032 72.0778 109.776 71.7578C109.52 71.4378 109.12 71.2778 108.576 71.2778C107.926 71.2778 107.414 71.4965 107.04 71.9338C106.667 72.3712 106.48 72.9632 106.48 73.7098V77.6138C106.48 77.8165 106.416 77.9765 106.288 78.0938C106.171 78.2005 106.016 78.2538 105.824 78.2538C105.632 78.2538 105.478 78.2005 105.36 78.0938C105.243 77.9765 105.184 77.8165 105.184 77.6138V73.3098C105.184 72.5952 105.056 72.0778 104.8 71.7578C104.544 71.4378 104.139 71.2778 103.584 71.2778C102.944 71.2778 102.432 71.4965 102.048 71.9338C101.675 72.3712 101.488 72.9632 101.488 73.7098V77.6138C101.488 77.8165 101.43 77.9765 101.312 78.0938C101.195 78.2005 101.04 78.2538 100.848 78.2538C100.656 78.2538 100.496 78.2005 100.368 78.0938C100.251 77.9765 100.192 77.8165 100.192 77.6138V70.8618C100.192 70.6698 100.251 70.5152 100.368 70.3978C100.496 70.2805 100.656 70.2218 100.848 70.2218C101.03 70.2218 101.179 70.2805 101.296 70.3978C101.414 70.5045 101.472 70.6538 101.472 70.8458V71.6138C101.707 71.1552 102.032 70.8032 102.448 70.5578C102.864 70.3125 103.344 70.1898 103.888 70.1898C105.104 70.1898 105.899 70.7018 106.272 71.7258C106.496 71.2565 106.838 70.8832 107.296 70.6058C107.755 70.3285 108.278 70.1898 108.864 70.1898Z" fill="#333333"/>
</svg>
