<svg width="374" height="366" viewBox="0 0 374 366" fill="none" xmlns="http://www.w3.org/2000/svg">
<rect width="374" height="365.467" rx="10" fill="#FDE7EE"/>
<path d="M5.5 5.5V34.8333C5.5 35.8058 5.88631 36.7384 6.57394 37.4261C7.26158 38.1137 8.19421 38.5 9.16667 38.5H38.5" stroke="#0F312D" stroke-width="2.5" stroke-linecap="round" stroke-linejoin="round"/>
<path d="M12.833 29.3332C13.7497 25.6665 15.583 16.4998 20.1663 16.4998C23.833 16.4998 23.833 21.9998 27.4997 21.9998C32.083 21.9998 35.7497 12.8332 36.6663 9.1665" stroke="#0F312D" stroke-width="2.5" stroke-linecap="round" stroke-linejoin="round"/>
<path d="M143 14.6668V11.0002C143 10.0277 142.614 9.09507 141.926 8.40744C141.239 7.7198 140.306 7.3335 139.334 7.3335H117.334C116.361 7.3335 115.429 7.7198 114.741 8.40744C114.053 9.09507 113.667 10.0277 113.667 11.0002V23.8335C113.667 24.806 114.053 25.7386 114.741 26.4262C115.429 27.1139 116.361 27.5002 117.334 27.5002H132" stroke="#0F312D" stroke-width="2.5" stroke-linecap="round" stroke-linejoin="round"/>
<path d="M128.333 34.8332V27.5732V33.3482" stroke="#0F312D" stroke-width="2.5" stroke-linecap="round" stroke-linejoin="round"/>
<path d="M122.833 34.8335H132" stroke="#0F312D" stroke-width="2.5" stroke-linecap="round" stroke-linejoin="round"/>
<path d="M146.666 22H143C140.975 22 139.333 23.6416 139.333 25.6667V36.6667C139.333 38.6917 140.975 40.3333 143 40.3333H146.666C148.691 40.3333 150.333 38.6917 150.333 36.6667V25.6667C150.333 23.6416 148.691 22 146.666 22Z" stroke="#0F312D" stroke-width="2.5" stroke-linecap="round" stroke-linejoin="round"/>
<path d="M234.667 5.5H232.833C231.861 5.5 230.928 5.88631 230.241 6.57394C229.553 7.26158 229.167 8.19421 229.167 9.16667V18.3333C229.167 19.3058 228.78 20.2384 228.093 20.9261C227.405 21.6137 226.472 22 225.5 22C226.472 22 227.405 22.3863 228.093 23.0739C228.78 23.7616 229.167 24.6942 229.167 25.6667V34.8333C229.167 36.85 230.817 38.5 232.833 38.5H234.667" stroke="#0F312D" stroke-width="2.5" stroke-linecap="round" stroke-linejoin="round"/>
<path d="M249.333 38.5H251.166C252.139 38.5 253.071 38.1137 253.759 37.4261C254.447 36.7384 254.833 35.8058 254.833 34.8333V25.6667C254.833 23.65 256.483 22 258.5 22C257.527 22 256.595 21.6137 255.907 20.9261C255.219 20.2384 254.833 19.3058 254.833 18.3333V9.16667C254.833 8.19421 254.447 7.26158 253.759 6.57394C253.071 5.88631 252.139 5.5 251.166 5.5H249.333" stroke="#0F312D" stroke-width="2.5" stroke-linecap="round" stroke-linejoin="round"/>
<path d="M352 12.8335V38.5002" stroke="#0F312D" stroke-width="2.5" stroke-linecap="round" stroke-linejoin="round"/>
<path d="M359.333 22H363" stroke="#0F312D" stroke-width="2.5" stroke-linecap="round" stroke-linejoin="round"/>
<path d="M359.333 14.6665H363" stroke="#0F312D" stroke-width="2.5" stroke-linecap="round" stroke-linejoin="round"/>
<path d="M335.5 33C335.014 33 334.548 32.8068 334.204 32.463C333.86 32.1192 333.667 31.6529 333.667 31.1667V7.33333C333.667 6.8471 333.86 6.38079 334.204 6.03697C334.548 5.69315 335.014 5.5 335.5 5.5H344.667C346.612 5.5 348.477 6.27262 349.852 7.64788C351.228 9.02315 352 10.8884 352 12.8333C352 10.8884 352.773 9.02315 354.148 7.64788C355.523 6.27262 357.389 5.5 359.334 5.5H368.5C368.987 5.5 369.453 5.69315 369.797 6.03697C370.141 6.38079 370.334 6.8471 370.334 7.33333V31.1667C370.334 31.6529 370.141 32.1192 369.797 32.463C369.453 32.8068 368.987 33 368.5 33H357.5C356.042 33 354.643 33.5795 353.611 34.6109C352.58 35.6424 352 37.0413 352 38.5C352 37.0413 351.421 35.6424 350.389 34.6109C349.358 33.5795 347.959 33 346.5 33H335.5Z" stroke="#0F312D" stroke-width="2.5" stroke-linecap="round" stroke-linejoin="round"/>
<path d="M341 22H344.667" stroke="#0F312D" stroke-width="2.5" stroke-linecap="round" stroke-linejoin="round"/>
<path d="M341 14.6665H344.667" stroke="#0F312D" stroke-width="2.5" stroke-linecap="round" stroke-linejoin="round"/>
<path d="M33 139.667C33 136.749 31.8411 133.951 29.7782 131.888C27.7153 129.825 24.9174 128.667 22 128.667C19.0826 128.667 16.2847 129.825 14.2218 131.888C12.1589 133.951 11 136.749 11 139.667" stroke="#0F312D" stroke-width="2.5" stroke-linecap="round" stroke-linejoin="round"/>
<path d="M22.0003 128.667C26.0504 128.667 29.3337 125.383 29.3337 121.333C29.3337 117.283 26.0504 114 22.0003 114C17.9502 114 14.667 117.283 14.667 121.333C14.667 125.383 17.9502 128.667 22.0003 128.667Z" stroke="#0F312D" stroke-width="2.5" stroke-linecap="round" stroke-linejoin="round"/>
<path d="M22.0003 143.333C32.1255 143.333 40.3337 135.125 40.3337 125C40.3337 114.875 32.1255 106.667 22.0003 106.667C11.8751 106.667 3.66699 114.875 3.66699 125C3.66699 135.125 11.8751 143.333 22.0003 143.333Z" stroke="#0F312D" stroke-width="2.5" stroke-linecap="round" stroke-linejoin="round"/>
<path d="M148.71 134.167C148.71 135.139 148.323 136.072 147.636 136.759C146.948 137.447 146.015 137.833 145.043 137.833H120.894C119.922 137.834 118.989 138.22 118.302 138.908L114.265 142.945C114.083 143.127 113.851 143.251 113.599 143.301C113.346 143.351 113.084 143.325 112.847 143.227C112.609 143.128 112.405 142.961 112.262 142.747C112.119 142.533 112.043 142.282 112.043 142.024V112.167C112.043 111.194 112.429 110.262 113.117 109.574C113.805 108.886 114.737 108.5 115.71 108.5H145.043C146.015 108.5 146.948 108.886 147.636 109.574C148.323 110.262 148.71 111.194 148.71 112.167V134.167Z" stroke="#0F312D" stroke-width="2.5" stroke-linecap="round" stroke-linejoin="round"/>
<path d="M238.752 143.333C248.878 143.333 257.086 135.125 257.086 125C257.086 114.875 248.878 106.667 238.752 106.667C228.627 106.667 220.419 114.875 220.419 125C220.419 135.125 228.627 143.333 238.752 143.333Z" stroke="#0F312D" stroke-width="2.5" stroke-linecap="round" stroke-linejoin="round"/>
<path d="M233.417 119.5C233.848 118.275 234.699 117.242 235.819 116.583C236.938 115.925 238.255 115.685 239.535 115.904C240.815 116.124 241.976 116.79 242.813 117.783C243.649 118.777 244.107 120.035 244.105 121.333C244.105 125 238.605 126.833 238.605 126.833" stroke="#0F312D" stroke-width="2.5" stroke-linecap="round" stroke-linejoin="round"/>
<path d="M238.752 134.167H238.77" stroke="#0F312D" stroke-width="2.5" stroke-linecap="round" stroke-linejoin="round"/>
<path d="M363.325 105.009C364.153 105.009 364.825 105.68 364.825 106.509V112.667C366.162 113.799 367.258 115.193 368.044 116.765C368.719 118.116 369.151 119.572 369.325 121.064H370.206C371.212 121.065 372.177 121.464 372.889 122.175C373.6 122.886 374 123.851 374 124.857V129.444C374 130.45 373.6 131.416 372.889 132.127C372.177 132.838 371.212 133.238 370.206 133.238H368.919C368.493 134.124 367.921 134.936 367.222 135.635C366.523 136.334 365.711 136.904 364.825 137.33V143.206C364.825 144.212 364.426 145.177 363.715 145.889C363.004 146.6 362.038 147 361.032 147H356.444C355.439 147 354.474 146.6 353.763 145.889C353.051 145.177 352.651 144.212 352.651 143.206V140.119H348.771V143.206C348.77 144.212 348.371 145.177 347.659 145.889C346.948 146.6 345.983 147 344.977 147H340.39C339.384 147 338.418 146.6 337.707 145.889C336.996 145.177 336.596 144.212 336.596 143.206V137.046C335.259 135.914 334.164 134.521 333.378 132.95C332.478 131.15 332.009 129.164 332.009 127.151V126.357H331.215C329.601 126.357 328.053 125.716 326.911 124.574C325.77 123.433 325.128 121.885 325.128 120.271V117.977C325.128 117.148 325.8 116.477 326.628 116.477C327.456 116.477 328.128 117.148 328.128 117.977V120.271C328.128 121.089 328.453 121.874 329.032 122.453C329.611 123.032 330.396 123.357 331.215 123.357H332.082C332.427 119.861 333.972 116.573 336.479 114.066C339.341 111.204 343.223 109.596 347.271 109.596H354.548L354.786 109.278C355.78 107.953 357.07 106.877 358.552 106.136C360.034 105.395 361.668 105.009 363.325 105.009ZM361.825 108.159C361.157 108.292 360.507 108.513 359.894 108.819C358.828 109.352 357.901 110.125 357.187 111.078L356.498 111.996C356.215 112.374 355.77 112.596 355.298 112.596H347.271C344.019 112.596 340.9 113.888 338.601 116.188C336.301 118.487 335.009 121.606 335.009 124.857V127.151C335.009 128.699 335.37 130.225 336.062 131.609C336.754 132.993 337.758 134.198 338.996 135.126C339.373 135.409 339.596 135.853 339.596 136.325V143.206C339.596 143.416 339.679 143.619 339.828 143.768C339.977 143.916 340.179 144 340.39 144H344.977C345.187 144 345.389 143.916 345.538 143.768C345.687 143.619 345.77 143.416 345.771 143.206V138.619C345.771 137.791 346.442 137.119 347.271 137.119H354.151C354.98 137.119 355.651 137.791 355.651 138.619V143.206C355.651 143.416 355.735 143.619 355.884 143.768C356.032 143.916 356.234 144 356.444 144H361.032C361.242 144 361.444 143.916 361.593 143.768C361.742 143.619 361.825 143.416 361.825 143.206V136.325C361.825 135.68 362.239 135.106 362.852 134.902C363.699 134.62 364.469 134.145 365.101 133.514C365.732 132.882 366.207 132.112 366.489 131.265L366.532 131.152C366.766 130.602 367.308 130.238 367.913 130.238H370.206C370.416 130.238 370.619 130.155 370.768 130.006C370.916 129.857 371 129.655 371 129.444V124.857C371 124.647 370.916 124.446 370.768 124.297C370.619 124.148 370.416 124.065 370.206 124.064H367.913C367.085 124.064 366.413 123.393 366.413 122.564C366.413 121.017 366.052 119.49 365.36 118.106C364.668 116.723 363.664 115.518 362.426 114.59C362.048 114.307 361.825 113.862 361.825 113.39V108.159ZM358.762 121.063C359.59 121.064 360.262 121.735 360.262 122.563C360.262 123.392 359.59 124.063 358.762 124.063H358.739C357.911 124.063 357.239 123.392 357.239 122.563C357.239 121.735 357.911 121.063 358.739 121.063H358.762Z" fill="#0F312D"/>
<path d="M37.0986 253.467C37.927 253.467 38.5986 254.138 38.5986 254.967C38.5984 255.795 37.9269 256.467 37.0986 256.467H3.87207C3.04376 256.467 2.37226 255.795 2.37207 254.967C2.37207 254.138 3.04364 253.467 3.87207 253.467H37.0986ZM20.4854 206C22.7711 206 24.9636 206.908 26.5801 208.524C28.1966 210.141 29.1054 212.334 29.1055 214.62C29.1054 217.329 28.4006 218.773 27.7207 219.963C27.1213 221.012 26.7315 221.588 26.7314 222.927V232.106H33.54C35.5112 232.107 37.402 232.889 38.7959 234.283C40.1898 235.677 40.9736 237.569 40.9736 239.54V243.1C40.9736 244.127 40.5652 245.112 39.8389 245.839C39.1125 246.565 38.1268 246.973 37.0996 246.973H3.87305C2.84607 246.973 1.86105 246.565 1.13477 245.839C0.408383 245.112 8.08829e-06 244.127 0 243.1V239.54C0 237.569 0.782742 235.677 2.17676 234.283C3.57076 232.889 5.4622 232.106 7.43359 232.106H14.2383V222.927C14.2382 221.588 13.8493 221.012 13.25 219.963C12.5701 218.773 11.8653 217.329 11.8652 214.62C11.8653 212.334 12.7732 210.141 14.3896 208.524C16.0061 206.908 18.1994 206 20.4854 206ZM7.43359 235.106C6.25785 235.106 5.13023 235.574 4.29883 236.405C3.46742 237.237 3 238.364 3 239.54V243.1C3.00001 243.331 3.09221 243.553 3.25586 243.717C3.41956 243.88 3.64158 243.973 3.87305 243.973H37.0996C37.3312 243.973 37.554 243.881 37.7178 243.717C37.8812 243.553 37.9736 243.331 37.9736 243.1V239.54C37.9736 238.364 37.506 237.237 36.6748 236.405C35.8435 235.574 34.7157 235.107 33.54 235.106H7.43359ZM20.4854 209C18.995 209 17.5656 209.593 16.5117 210.646C15.4579 211.7 14.8653 213.13 14.8652 214.62C14.8653 216.657 15.3479 217.587 15.8545 218.474C16.4416 219.501 17.2382 220.706 17.2383 222.927V232.106H23.7314V222.927C23.7315 220.706 24.5291 219.501 25.1162 218.474C25.6228 217.587 26.1054 216.657 26.1055 214.62C26.1054 213.13 25.5128 211.7 24.459 210.646C23.4051 209.593 21.9756 209 20.4854 209Z" fill="#0F312D"/>
<path d="M128.437 233.523C131.267 233.523 133.983 234.648 135.984 236.649C137.986 238.651 139.111 241.367 139.111 244.198V248.785C139.111 249.613 138.439 250.285 137.611 250.285C136.783 250.285 136.112 249.613 136.111 248.785V244.198C136.111 242.163 135.302 240.211 133.863 238.771C132.424 237.332 130.472 236.523 128.437 236.523H114.675C112.639 236.523 110.687 237.332 109.248 238.771C107.809 240.211 107 242.163 107 244.198V248.785C107 249.613 106.328 250.285 105.5 250.285C104.672 250.285 104 249.613 104 248.785V244.198C104 241.367 105.125 238.651 107.127 236.649C109.129 234.648 111.844 233.523 114.675 233.523H128.437ZM143.038 234.946C143.245 234.144 144.063 233.662 144.865 233.869C147.155 234.46 149.184 235.795 150.633 237.664C152.082 239.533 152.869 241.831 152.871 244.196V248.785C152.871 249.613 152.199 250.285 151.371 250.285C150.543 250.285 149.871 249.613 149.871 248.785V244.198C149.87 242.498 149.303 240.847 148.262 239.503C147.22 238.159 145.762 237.199 144.115 236.773C143.313 236.566 142.831 235.748 143.038 234.946ZM121.556 206C127.451 206 132.23 210.78 132.23 216.675C132.23 222.57 127.451 227.349 121.556 227.349C115.66 227.349 110.881 222.57 110.881 216.675C110.881 210.779 115.66 206 121.556 206ZM136.157 207.417C136.365 206.616 137.184 206.133 137.985 206.341C140.274 206.934 142.302 208.272 143.749 210.142C145.196 212.012 145.981 214.309 145.981 216.674C145.981 219.038 145.196 221.336 143.749 223.206C142.302 225.076 140.274 226.413 137.985 227.007C137.184 227.214 136.365 226.732 136.157 225.931C135.95 225.129 136.432 224.31 137.233 224.103C138.879 223.676 140.337 222.715 141.377 221.37C142.417 220.026 142.981 218.374 142.981 216.674C142.981 214.974 142.417 213.322 141.377 211.978C140.337 210.633 138.879 209.672 137.233 209.245C136.432 209.037 135.95 208.219 136.157 207.417ZM121.556 209C117.317 209 113.881 212.436 113.881 216.675C113.881 220.913 117.317 224.349 121.556 224.349C125.794 224.349 129.23 220.913 129.23 216.675C129.23 212.436 125.794 209 121.556 209Z" fill="#0F312D"/>
<g clip-path="url(#clip0_629_1112)">
<path d="M250.454 210.983C253.584 210.983 256.121 213.521 256.121 216.65V245.816C256.121 248.946 253.584 251.483 250.454 251.483H221.288C218.158 251.483 215.621 248.946 215.621 245.816V216.65C215.621 213.521 218.158 210.983 221.288 210.983H250.454ZM231.121 248.483H250.454C251.927 248.483 253.121 247.289 253.121 245.816V226.483H231.121V248.483ZM218.621 245.816C218.621 247.289 219.815 248.483 221.288 248.483H228.121V226.483H218.621V245.816ZM221.288 213.983C219.815 213.983 218.621 215.178 218.621 216.65V223.483H253.121V216.65C253.121 215.178 251.927 213.983 250.454 213.983H221.288Z" fill="#0F312D"/>
</g>
<g clip-path="url(#clip1_629_1112)">
<path d="M352.204 210.983C353.707 210.983 355.148 211.581 356.211 212.644C357.274 213.706 357.871 215.147 357.871 216.65V219.316H360.538L360.819 219.323C362.22 219.393 363.549 219.98 364.545 220.977C365.607 222.039 366.205 223.481 366.205 224.983V245.816C366.205 247.319 365.607 248.761 364.545 249.823C363.482 250.886 362.041 251.483 360.538 251.483H327.205C325.702 251.483 324.261 250.886 323.198 249.823C322.136 248.761 321.538 247.319 321.538 245.816V231.233C321.538 229.731 322.136 228.289 323.198 227.227C324.261 226.164 325.702 225.566 327.205 225.566H329.871V216.65C329.871 215.147 330.469 213.706 331.531 212.644C332.594 211.581 334.035 210.983 335.538 210.983H352.204ZM335.538 213.983C334.831 213.983 334.152 214.265 333.652 214.765C333.152 215.265 332.871 215.943 332.871 216.65V248.483H338.204V243.733C338.204 242.231 338.802 240.789 339.864 239.727C340.927 238.664 342.368 238.066 343.871 238.066C345.374 238.066 346.815 238.664 347.878 239.727C348.94 240.789 349.537 242.231 349.537 243.733V248.483H354.871V216.65C354.871 215.943 354.59 215.265 354.09 214.765C353.59 214.265 352.911 213.983 352.204 213.983H335.538ZM343.871 241.066C343.164 241.066 342.485 241.348 341.985 241.848C341.485 242.348 341.204 243.026 341.204 243.733V248.483H346.537V243.733C346.537 243.026 346.257 242.348 345.757 241.848C345.257 241.348 344.578 241.066 343.871 241.066ZM357.871 248.483H360.538C361.245 248.483 361.924 248.202 362.424 247.702C362.924 247.202 363.205 246.523 363.205 245.816V224.983C363.205 224.276 362.924 223.598 362.424 223.098C361.986 222.66 361.412 222.39 360.802 222.329L360.538 222.316H357.871V248.483ZM327.205 228.566C326.498 228.566 325.819 228.848 325.319 229.348C324.819 229.848 324.538 230.526 324.538 231.233V245.816C324.538 246.524 324.819 247.202 325.319 247.702C325.819 248.202 326.498 248.483 327.205 248.483H329.871V228.566H327.205ZM348.037 229.733C348.866 229.733 349.537 230.405 349.537 231.233C349.537 232.062 348.866 232.733 348.037 232.733H339.704C338.876 232.733 338.204 232.062 338.204 231.233C338.204 230.405 338.876 229.734 339.704 229.733H348.037ZM348.037 221.4C348.866 221.4 349.537 222.072 349.537 222.9C349.537 223.729 348.865 224.4 348.037 224.4H339.704C338.876 224.4 338.204 223.729 338.204 222.9C338.204 222.072 338.876 221.401 339.704 221.4H348.037Z" fill="#0F312D"/>
</g>
<g clip-path="url(#clip2_629_1112)">
<path d="M42.3447 320.231C43.0075 320.172 43.6743 320.297 44.2695 320.595C44.8646 320.892 45.365 321.35 45.7148 321.916C46.0646 322.482 46.2499 323.134 46.25 323.8V348.8C46.25 349.465 46.0646 350.117 45.7148 350.683C45.3651 351.249 44.8645 351.707 44.2695 352.005C43.6743 352.302 43.0075 352.429 42.3447 352.369C41.682 352.309 41.0489 352.066 40.5166 351.667C40.5064 351.659 40.4963 351.651 40.4863 351.643C35.7906 347.929 29.9404 345.979 23.9551 346.133C23.9424 346.133 23.9297 346.134 23.917 346.134H23.4111C23.6842 348.88 24.6992 351.51 26.3662 353.733C27.2678 354.936 27.6559 356.448 27.4434 357.935C27.2307 359.423 26.4354 360.765 25.2334 361.667C24.0312 362.568 22.5198 362.955 21.0322 362.743C19.5446 362.531 18.2015 361.736 17.2998 360.534C14.1604 356.348 12.3379 351.335 12.043 346.134H11.417C9.9142 346.134 8.47284 345.536 7.41016 344.474C6.34748 343.411 5.75003 341.97 5.75 340.467V332.134C5.75 330.631 6.34749 329.19 7.41016 328.127C8.47286 327.064 9.9141 326.467 11.417 326.467H23.917L23.9551 326.468C29.9403 326.622 35.7906 324.671 40.4863 320.957L40.5166 320.933C41.0489 320.534 41.682 320.291 42.3447 320.231ZM15.0479 346.134C15.3391 350.686 16.9505 355.067 19.7002 358.733C20.1245 359.299 20.7561 359.673 21.4561 359.773C22.1561 359.873 22.8679 359.692 23.4336 359.267C23.9993 358.843 24.3735 358.211 24.4736 357.511C24.5735 356.811 24.3908 356.1 23.9668 355.534C21.9097 352.791 20.6771 349.53 20.3955 346.134H15.0479ZM42.6143 323.219C42.5085 323.228 42.4069 323.266 42.3213 323.329C37.0894 327.458 30.5798 329.628 23.917 329.466V329.467H19.167V343.134H23.8779C30.554 342.962 37.0794 345.133 42.3213 349.269C42.407 349.332 42.5082 349.371 42.6143 349.381C42.7221 349.39 42.8308 349.371 42.9277 349.322C43.0246 349.274 43.1061 349.198 43.1631 349.106C43.2199 349.014 43.25 348.908 43.25 348.8V323.8C43.2499 323.691 43.2199 323.585 43.1631 323.493C43.1062 323.401 43.0245 323.327 42.9277 323.278C42.8308 323.23 42.7221 323.209 42.6143 323.219ZM11.417 329.467C10.7097 329.467 10.0313 329.748 9.53125 330.248C9.03119 330.748 8.75 331.426 8.75 332.134V340.467C8.75003 341.174 9.03118 341.852 9.53125 342.352C10.0313 342.852 10.7099 343.134 11.417 343.134H16.167V329.467H11.417Z" fill="#0F312D"/>
</g>
<g clip-path="url(#clip3_629_1112)">
<path d="M138.625 328.592C138.244 328.981 138.03 329.505 138.03 330.05C138.03 330.596 138.244 331.119 138.625 331.509L141.959 334.842C142.348 335.224 142.872 335.438 143.417 335.438C143.962 335.438 144.486 335.224 144.875 334.842L151.346 328.373C152.013 327.702 153.144 327.915 153.394 328.827C154.024 331.117 153.988 333.538 153.292 335.808C152.595 338.078 151.267 340.102 149.462 341.645C147.656 343.187 145.449 344.183 143.099 344.517C140.748 344.851 138.351 344.508 136.188 343.53L119.709 360.009C118.88 360.837 117.756 361.303 116.584 361.302C115.412 361.302 114.288 360.836 113.46 360.008C112.631 359.179 112.166 358.055 112.166 356.883C112.166 355.711 112.632 354.587 113.461 353.759L129.94 337.28C128.961 335.116 128.618 332.719 128.952 330.369C129.286 328.018 130.282 325.811 131.825 324.006C133.367 322.201 135.392 320.872 137.662 320.176C139.931 319.479 142.353 319.444 144.642 320.073C145.554 320.323 145.767 321.452 145.098 322.123L138.625 328.592Z" stroke="#0F312D" stroke-width="3" stroke-linecap="round" stroke-linejoin="round"/>
</g>
<g clip-path="url(#clip4_629_1112)">
<path d="M262.945 322.967C264.633 322.967 266 324.334 266 326.02C266 326.779 265.719 327.511 265.203 328.073L253.5 340.951V353.678C253.5 354.693 252.727 355.467 251.711 355.467C251.414 355.467 251.062 355.35 250.766 355.139L244.531 350.6C243.883 350.131 243.5 349.381 243.5 348.584V340.951L231.797 328.073C231.281 327.511 231 326.779 231 326.02C231 324.334 232.367 322.967 234.055 322.967H262.945ZM233.641 326.392L245.672 339.623C245.883 339.857 246 340.154 246 340.467V348.584L251 352.217V340.467C251 340.154 251.117 339.857 251.328 339.623L263.359 326.392C263.445 326.29 263.5 326.157 263.5 326.02C263.5 325.714 263.25 325.467 262.945 325.467H234.055C233.75 325.467 233.5 325.714 233.5 326.02C233.5 326.157 233.555 326.29 233.641 326.392ZM218.644 331.389L230.672 344.623C230.883 344.857 231 345.154 231 345.467V351.084L236 354.717V345.467C236 345.154 236.117 344.857 236.328 344.623L238.602 342.123C239.062 341.615 239.852 341.576 240.367 342.045C240.875 342.506 240.914 343.295 240.445 343.811L238.5 345.951V356.178C238.5 357.193 237.727 357.967 236.711 357.967C236.414 357.967 236.062 357.85 235.766 357.639L229.531 353.1C228.883 352.631 228.5 351.881 228.5 351.084V345.951L216.794 333.076C216.283 332.514 216 331.779 216 331.021C216 329.334 217.367 327.967 219.053 327.967H228.5C229.188 327.967 229.75 328.529 229.75 329.217C229.75 329.904 229.188 330.467 228.5 330.467H219.053C218.748 330.467 218.5 330.717 218.5 331.021C218.5 331.154 218.552 331.287 218.644 331.389Z" fill="#0F312D"/>
</g>
<g clip-path="url(#clip5_629_1112)">
<path d="M367.75 345.217C368.578 345.217 369.25 345.888 369.25 346.717V355.05C369.25 356.553 368.653 357.994 367.59 359.057C366.527 360.119 365.086 360.717 363.583 360.717H334.417C332.914 360.717 331.473 360.119 330.41 359.057C329.347 357.994 328.75 356.553 328.75 355.05V346.717C328.75 345.888 329.422 345.217 330.25 345.217C331.078 345.217 331.75 345.888 331.75 346.717V355.05C331.75 355.757 332.031 356.435 332.531 356.936C333.031 357.436 333.71 357.717 334.417 357.717H363.583C364.29 357.717 364.969 357.436 365.469 356.936C365.969 356.435 366.25 355.757 366.25 355.05V346.717C366.25 345.888 366.922 345.217 367.75 345.217ZM349.032 320.218C349.061 320.218 349.09 320.22 349.119 320.223C349.137 320.224 349.155 320.225 349.173 320.228C349.201 320.231 349.23 320.235 349.258 320.24C349.281 320.244 349.305 320.248 349.328 320.253C349.347 320.257 349.366 320.263 349.385 320.268C349.409 320.274 349.433 320.28 349.457 320.288C349.493 320.299 349.528 320.313 349.562 320.327C349.57 320.33 349.578 320.333 349.586 320.336C349.617 320.349 349.647 320.364 349.677 320.379C349.776 320.429 349.869 320.489 349.954 320.56C349.991 320.59 350.026 320.622 350.061 320.656L360.477 331.073C361.062 331.659 361.062 332.609 360.477 333.194C359.891 333.78 358.941 333.78 358.355 333.194L350.5 325.339V346.717C350.5 347.545 349.828 348.217 349 348.217C348.172 348.217 347.5 347.545 347.5 346.717V325.337L339.644 333.194C339.058 333.78 338.108 333.78 337.522 333.194C336.937 332.609 336.937 331.659 337.522 331.073L347.939 320.656L348.053 320.553C348.081 320.53 348.11 320.509 348.14 320.488C348.147 320.483 348.154 320.478 348.161 320.473L348.167 320.469C348.286 320.389 348.414 320.328 348.547 320.286C348.56 320.282 348.573 320.279 348.586 320.275C348.619 320.266 348.652 320.256 348.686 320.249C348.701 320.246 348.717 320.244 348.733 320.241C348.766 320.235 348.798 320.23 348.83 320.227C348.845 320.225 348.859 320.224 348.874 320.223C348.908 320.22 348.941 320.218 348.975 320.218C348.983 320.218 348.992 320.217 349 320.217C349.011 320.217 349.022 320.218 349.032 320.218Z" fill="#0F312D"/>
</g>
<defs>
<clipPath id="clip0_629_1112">
<rect width="50" height="50" fill="white" transform="translate(210.871 206.233)"/>
</clipPath>
<clipPath id="clip1_629_1112">
<rect width="50" height="50" fill="white" transform="translate(318.871 206.233)"/>
</clipPath>
<clipPath id="clip2_629_1112">
<rect width="50" height="50" fill="white" transform="translate(0 315.467)"/>
</clipPath>
<clipPath id="clip3_629_1112">
<rect width="50" height="50" fill="white" transform="translate(108 315.467)"/>
</clipPath>
<clipPath id="clip4_629_1112">
<rect width="50" height="40" fill="white" transform="translate(216 320.467)"/>
</clipPath>
<clipPath id="clip5_629_1112">
<rect width="50" height="50" fill="white" transform="translate(324 315.467)"/>
</clipPath>
</defs>
</svg>
