<svg width="250" height="62" viewBox="0 0 250 62" fill="none" xmlns="http://www.w3.org/2000/svg">
<g clip-path="url(#clip0_1_6)">
<path d="M242 0H8C3.58172 0 0 3.58172 0 8V54C0 58.4183 3.58172 62 8 62H242C246.418 62 250 58.4183 250 54V8C250 3.58172 246.418 0 242 0Z" fill="url(#paint0_linear_1_6)"/>
<path d="M25 36C27.7614 36 30 33.7614 30 31C30 28.2386 27.7614 26 25 26C22.2386 26 20 28.2386 20 31C20 33.7614 22.2386 36 25 36Z" fill="#53BBBC"/>
<path d="M44.784 36.08C44.5813 36.08 44.416 36.0213 44.288 35.904C44.1707 35.776 44.112 35.6107 44.112 35.408V25.84H40.672C40.48 25.84 40.3307 25.792 40.224 25.696C40.1173 25.6 40.064 25.4613 40.064 25.28C40.064 25.0987 40.1173 24.96 40.224 24.864C40.3307 24.768 40.48 24.72 40.672 24.72H48.88C49.072 24.72 49.2213 24.768 49.328 24.864C49.4347 24.96 49.488 25.0987 49.488 25.28C49.488 25.4613 49.4347 25.6 49.328 25.696C49.2213 25.792 49.072 25.84 48.88 25.84H45.44V35.408C45.44 35.6107 45.3813 35.776 45.264 35.904C45.1467 36.0213 44.9867 36.08 44.784 36.08ZM52.7758 36.112C52.0398 36.112 51.3891 35.9467 50.8238 35.616C50.2691 35.2853 49.8371 34.816 49.5278 34.208C49.2291 33.5893 49.0798 32.8747 49.0798 32.064C49.0798 31.2533 49.2291 30.544 49.5278 29.936C49.8371 29.3173 50.2691 28.8427 50.8238 28.512C51.3891 28.1813 52.0398 28.016 52.7758 28.016C53.5118 28.016 54.1624 28.1813 54.7278 28.512C55.2931 28.8427 55.7251 29.3173 56.0238 29.936C56.3331 30.544 56.4878 31.2533 56.4878 32.064C56.4878 32.8747 56.3331 33.5893 56.0238 34.208C55.7251 34.816 55.2931 35.2853 54.7278 35.616C54.1624 35.9467 53.5118 36.112 52.7758 36.112ZM52.7758 35.04C53.5438 35.04 54.1304 34.7893 54.5358 34.288C54.9518 33.776 55.1598 33.0347 55.1598 32.064C55.1598 31.1147 54.9518 30.384 54.5358 29.872C54.1198 29.3493 53.5331 29.088 52.7758 29.088C52.0184 29.088 51.4318 29.3493 51.0158 29.872C50.5998 30.384 50.3918 31.1147 50.3918 32.064C50.3918 33.024 50.5944 33.76 50.9998 34.272C51.4158 34.784 52.0078 35.04 52.7758 35.04ZM68.981 28.464C69.0877 28.208 69.2637 28.08 69.509 28.08C69.669 28.08 69.813 28.1333 69.941 28.24C70.069 28.3467 70.133 28.48 70.133 28.64C70.133 28.7147 70.117 28.7947 70.085 28.88L67.429 35.6C67.365 35.7387 67.269 35.8507 67.141 35.936C67.0237 36.0107 66.8903 36.048 66.741 36.048C66.6023 36.048 66.469 36.0107 66.341 35.936C66.2237 35.8507 66.133 35.7387 66.069 35.6L63.861 29.984L61.669 35.6C61.6157 35.7387 61.525 35.8507 61.397 35.936C61.269 36.0107 61.1303 36.048 60.981 36.048C60.8423 36.048 60.709 36.0107 60.581 35.936C60.453 35.8507 60.357 35.7387 60.293 35.6L57.637 28.896C57.605 28.8107 57.589 28.736 57.589 28.672C57.589 28.5013 57.6583 28.3573 57.797 28.24C57.9463 28.1227 58.1063 28.064 58.277 28.064C58.533 28.064 58.7143 28.192 58.821 28.448L61.013 34.352L63.269 28.496C63.333 28.3573 63.4183 28.2507 63.525 28.176C63.6423 28.1013 63.765 28.064 63.893 28.064C64.0317 28.064 64.1543 28.1013 64.261 28.176C64.3783 28.2507 64.4637 28.3573 64.517 28.496L66.773 34.336L68.981 28.464ZM77.732 34.192C77.8493 34.192 77.9507 34.24 78.036 34.336C78.1213 34.432 78.164 34.5547 78.164 34.704C78.164 34.9707 77.9773 35.216 77.604 35.44C77.22 35.664 76.8147 35.8347 76.388 35.952C75.9613 36.0587 75.5453 36.112 75.14 36.112C73.9347 36.112 72.98 35.7547 72.276 35.04C71.5827 34.3253 71.236 33.3387 71.236 32.08C71.236 31.28 71.3907 30.576 71.7 29.968C72.0093 29.3493 72.4413 28.8693 72.996 28.528C73.5613 28.1867 74.2013 28.016 74.916 28.016C75.9293 28.016 76.7347 28.3467 77.332 29.008C77.9293 29.6693 78.228 30.5653 78.228 31.696C78.228 31.9093 78.1853 32.064 78.1 32.16C78.0147 32.256 77.876 32.304 77.684 32.304H72.532C72.628 34.1387 73.4973 35.056 75.14 35.056C75.556 35.056 75.9133 35.0027 76.212 34.896C76.5107 34.7787 76.8307 34.624 77.172 34.432C77.4493 34.272 77.636 34.192 77.732 34.192ZM74.932 29.024C74.2493 29.024 73.7 29.2373 73.284 29.664C72.8787 30.0907 72.6387 30.6933 72.564 31.472H77.092C77.0707 30.6827 76.8733 30.08 76.5 29.664C76.1267 29.2373 75.604 29.024 74.932 29.024ZM83.9935 28.048C84.4415 28.016 84.6655 28.1973 84.6655 28.592C84.6655 28.7627 84.6175 28.9013 84.5215 29.008C84.4255 29.104 84.2602 29.1627 84.0255 29.184L83.5455 29.232C82.8308 29.296 82.2975 29.552 81.9455 30C81.6042 30.4373 81.4335 30.9547 81.4335 31.552V35.44C81.4335 35.6533 81.3748 35.8133 81.2575 35.92C81.1402 36.0267 80.9855 36.08 80.7935 36.08C80.6015 36.08 80.4415 36.0267 80.3135 35.92C80.1962 35.8027 80.1375 35.6427 80.1375 35.44V28.688C80.1375 28.4853 80.2015 28.3307 80.3295 28.224C80.4575 28.1067 80.6122 28.048 80.7935 28.048C80.9642 28.048 81.1082 28.1067 81.2255 28.224C81.3428 28.3307 81.4015 28.48 81.4015 28.672V29.568C81.6255 29.0987 81.9402 28.7413 82.3455 28.496C82.7615 28.2507 83.2362 28.1067 83.7695 28.064L83.9935 28.048ZM86.0744 36.08C85.8184 36.08 85.605 36 85.4344 35.84C85.2637 35.6693 85.1784 35.4507 85.1784 35.184C85.1784 34.9173 85.2637 34.6987 85.4344 34.528C85.605 34.3573 85.8184 34.272 86.0744 34.272C86.3197 34.272 86.5224 34.3573 86.6824 34.528C86.853 34.6987 86.9384 34.9173 86.9384 35.184C86.9384 35.4507 86.853 35.6693 86.6824 35.84C86.5224 36 86.3197 36.08 86.0744 36.08ZM93.5666 36.128C92.5 36.128 91.5773 35.8987 90.7986 35.44C90.02 34.9707 89.4173 34.304 88.9906 33.44C88.5746 32.5653 88.3666 31.536 88.3666 30.352C88.3666 29.1787 88.5746 28.16 88.9906 27.296C89.4173 26.4213 90.02 25.7547 90.7986 25.296C91.5773 24.8267 92.5 24.592 93.5666 24.592C94.2813 24.592 94.9533 24.7093 95.5826 24.944C96.2226 25.168 96.7773 25.4933 97.2466 25.92C97.4173 26.08 97.5026 26.2667 97.5026 26.48C97.5026 26.6293 97.46 26.7627 97.3746 26.88C97.2893 26.9867 97.188 27.04 97.0706 27.04C96.9426 27.04 96.788 26.9813 96.6066 26.864C96.0626 26.4373 95.5666 26.1387 95.1186 25.968C94.6813 25.7973 94.1746 25.712 93.5986 25.712C92.3613 25.712 91.4066 26.1173 90.7346 26.928C90.0733 27.728 89.7426 28.8693 89.7426 30.352C89.7426 31.8453 90.0733 32.9973 90.7346 33.808C91.4066 34.608 92.3613 35.008 93.5986 35.008C94.164 35.008 94.6706 34.9227 95.1186 34.752C95.5666 34.5813 96.0626 34.2827 96.6066 33.856C96.788 33.7387 96.9426 33.68 97.0706 33.68C97.188 33.68 97.2893 33.7333 97.3746 33.84C97.46 33.9467 97.5026 34.08 97.5026 34.24C97.5026 34.4533 97.4173 34.64 97.2466 34.8C96.7773 35.2267 96.2226 35.5573 95.5826 35.792C94.9533 36.016 94.2813 36.128 93.5666 36.128ZM100.075 36.08C99.8828 36.08 99.7228 36.0267 99.5948 35.92C99.4774 35.8027 99.4188 35.6427 99.4188 35.44V25.28C99.4188 25.0773 99.4774 24.9227 99.5948 24.816C99.7228 24.6987 99.8828 24.64 100.075 24.64C100.256 24.64 100.405 24.6987 100.523 24.816C100.651 24.9227 100.715 25.0773 100.715 25.28V35.44C100.715 35.6427 100.651 35.8027 100.523 35.92C100.405 36.0267 100.256 36.08 100.075 36.08ZM103.794 36.08C103.602 36.08 103.442 36.0267 103.314 35.92C103.196 35.8027 103.138 35.6427 103.138 35.44V28.688C103.138 28.4853 103.196 28.3307 103.314 28.224C103.442 28.1067 103.602 28.048 103.794 28.048C103.986 28.048 104.14 28.1067 104.258 28.224C104.375 28.3307 104.434 28.4853 104.434 28.688V35.44C104.434 35.6533 104.375 35.8133 104.258 35.92C104.14 36.0267 103.986 36.08 103.794 36.08ZM103.794 26.368C103.538 26.368 103.33 26.2933 103.17 26.144C103.01 25.9947 102.93 25.7973 102.93 25.552C102.93 25.3173 103.01 25.1253 103.17 24.976C103.33 24.8267 103.538 24.752 103.794 24.752C104.05 24.752 104.258 24.8267 104.418 24.976C104.578 25.1253 104.658 25.3173 104.658 25.552C104.658 25.7973 104.578 25.9947 104.418 26.144C104.258 26.2933 104.05 26.368 103.794 26.368ZM110.072 36.112C109.347 36.112 108.702 35.9467 108.136 35.616C107.582 35.2853 107.15 34.816 106.84 34.208C106.542 33.6 106.392 32.896 106.392 32.096C106.392 31.296 106.547 30.5867 106.856 29.968C107.176 29.3493 107.619 28.8693 108.184 28.528C108.75 28.1867 109.4 28.016 110.136 28.016C110.542 28.016 110.942 28.0747 111.336 28.192C111.742 28.2987 112.094 28.4587 112.392 28.672C112.584 28.8 112.718 28.928 112.792 29.056C112.878 29.1733 112.92 29.3067 112.92 29.456C112.92 29.6053 112.878 29.728 112.792 29.824C112.718 29.92 112.616 29.968 112.488 29.968C112.414 29.968 112.334 29.9467 112.248 29.904C112.163 29.8613 112.088 29.8187 112.024 29.776C111.971 29.7333 111.934 29.7067 111.912 29.696C111.635 29.5147 111.368 29.3707 111.112 29.264C110.867 29.1573 110.563 29.104 110.2 29.104C109.422 29.104 108.814 29.3707 108.376 29.904C107.95 30.4267 107.736 31.1573 107.736 32.096C107.736 33.0347 107.95 33.76 108.376 34.272C108.814 34.784 109.422 35.04 110.2 35.04C110.563 35.04 110.872 34.9867 111.128 34.88C111.395 34.7733 111.662 34.6293 111.928 34.448C112.046 34.3733 112.158 34.3093 112.264 34.256C112.371 34.2027 112.462 34.176 112.536 34.176C112.654 34.176 112.75 34.224 112.824 34.32C112.91 34.416 112.952 34.5387 112.952 34.688C112.952 34.8267 112.915 34.9547 112.84 35.072C112.766 35.1787 112.627 35.3013 112.424 35.44C112.126 35.6427 111.763 35.808 111.336 35.936C110.92 36.0533 110.499 36.112 110.072 36.112ZM120.737 34.976C120.907 35.136 120.993 35.3067 120.993 35.488C120.993 35.648 120.934 35.7867 120.817 35.904C120.71 36.0213 120.577 36.08 120.417 36.08C120.278 36.08 120.134 36.016 119.985 35.888L115.809 32.288V35.44C115.809 35.6427 115.745 35.8027 115.617 35.92C115.499 36.0267 115.35 36.08 115.169 36.08C114.977 36.08 114.817 36.0267 114.689 35.92C114.571 35.8027 114.513 35.6427 114.513 35.44V25.28C114.513 25.0773 114.571 24.9227 114.689 24.816C114.817 24.6987 114.977 24.64 115.169 24.64C115.35 24.64 115.499 24.6987 115.617 24.816C115.745 24.9227 115.809 25.0773 115.809 25.28V31.776L119.633 28.272C119.761 28.144 119.905 28.08 120.065 28.08C120.225 28.08 120.363 28.1387 120.481 28.256C120.598 28.3733 120.657 28.512 120.657 28.672C120.657 28.8533 120.582 29.0133 120.433 29.152L117.281 31.968L120.737 34.976ZM126.05 35.056C126.423 35.088 126.61 35.2587 126.61 35.568C126.61 35.7493 126.541 35.888 126.402 35.984C126.274 36.0693 126.077 36.1013 125.81 36.08L125.378 36.048C124.525 35.984 123.895 35.728 123.49 35.28C123.085 34.832 122.882 34.1547 122.882 33.248V29.232H121.81C121.629 29.232 121.485 29.1893 121.378 29.104C121.282 29.008 121.234 28.8853 121.234 28.736C121.234 28.576 121.282 28.448 121.378 28.352C121.485 28.256 121.629 28.208 121.81 28.208H122.882V26.4C122.882 26.1973 122.941 26.0427 123.058 25.936C123.175 25.8187 123.335 25.76 123.538 25.76C123.73 25.76 123.885 25.8187 124.002 25.936C124.119 26.0427 124.178 26.1973 124.178 26.4V28.208H125.954C126.125 28.208 126.258 28.256 126.354 28.352C126.461 28.448 126.514 28.576 126.514 28.736C126.514 28.8853 126.461 29.008 126.354 29.104C126.258 29.1893 126.125 29.232 125.954 29.232H124.178V33.312C124.178 33.8987 124.295 34.3253 124.53 34.592C124.775 34.848 125.138 34.992 125.618 35.024L126.05 35.056ZM131.744 28.048C132.192 28.016 132.416 28.1973 132.416 28.592C132.416 28.7627 132.368 28.9013 132.272 29.008C132.176 29.104 132.01 29.1627 131.776 29.184L131.296 29.232C130.581 29.296 130.048 29.552 129.696 30C129.354 30.4373 129.184 30.9547 129.184 31.552V35.44C129.184 35.6533 129.125 35.8133 129.008 35.92C128.89 36.0267 128.736 36.08 128.544 36.08C128.352 36.08 128.192 36.0267 128.064 35.92C127.946 35.8027 127.888 35.6427 127.888 35.44V28.688C127.888 28.4853 127.952 28.3307 128.08 28.224C128.208 28.1067 128.362 28.048 128.544 28.048C128.714 28.048 128.858 28.1067 128.976 28.224C129.093 28.3307 129.152 28.48 129.152 28.672V29.568C129.376 29.0987 129.69 28.7413 130.096 28.496C130.512 28.2507 130.986 28.1067 131.52 28.064L131.744 28.048ZM134.184 36.08C133.992 36.08 133.832 36.0267 133.704 35.92C133.587 35.8027 133.528 35.6427 133.528 35.44V28.688C133.528 28.4853 133.587 28.3307 133.704 28.224C133.832 28.1067 133.992 28.048 134.184 28.048C134.376 28.048 134.531 28.1067 134.648 28.224C134.765 28.3307 134.824 28.4853 134.824 28.688V35.44C134.824 35.6533 134.765 35.8133 134.648 35.92C134.531 36.0267 134.376 36.08 134.184 36.08ZM134.184 26.368C133.928 26.368 133.72 26.2933 133.56 26.144C133.4 25.9947 133.32 25.7973 133.32 25.552C133.32 25.3173 133.4 25.1253 133.56 24.976C133.72 24.8267 133.928 24.752 134.184 24.752C134.44 24.752 134.648 24.8267 134.808 24.976C134.968 25.1253 135.048 25.3173 135.048 25.552C135.048 25.7973 134.968 25.9947 134.808 26.144C134.648 26.2933 134.44 26.368 134.184 26.368ZM141.167 28.016C141.85 28.016 142.452 28.1867 142.975 28.528C143.498 28.8693 143.903 29.3493 144.191 29.968C144.479 30.576 144.623 31.2853 144.623 32.096C144.623 32.9067 144.479 33.616 144.191 34.224C143.903 34.8213 143.498 35.2853 142.975 35.616C142.463 35.9467 141.86 36.112 141.167 36.112C140.559 36.112 140.026 35.9787 139.567 35.712C139.119 35.4453 138.778 35.0667 138.543 34.576V38.336C138.543 38.528 138.484 38.6773 138.367 38.784C138.26 38.9013 138.106 38.96 137.903 38.96C137.7 38.96 137.54 38.9013 137.423 38.784C137.306 38.6667 137.247 38.5173 137.247 38.336V28.688C137.247 28.496 137.306 28.3413 137.423 28.224C137.54 28.1067 137.7 28.048 137.903 28.048C138.106 28.048 138.26 28.1067 138.367 28.224C138.484 28.3413 138.543 28.496 138.543 28.688V29.552C138.778 29.0613 139.119 28.6827 139.567 28.416C140.026 28.1493 140.559 28.016 141.167 28.016ZM140.911 35.04C141.668 35.04 142.255 34.784 142.671 34.272C143.087 33.76 143.295 33.0347 143.295 32.096C143.295 31.1573 143.087 30.4267 142.671 29.904C142.255 29.3707 141.668 29.104 140.911 29.104C140.154 29.104 139.567 29.36 139.151 29.872C138.746 30.384 138.543 31.1147 138.543 32.064C138.543 33.0133 138.746 33.7493 139.151 34.272C139.567 34.784 140.154 35.04 140.911 35.04ZM152.116 34.976C152.297 34.976 152.436 35.024 152.532 35.12C152.628 35.2053 152.676 35.328 152.676 35.488C152.676 35.648 152.628 35.776 152.532 35.872C152.436 35.9573 152.297 36 152.116 36H146.516C146.334 36 146.185 35.9467 146.068 35.84C145.95 35.7227 145.892 35.584 145.892 35.424C145.892 35.2533 145.956 35.088 146.084 34.928L150.82 29.232H146.436C146.254 29.232 146.11 29.1893 146.004 29.104C145.908 29.008 145.86 28.8853 145.86 28.736C145.86 28.576 145.908 28.448 146.004 28.352C146.11 28.256 146.254 28.208 146.436 28.208H151.86C152.052 28.208 152.206 28.2667 152.324 28.384C152.441 28.4907 152.5 28.624 152.5 28.784C152.5 28.9547 152.436 29.12 152.308 29.28L147.556 34.976H152.116ZM155.074 36.08C154.818 36.08 154.605 36 154.434 35.84C154.264 35.6693 154.178 35.4507 154.178 35.184C154.178 34.9173 154.264 34.6987 154.434 34.528C154.605 34.3573 154.818 34.272 155.074 34.272C155.32 34.272 155.522 34.3573 155.682 34.528C155.853 34.6987 155.938 34.9173 155.938 35.184C155.938 35.4507 155.853 35.6693 155.682 35.84C155.522 36 155.32 36.08 155.074 36.08ZM158.747 36.08C158.555 36.08 158.395 36.0267 158.267 35.92C158.149 35.8027 158.091 35.6427 158.091 35.44V28.688C158.091 28.4853 158.149 28.3307 158.267 28.224C158.395 28.1067 158.555 28.048 158.747 28.048C158.939 28.048 159.093 28.1067 159.211 28.224C159.328 28.3307 159.387 28.4853 159.387 28.688V35.44C159.387 35.6533 159.328 35.8133 159.211 35.92C159.093 36.0267 158.939 36.08 158.747 36.08ZM158.747 26.368C158.491 26.368 158.283 26.2933 158.123 26.144C157.963 25.9947 157.883 25.7973 157.883 25.552C157.883 25.3173 157.963 25.1253 158.123 24.976C158.283 24.8267 158.491 24.752 158.747 24.752C159.003 24.752 159.211 24.8267 159.371 24.976C159.531 25.1253 159.611 25.3173 159.611 25.552C159.611 25.7973 159.531 25.9947 159.371 26.144C159.211 26.2933 159.003 26.368 158.747 26.368ZM165.041 36.112C164.305 36.112 163.655 35.9467 163.089 35.616C162.535 35.2853 162.103 34.816 161.793 34.208C161.495 33.5893 161.345 32.8747 161.345 32.064C161.345 31.2533 161.495 30.544 161.793 29.936C162.103 29.3173 162.535 28.8427 163.089 28.512C163.655 28.1813 164.305 28.016 165.041 28.016C165.777 28.016 166.428 28.1813 166.993 28.512C167.559 28.8427 167.991 29.3173 168.289 29.936C168.599 30.544 168.753 31.2533 168.753 32.064C168.753 32.8747 168.599 33.5893 168.289 34.208C167.991 34.816 167.559 35.2853 166.993 35.616C166.428 35.9467 165.777 36.112 165.041 36.112ZM165.041 35.04C165.809 35.04 166.396 34.7893 166.801 34.288C167.217 33.776 167.425 33.0347 167.425 32.064C167.425 31.1147 167.217 30.384 166.801 29.872C166.385 29.3493 165.799 29.088 165.041 29.088C164.284 29.088 163.697 29.3493 163.281 29.872C162.865 30.384 162.657 31.1147 162.657 32.064C162.657 33.024 162.86 33.76 163.265 34.272C163.681 34.784 164.273 35.04 165.041 35.04Z" fill="white"/>
</g>
<defs>
<linearGradient id="paint0_linear_1_6" x1="250" y1="24.7999" x2="44.9688" y2="25.4559" gradientUnits="userSpaceOnUse">
<stop stop-color="#3B6DC1" stop-opacity="0.63"/>
<stop offset="0.552885" stop-color="#DA19D7" stop-opacity="0.03"/>
<stop offset="1" stop-opacity="0"/>
</linearGradient>
<clipPath id="clip0_1_6">
<rect width="250" height="62" fill="white"/>
</clipPath>
</defs>
</svg>
