<svg width="118" height="91" viewBox="0 0 118 91" fill="none" xmlns="http://www.w3.org/2000/svg">
<path d="M34 12.1738C34 8.72168 36.7979 5.92383 40.25 5.92383H77.75C81.1973 5.92383 84 8.72168 84 12.1738V43.4238C84 46.8711 81.1973 49.6738 77.75 49.6738H40.25C36.7979 49.6738 34 46.8711 34 43.4238V12.1738ZM49.625 15.2988H80.875V12.1738C80.875 10.4482 79.4785 9.04883 77.75 9.04883H49.625V15.2988ZM46.5 9.04883H40.25C38.5244 9.04883 37.125 10.4482 37.125 12.1738V15.2988H46.5V9.04883ZM37.125 18.4238V43.4238C37.125 45.1523 38.5244 46.5488 40.25 46.5488H77.75C79.4785 46.5488 80.875 45.1523 80.875 43.4238V18.4238H37.125Z" fill="#333333"/>
<path d="M27.7686 78.5518C26.2966 78.5518 25.1819 78.1678 24.4246 77.3998C23.6672 76.6318 23.2886 75.5012 23.2886 74.0078V67.7358C23.2886 67.5332 23.3472 67.3732 23.4646 67.2558C23.5819 67.1278 23.7419 67.0638 23.9446 67.0638C24.1366 67.0638 24.2912 67.1278 24.4086 67.2558C24.5259 67.3732 24.5846 67.5332 24.5846 67.7358V74.1198C24.5846 75.2185 24.8512 76.0452 25.3846 76.5998C25.9286 77.1545 26.7232 77.4318 27.7686 77.4318C28.8139 77.4318 29.6032 77.1545 30.1366 76.5998C30.6699 76.0452 30.9366 75.2185 30.9366 74.1198V67.7358C30.9366 67.5332 30.9952 67.3732 31.1126 67.2558C31.2406 67.1278 31.4006 67.0638 31.5926 67.0638C31.7952 67.0638 31.9552 67.1278 32.0726 67.2558C32.1899 67.3732 32.2486 67.5332 32.2486 67.7358V74.0078C32.2486 75.4905 31.8646 76.6212 31.0966 77.3998C30.3392 78.1678 29.2299 78.5518 27.7686 78.5518ZM43.1741 77.4798C43.2807 77.5972 43.3341 77.7305 43.3341 77.8798C43.3341 78.0505 43.2701 78.1945 43.1421 78.3118C43.0141 78.4292 42.8647 78.4878 42.6941 78.4878C42.5234 78.4878 42.3687 78.4132 42.2301 78.2638L38.5821 73.6078L34.9181 78.2638C34.8007 78.4132 34.6461 78.4878 34.4541 78.4878C34.2941 78.4878 34.1501 78.4292 34.0221 78.3118C33.8941 78.1838 33.8301 78.0398 33.8301 77.8798C33.8301 77.7198 33.8781 77.5865 33.9741 77.4798L37.8141 72.6638L34.1821 68.0878C34.0754 67.9705 34.0221 67.8318 34.0221 67.6718C34.0221 67.5118 34.0807 67.3732 34.1981 67.2558C34.3261 67.1385 34.4701 67.0798 34.6301 67.0798C34.8114 67.0798 34.9661 67.1598 35.0941 67.3198L38.5821 71.7358L42.0541 67.3198C42.1821 67.1598 42.3367 67.0798 42.5181 67.0798C42.6781 67.0798 42.8221 67.1438 42.9501 67.2718C43.0781 67.3892 43.1421 67.5332 43.1421 67.7038C43.1421 67.8532 43.0941 67.9812 42.9981 68.0878L39.3501 72.6638L43.1741 77.4798ZM49.9468 78.4238C49.7441 78.4238 49.5788 78.3652 49.4508 78.2478C49.3335 78.1305 49.2748 77.9758 49.2748 77.7838V67.7838C49.2748 67.5918 49.3335 67.4372 49.4508 67.3198C49.5788 67.2025 49.7441 67.1438 49.9468 67.1438H53.0668C54.8695 67.1438 56.2615 67.6345 57.2428 68.6158C58.2348 69.5865 58.7308 70.9732 58.7308 72.7758C58.7308 74.5785 58.2348 75.9705 57.2428 76.9518C56.2508 77.9332 54.8588 78.4238 53.0668 78.4238H49.9468ZM52.9868 77.3038C55.9095 77.3038 57.3708 75.7945 57.3708 72.7758C57.3708 69.7678 55.9095 68.2638 52.9868 68.2638H50.5868V77.3038H52.9868ZM66.9429 76.6158C67.0603 76.6158 67.1616 76.6638 67.2469 76.7598C67.3323 76.8558 67.3749 76.9785 67.3749 77.1278C67.3749 77.3945 67.1883 77.6398 66.8149 77.8638C66.4309 78.0878 66.0256 78.2585 65.5989 78.3758C65.1723 78.4825 64.7563 78.5358 64.3509 78.5358C63.1456 78.5358 62.1909 78.1785 61.4869 77.4638C60.7936 76.7492 60.4469 75.7625 60.4469 74.5038C60.4469 73.7038 60.6016 72.9998 60.9109 72.3918C61.2203 71.7732 61.6523 71.2932 62.2069 70.9518C62.7723 70.6105 63.4123 70.4398 64.1269 70.4398C65.1403 70.4398 65.9456 70.7705 66.5429 71.4318C67.1403 72.0932 67.4389 72.9892 67.4389 74.1198C67.4389 74.3332 67.3963 74.4878 67.3109 74.5838C67.2256 74.6798 67.0869 74.7278 66.8949 74.7278H61.7429C61.8389 76.5625 62.7083 77.4798 64.3509 77.4798C64.7669 77.4798 65.1243 77.4265 65.4229 77.3198C65.7216 77.2025 66.0416 77.0478 66.3829 76.8558C66.6603 76.6958 66.8469 76.6158 66.9429 76.6158ZM64.1429 71.4478C63.4603 71.4478 62.9109 71.6612 62.4949 72.0878C62.0896 72.5145 61.8496 73.1172 61.7749 73.8958H66.3029C66.2816 73.1065 66.0843 72.5038 65.7109 72.0878C65.3376 71.6612 64.8149 71.4478 64.1429 71.4478ZM71.9724 78.5358C71.4818 78.5358 71.0124 78.4772 70.5644 78.3598C70.1271 78.2425 69.7378 78.0772 69.3964 77.8638C69.2044 77.7358 69.0658 77.6185 68.9804 77.5118C68.9058 77.3945 68.8684 77.2558 68.8684 77.0958C68.8684 76.9572 68.9058 76.8452 68.9804 76.7598C69.0658 76.6638 69.1724 76.6158 69.3004 76.6158C69.4284 76.6158 69.6151 76.6958 69.8604 76.8558C70.1804 77.0478 70.4951 77.2025 70.8044 77.3198C71.1244 77.4265 71.5191 77.4798 71.9884 77.4798C72.5644 77.4798 73.0124 77.3785 73.3324 77.1758C73.6524 76.9732 73.8124 76.6798 73.8124 76.2958C73.8124 76.0612 73.7538 75.8745 73.6364 75.7358C73.5191 75.5865 73.3164 75.4585 73.0284 75.3518C72.7404 75.2345 72.3191 75.1172 71.7644 74.9998C70.8258 74.7972 70.1538 74.5252 69.7484 74.1838C69.3431 73.8425 69.1404 73.3785 69.1404 72.7918C69.1404 72.3332 69.2684 71.9278 69.5244 71.5758C69.7804 71.2238 70.1324 70.9465 70.5804 70.7438C71.0391 70.5412 71.5564 70.4398 72.1324 70.4398C72.5484 70.4398 72.9484 70.4985 73.3324 70.6158C73.7271 70.7225 74.0738 70.8772 74.3724 71.0798C74.7351 71.3358 74.9164 71.6025 74.9164 71.8798C74.9164 72.0185 74.8738 72.1358 74.7884 72.2318C74.7031 72.3278 74.6018 72.3758 74.4844 72.3758C74.3564 72.3758 74.1644 72.2852 73.9084 72.1038C73.6098 71.9118 73.3271 71.7625 73.0604 71.6558C72.7938 71.5492 72.4631 71.4958 72.0684 71.4958C71.5671 71.4958 71.1618 71.6078 70.8524 71.8318C70.5538 72.0558 70.4044 72.3545 70.4044 72.7278C70.4044 72.9625 70.4578 73.1545 70.5644 73.3038C70.6818 73.4425 70.8684 73.5705 71.1244 73.6878C71.3911 73.7945 71.7698 73.9012 72.2604 74.0078C72.9858 74.1678 73.5458 74.3438 73.9404 74.5358C74.3458 74.7278 74.6338 74.9625 74.8044 75.2398C74.9751 75.5172 75.0604 75.8692 75.0604 76.2958C75.0604 76.9678 74.7778 77.5118 74.2124 77.9278C73.6471 78.3332 72.9004 78.5358 71.9724 78.5358ZM77.6919 78.5038C77.4999 78.5038 77.3399 78.4505 77.2119 78.3438C77.0946 78.2265 77.0359 78.0665 77.0359 77.8638V71.1118C77.0359 70.9092 77.0946 70.7545 77.2119 70.6478C77.3399 70.5305 77.4999 70.4718 77.6919 70.4718C77.8839 70.4718 78.0386 70.5305 78.1559 70.6478C78.2733 70.7545 78.3319 70.9092 78.3319 71.1118V77.8638C78.3319 78.0772 78.2733 78.2372 78.1559 78.3438C78.0386 78.4505 77.8839 78.5038 77.6919 78.5038ZM77.6919 68.7918C77.4359 68.7918 77.2279 68.7172 77.0679 68.5678C76.9079 68.4185 76.8279 68.2212 76.8279 67.9758C76.8279 67.7412 76.9079 67.5492 77.0679 67.3998C77.2279 67.2505 77.4359 67.1758 77.6919 67.1758C77.9479 67.1758 78.1559 67.2505 78.3159 67.3998C78.4759 67.5492 78.5559 67.7412 78.5559 67.9758C78.5559 68.2212 78.4759 68.4185 78.3159 68.5678C78.1559 68.7172 77.9479 68.7918 77.6919 68.7918ZM87.0747 70.4718C87.2774 70.4718 87.4374 70.5305 87.5547 70.6478C87.672 70.7652 87.7307 70.9198 87.7307 71.1118V77.8958C87.7307 79.0585 87.432 79.9332 86.8347 80.5198C86.2374 81.1172 85.352 81.4158 84.1787 81.4158C83.0374 81.4158 82.088 81.1918 81.3307 80.7438C80.9467 80.5305 80.7547 80.2852 80.7547 80.0078C80.7547 79.8585 80.792 79.7358 80.8667 79.6398C80.952 79.5438 81.0587 79.4958 81.1867 79.4958C81.2934 79.4958 81.4854 79.5705 81.7627 79.7198C82.136 79.9118 82.504 80.0665 82.8667 80.1838C83.2294 80.3012 83.6614 80.3598 84.1627 80.3598C84.92 80.3598 85.4907 80.1572 85.8747 79.7518C86.2587 79.3572 86.4507 78.7758 86.4507 78.0078V76.6318C86.2267 77.1332 85.88 77.5172 85.4107 77.7838C84.952 78.0505 84.408 78.1838 83.7787 78.1838C83.096 78.1838 82.488 78.0238 81.9547 77.7038C81.432 77.3838 81.0214 76.9305 80.7227 76.3438C80.4347 75.7572 80.2907 75.0798 80.2907 74.3118C80.2907 73.5438 80.4347 72.8665 80.7227 72.2798C81.0214 71.6932 81.432 71.2398 81.9547 70.9198C82.488 70.5998 83.096 70.4398 83.7787 70.4398C84.3974 70.4398 84.936 70.5732 85.3947 70.8398C85.8534 71.1065 86.2 71.4852 86.4347 71.9758V71.1118C86.4347 70.9198 86.488 70.7652 86.5947 70.6478C86.712 70.5305 86.872 70.4718 87.0747 70.4718ZM84.0347 77.1118C84.7814 77.1118 85.368 76.8665 85.7947 76.3758C86.2214 75.8745 86.4347 75.1865 86.4347 74.3118C86.4347 73.4478 86.2214 72.7705 85.7947 72.2798C85.3787 71.7785 84.792 71.5278 84.0347 71.5278C83.2774 71.5278 82.68 71.7785 82.2427 72.2798C81.816 72.7705 81.6027 73.4478 81.6027 74.3118C81.6027 75.1865 81.816 75.8745 82.2427 76.3758C82.68 76.8665 83.2774 77.1118 84.0347 77.1118ZM94.0497 70.4398C95.9164 70.4398 96.8497 71.4692 96.8497 73.5278V77.8638C96.8497 78.0665 96.791 78.2265 96.6737 78.3438C96.567 78.4505 96.4124 78.5038 96.2097 78.5038C96.007 78.5038 95.847 78.4505 95.7297 78.3438C95.6124 78.2265 95.5537 78.0665 95.5537 77.8638V73.6078C95.5537 72.8825 95.4097 72.3545 95.1217 72.0238C94.8444 71.6932 94.3964 71.5278 93.7777 71.5278C93.063 71.5278 92.4924 71.7465 92.0657 72.1838C91.639 72.6212 91.4257 73.2132 91.4257 73.9598V77.8638C91.4257 78.0665 91.367 78.2265 91.2497 78.3438C91.143 78.4505 90.9884 78.5038 90.7857 78.5038C90.583 78.5038 90.423 78.4505 90.3057 78.3438C90.1884 78.2265 90.1297 78.0665 90.1297 77.8638V71.1118C90.1297 70.9198 90.1884 70.7652 90.3057 70.6478C90.423 70.5305 90.583 70.4718 90.7857 70.4718C90.9777 70.4718 91.127 70.5305 91.2337 70.6478C91.351 70.7652 91.4097 70.9145 91.4097 71.0958V71.9118C91.6657 71.4318 92.023 71.0692 92.4817 70.8238C92.9404 70.5678 93.463 70.4398 94.0497 70.4398Z" fill="#333333"/>
</svg>
