<?xml version="1.0" encoding="UTF-8"?>
<!-- Generated by Pixelmator Pro 3.7 -->
<svg width="140" height="140" viewBox="0 0 140 140" xmlns="http://www.w3.org/2000/svg">
    <g id="Email">
        <linearGradient id="linearGradient1" x1="14.909859" y1="38.886106" x2="130.406799" y2="103.106454" gradientUnits="userSpaceOnUse">
            <stop offset="0" stop-color="#f48100" stop-opacity="1"/>
            <stop offset="1" stop-color="#ffc002" stop-opacity="1"/>
        </linearGradient>
        <path id="Path" fill="url(#linearGradient1)" stroke="none" d="M 69.611816 139.201172 C 107.782715 139.201172 138.727295 108.25708 138.727295 70.085449 C 138.727295 31.914063 107.782715 0.969482 69.611816 0.969482 C 31.439941 0.969482 0.496338 31.914063 0.496338 70.085449 C 0.496338 108.25708 31.439941 139.201172 69.611816 139.201172 Z"/>
        <g id="paper-plane-svgrepo-com-1">
            <path id="path1" fill="#ffffff" stroke="none" d="M 101.171593 27.325745 C 100.568459 26.910599 99.787079 26.888466 99.164047 27.267319 L 22.919094 73.545181 C 22.271837 73.938202 21.917055 74.687943 22.016567 75.450081 C 22.114347 76.211334 22.649981 76.840691 23.373386 77.047821 L 42.747005 82.565125 C 43.335423 82.731537 43.96624 82.596985 44.439568 82.202202 L 75.390282 56.338257 L 53.799721 84.528442 C 53.539257 84.866577 53.39994 85.284378 53.39994 85.713692 L 53.39994 111.031479 C 53.39994 111.886559 53.950287 112.637192 54.752434 112.875298 C 54.926361 112.928413 55.10289 112.952309 55.277687 112.952309 C 55.907639 112.952309 56.510761 112.628334 56.861217 112.063591 L 70.340286 90.421051 L 90.045319 96.031296 C 90.562782 96.179123 91.118317 96.090607 91.571747 95.791412 C 92.022575 95.491333 92.327164 95.008034 92.408508 94.464539 L 101.978928 29.204971 C 102.08709 28.472046 101.77298 27.740005 101.171593 27.325745 Z"/>
        </g>
    </g>
</svg>
