<svg width="212" height="212" viewBox="0 0 212 212" fill="none" xmlns="http://www.w3.org/2000/svg">
<rect width="212" height="212" rx="40" fill="white"/>
<path d="M112.166 57.999C114.467 57.9994 116.332 59.8651 116.332 62.166C116.332 64.467 114.467 66.3326 112.166 66.333H110.777V80.2207H151.055C152.363 80.2208 153.596 80.8361 154.383 81.8809C155.17 82.9257 155.42 84.2798 155.06 85.5371L145.243 119.729C145.218 119.935 145.179 120.142 145.122 120.346C144.551 122.383 143.33 124.179 141.646 125.46C139.961 126.741 137.905 127.437 135.789 127.443H132.999V148.832C132.999 151.133 131.133 152.998 128.832 152.998C126.531 152.998 124.665 151.133 124.665 148.832V127.443H95.5059C95.4794 127.443 95.4531 127.444 95.4268 127.443H88.5547V148.832C88.5545 151.133 86.6887 152.998 84.3877 152.998C82.0866 152.998 80.2208 151.133 80.2207 148.832V127.443H77.4434C77.4257 127.443 77.4074 127.443 77.3896 127.442C75.2906 127.415 73.2564 126.71 71.5918 125.431C69.9336 124.156 68.7306 122.381 68.1611 120.369V120.37L58.1611 85.5371C57.8004 84.2798 58.0509 82.9257 58.8379 81.8809C59.6251 80.8359 60.8578 80.2208 62.166 80.2207H102.443V66.333H101.055C98.7535 66.333 96.8877 64.4672 96.8877 62.166C96.8877 59.8648 98.7535 57.999 101.055 57.999H112.166ZM76.1709 118.071L76.1777 118.096C76.2586 118.384 76.4314 118.64 76.6689 118.822C76.9017 119.001 77.1854 119.102 77.4785 119.109H90.6943L86.3291 88.5547H67.6973L76.1709 118.071ZM99.1133 119.109H114.106L118.472 88.5547H94.748L99.1133 119.109ZM122.525 119.109H135.765C136.067 119.109 136.361 119.009 136.602 118.826C136.753 118.711 136.877 118.566 136.97 118.402C136.992 118.292 137.018 118.181 137.05 118.071L145.523 88.5547H126.891L122.525 119.109Z" fill="#10383A"/>
</svg>
