<svg width="400" height="383" viewBox="0 0 400 383" fill="none" xmlns="http://www.w3.org/2000/svg">
<rect width="400" height="382.137" rx="20" fill="white"/>
<path d="M203.098 20C204.005 20.0002 204.749 20.689 204.839 21.5713L204.848 21.75C204.848 22.7164 204.065 23.4998 203.098 23.5H201.749V32.4004H224.798C225.348 32.4005 225.864 32.66 226.194 33.0977H226.195C226.525 33.5354 226.631 34.1046 226.479 34.6338L220.986 53.7666C220.977 53.8589 220.963 53.957 220.934 54.0576V54.0586C220.649 55.0747 220.039 55.9699 219.199 56.6084C218.359 57.2466 217.334 57.5945 216.279 57.5977H214.147V69.125C214.146 70.0898 213.364 70.8736 212.397 70.874H212.396C211.43 70.8734 210.648 70.0895 210.647 69.125V57.5977H189.385L189.606 69.3545L189.607 69.3555C189.624 70.3202 188.856 71.1176 187.891 71.1367H187.89C186.926 71.1545 186.126 70.3869 186.107 69.4209V69.4199L185.884 57.5977H183.704C182.722 57.5848 181.769 57.2744 180.97 56.71L180.812 56.5938C179.985 55.958 179.383 55.0719 179.099 54.0674L173.52 34.6338C173.368 34.1046 173.476 33.5359 173.805 33.0986L173.805 33.0977C174.135 32.6598 174.652 32.4007 175.202 32.4004H198.249V23.5H196.899C195.993 23.4998 195.248 22.8113 195.158 21.9287L195.149 21.75L195.158 21.5713C195.248 20.6889 195.993 20.0002 196.899 20H203.098ZM188.005 70.1211C188.009 70.1203 188.012 70.119 188.016 70.1182C188.012 70.119 188.009 70.1203 188.005 70.1211ZM187.616 70.0938C187.64 70.1021 187.665 70.1094 187.69 70.1152C187.665 70.1094 187.64 70.1021 187.616 70.0938ZM188.07 70.1025C188.098 70.0942 188.126 70.0865 188.152 70.0752C188.126 70.0865 188.098 70.0942 188.07 70.1025ZM187.493 70.0381C187.513 70.0491 187.532 70.0601 187.553 70.0693C187.532 70.0601 187.513 70.0491 187.493 70.0381ZM188.206 70.0469C188.23 70.034 188.255 70.0222 188.277 70.0068C188.255 70.0222 188.23 70.034 188.206 70.0469ZM187.373 69.9551C187.391 69.9707 187.41 69.9861 187.43 70C187.41 69.9861 187.391 69.9708 187.373 69.9551ZM188.328 69.9658C188.346 69.951 188.364 69.9363 188.381 69.9199C188.364 69.9363 188.346 69.951 188.328 69.9658ZM187.276 69.8555C187.292 69.8755 187.308 69.8958 187.326 69.9141C187.308 69.8958 187.292 69.8755 187.276 69.8555ZM188.436 69.8584C188.448 69.844 188.46 69.8297 188.471 69.8145C188.46 69.8297 188.448 69.844 188.436 69.8584ZM212.145 69.8271C212.168 69.8354 212.192 69.8426 212.216 69.8486C212.192 69.8426 212.168 69.8354 212.145 69.8271ZM187.188 69.7197C187.203 69.749 187.218 69.7778 187.236 69.8047C187.218 69.7777 187.203 69.749 187.188 69.7197ZM212.012 69.7637C212.034 69.7772 212.056 69.7906 212.08 69.8018C212.056 69.7906 212.034 69.7772 212.012 69.7637ZM188.511 69.748C188.521 69.7301 188.53 69.7122 188.539 69.6934C188.53 69.7122 188.521 69.7301 188.511 69.748ZM211.901 69.6826C211.921 69.7003 211.941 69.7179 211.963 69.7334C211.941 69.7179 211.921 69.7003 211.901 69.6826ZM187.138 69.5869C187.146 69.6192 187.155 69.6513 187.168 69.6816C187.155 69.6513 187.147 69.6192 187.138 69.5869ZM211.808 69.584C211.823 69.6024 211.837 69.6207 211.853 69.6377C211.837 69.6207 211.823 69.6024 211.808 69.584ZM188.565 69.624C188.573 69.6016 188.579 69.579 188.585 69.5557C188.579 69.579 188.573 69.6016 188.565 69.624ZM211.73 69.46C211.743 69.4841 211.754 69.5087 211.768 69.5312C211.754 69.5087 211.743 69.4841 211.73 69.46ZM213.088 69.416H213.089H213.088ZM211.672 69.3037C211.68 69.3385 211.69 69.3726 211.703 69.4053C211.69 69.3726 211.68 69.3385 211.672 69.3037ZM216.589 56.584C216.685 56.5758 216.781 56.5623 216.877 56.5469C216.781 56.5623 216.685 56.5758 216.589 56.584ZM183.125 56.543C183.218 56.5588 183.312 56.5721 183.407 56.5811C183.312 56.5721 183.218 56.5588 183.125 56.543ZM216.933 56.5371C217.009 56.5237 217.084 56.5081 217.159 56.4902C217.084 56.5081 217.009 56.5237 216.933 56.5371ZM182.838 56.4824C182.894 56.4964 182.951 56.5081 183.008 56.5195C182.951 56.5081 182.894 56.4964 182.838 56.4824ZM217.229 56.4727C217.299 56.4547 217.367 56.4349 217.435 56.4131C217.367 56.4349 217.299 56.4547 217.229 56.4727ZM182.559 56.4014C182.609 56.4178 182.659 56.4328 182.71 56.4473C182.659 56.4328 182.609 56.4178 182.559 56.4014ZM182.275 56.2949C182.331 56.3185 182.388 56.3404 182.445 56.3613C182.388 56.3404 182.331 56.3185 182.275 56.2949ZM217.597 56.3574C217.648 56.3383 217.7 56.3182 217.751 56.2969C217.7 56.3182 217.648 56.3383 217.597 56.3574ZM217.841 56.2578C217.903 56.2298 217.964 56.2002 218.025 56.1689C217.964 56.2002 217.903 56.2298 217.841 56.2578ZM182.029 56.1797C182.076 56.2035 182.123 56.2272 182.171 56.249C182.123 56.2272 182.076 56.2035 182.029 56.1797ZM218.094 56.1338C218.176 56.0891 218.258 56.0421 218.338 55.9912C218.258 56.0421 218.176 56.0891 218.094 56.1338ZM181.733 56.0137C181.788 56.048 181.844 56.0819 181.9 56.1133C181.844 56.0819 181.788 56.048 181.733 56.0137ZM181.422 55.8008C181.501 55.8616 181.583 55.9185 181.666 55.9727C181.583 55.9184 181.501 55.8616 181.422 55.8008ZM218.595 55.8125C218.672 55.7536 218.747 55.6912 218.819 55.627C218.747 55.6913 218.672 55.7535 218.595 55.8125ZM218.902 55.5479C218.947 55.5056 218.991 55.4632 219.034 55.4189C218.991 55.4632 218.947 55.5056 218.902 55.5479ZM219.113 55.332C219.151 55.2903 219.188 55.2484 219.224 55.2051C219.188 55.2484 219.151 55.2903 219.113 55.332ZM216.53 55.0801C216.444 55.0898 216.358 55.0974 216.271 55.0977C216.358 55.0974 216.444 55.0898 216.53 55.0801ZM219.311 55.0977C219.349 55.0493 219.385 55.0002 219.42 54.9502C219.385 55.0002 219.349 55.0493 219.311 55.0977ZM219.47 54.877C219.509 54.8181 219.546 54.7582 219.582 54.6973C219.546 54.7582 219.509 54.8181 219.47 54.877ZM217.53 54.7285C217.515 54.7384 217.498 54.7464 217.482 54.7559C217.552 54.7134 217.622 54.6691 217.687 54.6191L217.53 54.7285ZM219.623 54.626C219.666 54.5491 219.707 54.4714 219.745 54.3916C219.707 54.4714 219.666 54.5491 219.623 54.626ZM182.463 53.0986C182.464 53.1032 182.466 53.1077 182.468 53.1123C182.546 53.3924 182.714 53.6406 182.945 53.8184L183.034 53.8809C183.247 54.0185 183.495 54.0943 183.75 54.0977H191.783L189.183 35.9004H177.525L182.463 53.0986ZM195.317 54.0977H204.68L207.28 35.9004H192.718L195.317 54.0977ZM208.215 54.0977H216.268C216.563 54.0968 216.849 54.0001 217.082 53.8232L217.225 53.6963C217.339 53.5805 217.428 53.4423 217.494 53.292C217.504 53.231 217.517 53.1678 217.535 53.1035V53.1016L222.474 35.9004H210.814L208.215 54.0977ZM225.293 33.5869C225.289 33.5833 225.284 33.5797 225.28 33.5762C225.301 33.5938 225.321 33.6129 225.34 33.6328L225.293 33.5869ZM174.72 33.5762C174.704 33.5889 174.691 33.6032 174.677 33.6172C174.691 33.6032 174.704 33.5889 174.72 33.5762ZM174.784 33.5283C174.767 33.5396 174.751 33.5518 174.735 33.5645C174.751 33.5518 174.767 33.5396 174.784 33.5283ZM225.264 33.5645C225.248 33.5511 225.231 33.5382 225.213 33.5264C225.231 33.5382 225.248 33.5511 225.264 33.5645ZM225.198 33.5176C225.18 33.506 225.162 33.4943 225.142 33.4844C225.162 33.4943 225.18 33.506 225.198 33.5176ZM174.852 33.4883C174.838 33.496 174.823 33.504 174.809 33.5127C174.823 33.504 174.838 33.496 174.852 33.4883ZM225.123 33.4746C225.106 33.4666 225.089 33.4599 225.072 33.4531C225.089 33.4599 225.106 33.4666 225.123 33.4746ZM174.924 33.4551C174.909 33.4609 174.895 33.4669 174.881 33.4736C174.895 33.4669 174.909 33.4609 174.924 33.4551ZM175.03 33.4199C175.006 33.4257 174.982 33.4333 174.959 33.4414C174.982 33.4333 175.006 33.4257 175.03 33.4199ZM224.969 33.4199C224.945 33.4143 224.921 33.4105 224.896 33.4072C224.921 33.4105 224.945 33.4144 224.969 33.4199ZM203.271 22.4775C203.299 22.471 203.325 22.4625 203.351 22.4531C203.325 22.4626 203.299 22.471 203.271 22.4775ZM196.644 22.4521C196.669 22.4611 196.694 22.4692 196.72 22.4756C196.694 22.4692 196.669 22.4611 196.644 22.4521ZM203.408 22.4307C203.431 22.42 203.453 22.4074 203.475 22.3945C203.453 22.4074 203.431 22.42 203.408 22.4307ZM196.513 22.3896C196.536 22.4033 196.559 22.4165 196.583 22.4277C196.559 22.4165 196.536 22.4033 196.513 22.3896ZM203.715 22.1748C203.664 22.2488 203.6 22.3128 203.526 22.3643C203.6 22.3128 203.664 22.2488 203.715 22.1748ZM196.403 22.3086C196.423 22.3263 196.443 22.3438 196.465 22.3594C196.443 22.3438 196.423 22.3263 196.403 22.3086ZM196.31 22.21C196.325 22.2284 196.339 22.2467 196.355 22.2637C196.339 22.2467 196.325 22.2284 196.31 22.21ZM196.226 22.0752C196.24 22.1033 196.253 22.1312 196.27 22.1572C196.253 22.1312 196.24 22.1033 196.226 22.0752ZM203.739 22.1328C203.753 22.1088 203.768 22.0852 203.78 22.0596C203.768 22.0852 203.753 22.1088 203.739 22.1328ZM196.174 21.9287C196.182 21.9644 196.191 21.9997 196.205 22.0332C196.191 21.9997 196.182 21.9644 196.174 21.9287ZM203.801 22.0059C203.811 21.9781 203.819 21.95 203.826 21.9209C203.819 21.95 203.811 21.9781 203.801 22.0059ZM196.205 21.4658C196.193 21.4956 196.185 21.527 196.177 21.5586C196.185 21.527 196.193 21.4956 196.205 21.4658ZM203.82 21.5586C203.812 21.527 203.804 21.4956 203.792 21.4658C203.804 21.4956 203.812 21.527 203.82 21.5586ZM196.27 21.3418C196.257 21.3628 196.247 21.3858 196.235 21.4082C196.247 21.3858 196.257 21.3628 196.27 21.3418ZM203.763 21.4082C203.751 21.3857 203.74 21.3629 203.726 21.3418C203.74 21.3629 203.751 21.3857 203.763 21.4082ZM196.355 21.2354C196.339 21.2523 196.325 21.2706 196.31 21.2891C196.325 21.2706 196.339 21.2523 196.355 21.2354ZM203.686 21.2891C203.672 21.2706 203.658 21.2523 203.641 21.2354C203.658 21.2523 203.672 21.2706 203.686 21.2891ZM196.465 21.1396C196.443 21.1553 196.423 21.1736 196.403 21.1914C196.423 21.1736 196.443 21.1553 196.465 21.1396ZM203.594 21.1914C203.574 21.1739 203.555 21.156 203.533 21.1406C203.555 21.156 203.574 21.1739 203.594 21.1914ZM196.583 21.0713C196.559 21.0825 196.536 21.0957 196.513 21.1094C196.536 21.0958 196.559 21.0825 196.583 21.0713ZM203.478 21.1064C203.458 21.0945 203.438 21.0823 203.417 21.0723C203.438 21.0823 203.458 21.0945 203.478 21.1064ZM196.72 21.0234C196.694 21.0298 196.669 21.0379 196.644 21.0469C196.669 21.0379 196.694 21.0298 196.72 21.0234ZM203.348 21.0459C203.326 21.0378 203.303 21.0303 203.279 21.0244C203.303 21.0303 203.326 21.0378 203.348 21.0459ZM225.396 33.6992C225.379 33.6758 225.36 33.6538 225.34 33.6328C225.36 33.6538 225.379 33.6758 225.396 33.6992ZM175.115 33.4053C175.086 33.4087 175.058 33.4133 175.03 33.4199C175.058 33.4133 175.086 33.4087 175.115 33.4053ZM225.042 33.4414C225.022 33.4344 225.001 33.4291 224.98 33.4238C225.001 33.4291 225.022 33.4345 225.042 33.4414Z" fill="#11383A"/>
<rect x="20.5" y="94.6372" width="359" height="61" rx="9.5" fill="white"/>
<rect x="20.5" y="94.6372" width="359" height="61" rx="9.5" stroke="#EBEBEB"/>
<path d="M47.9688 131.137H41.5078V119.715H47.9688V121.293H43.375V124.403H47.6797V125.965H43.375V129.551H47.9688V131.137ZM57.6313 131.137H55.7875V125.809C55.7875 125.148 55.6625 124.655 55.4125 124.333C55.1625 124.004 54.7719 123.84 54.2406 123.84C53.5323 123.84 53.0115 124.072 52.6781 124.536C52.35 124.994 52.1859 125.76 52.1859 126.833V131.137H50.35V122.497H51.7875L52.0453 123.629H52.1391C52.3786 123.218 52.725 122.9 53.1781 122.676C53.6365 122.452 54.1391 122.34 54.6859 122.34C56.0141 122.34 56.8943 122.793 57.3266 123.7H57.4516C57.7068 123.273 58.0661 122.939 58.5297 122.7C58.9932 122.46 59.5245 122.34 60.1234 122.34C61.1547 122.34 61.9047 122.601 62.3734 123.122C62.8474 123.642 63.0844 124.437 63.0844 125.504V131.137H61.2484V125.809C61.2484 125.148 61.1208 124.655 60.8656 124.333C60.6156 124.004 60.225 123.84 59.6938 123.84C58.9802 123.84 58.4568 124.064 58.1234 124.512C57.7953 124.955 57.6313 125.637 57.6313 126.559V131.137ZM71.1531 131.137L70.7859 129.934H70.7234C70.3068 130.46 69.8875 130.819 69.4656 131.012C69.0438 131.2 68.5021 131.293 67.8406 131.293C66.9917 131.293 66.3276 131.064 65.8484 130.606C65.3745 130.148 65.1375 129.499 65.1375 128.661C65.1375 127.77 65.4682 127.098 66.1297 126.645C66.7911 126.192 67.799 125.944 69.1531 125.903L70.6453 125.856V125.395C70.6453 124.843 70.5151 124.431 70.2547 124.161C69.9995 123.885 69.601 123.747 69.0594 123.747C68.6167 123.747 68.1922 123.812 67.7859 123.942C67.3797 124.072 66.9891 124.226 66.6141 124.403L66.0203 123.09C66.4891 122.846 67.0021 122.661 67.5594 122.536C68.1167 122.405 68.6427 122.34 69.1375 122.34C70.2365 122.34 71.0646 122.58 71.6219 123.059C72.1844 123.538 72.4656 124.291 72.4656 125.317V131.137H71.1531ZM68.4188 129.887C69.0854 129.887 69.6193 129.702 70.0203 129.333C70.4266 128.958 70.6297 128.434 70.6297 127.762V127.012L69.5203 127.059C68.6557 127.09 68.0255 127.236 67.6297 127.497C67.2391 127.752 67.0438 128.145 67.0438 128.676C67.0438 129.062 67.1583 129.361 67.3875 129.575C67.6167 129.783 67.9604 129.887 68.4188 129.887ZM76.9641 131.137H75.1281V122.497H76.9641V131.137ZM75.0187 120.208C75.0187 119.879 75.1073 119.627 75.2844 119.45C75.4667 119.273 75.7245 119.184 76.0578 119.184C76.3807 119.184 76.6307 119.273 76.8078 119.45C76.9901 119.627 77.0812 119.879 77.0812 120.208C77.0812 120.52 76.9901 120.767 76.8078 120.95C76.6307 121.127 76.3807 121.215 76.0578 121.215C75.7245 121.215 75.4667 121.127 75.2844 120.95C75.1073 120.767 75.0187 120.52 75.0187 120.208ZM81.5328 131.137H79.6969V118.981H81.5328V131.137Z" fill="#1C4143"/>
<rect x="20.5" y="179.637" width="359" height="58" rx="9.5" fill="white"/>
<rect x="20.5" y="179.637" width="359" height="58" rx="9.5" stroke="#EBEBEB"/>
<path d="M47.9365 207.165C47.9365 208.208 47.5947 209.008 46.9111 209.564C46.2275 210.12 45.2546 210.398 43.9922 210.398H42.9531V214.137H41.3193V204.143H44.1973C45.446 204.143 46.3802 204.398 47 204.909C47.6243 205.419 47.9365 206.171 47.9365 207.165ZM42.9531 209.024H43.8213C44.6598 209.024 45.2751 208.878 45.667 208.586C46.0589 208.295 46.2549 207.839 46.2549 207.219C46.2549 206.645 46.0794 206.217 45.7285 205.934C45.3776 205.652 44.8307 205.51 44.0879 205.51H42.9531V209.024ZM54.5922 214.137L54.2709 213.084H54.2162C53.8516 213.545 53.4848 213.859 53.1156 214.028C52.7465 214.192 52.2725 214.274 51.6938 214.274C50.9509 214.274 50.3699 214.073 49.9506 213.672C49.5359 213.271 49.3285 212.704 49.3285 211.97C49.3285 211.191 49.6179 210.603 50.1967 210.207C50.7755 209.81 51.6573 209.594 52.8422 209.557L54.1479 209.516V209.113C54.1479 208.63 54.0339 208.27 53.8061 208.033C53.5827 207.791 53.2341 207.67 52.7602 207.67C52.3728 207.67 52.0014 207.727 51.6459 207.841C51.2904 207.955 50.9486 208.09 50.6205 208.245L50.101 207.096C50.5111 206.882 50.96 206.72 51.4477 206.611C51.9353 206.497 52.3956 206.44 52.8285 206.44C53.7901 206.44 54.5147 206.65 55.0023 207.069C55.4945 207.488 55.7406 208.147 55.7406 209.044V214.137H54.5922ZM52.1996 213.043C52.7829 213.043 53.2501 212.882 53.601 212.558C53.9564 212.23 54.1342 211.772 54.1342 211.184V210.528L53.1635 210.569C52.407 210.596 51.8555 210.724 51.5092 210.952C51.1674 211.175 50.9965 211.519 50.9965 211.984C50.9965 212.321 51.0967 212.583 51.2973 212.77C51.4978 212.952 51.7986 213.043 52.1996 213.043ZM63.1619 211.984C63.1619 212.722 62.893 213.29 62.3553 213.686C61.8175 214.078 61.0473 214.274 60.0447 214.274C59.0376 214.274 58.2286 214.121 57.618 213.816V212.428C58.5066 212.838 59.3338 213.043 60.0994 213.043C61.0883 213.043 61.5828 212.745 61.5828 212.148C61.5828 211.957 61.5281 211.797 61.4188 211.669C61.3094 211.542 61.1294 211.41 60.8787 211.273C60.6281 211.136 60.2794 210.981 59.8328 210.808C58.9624 210.471 58.3722 210.134 58.0623 209.796C57.757 209.459 57.6043 209.022 57.6043 208.484C57.6043 207.837 57.8641 207.335 58.3836 206.98C58.9077 206.62 59.6186 206.44 60.5164 206.44C61.4051 206.44 62.2459 206.62 63.0389 206.98L62.5193 208.19C61.7036 207.853 61.0177 207.684 60.4617 207.684C59.6141 207.684 59.1902 207.926 59.1902 208.409C59.1902 208.646 59.2996 208.846 59.5184 209.01C59.7417 209.174 60.2247 209.4 60.9676 209.687C61.5919 209.929 62.0454 210.15 62.3279 210.35C62.6105 210.551 62.8201 210.783 62.9568 211.047C63.0936 211.307 63.1619 211.619 63.1619 211.984ZM70.0842 211.984C70.0842 212.722 69.8153 213.29 69.2775 213.686C68.7398 214.078 67.9696 214.274 66.967 214.274C65.9598 214.274 65.1509 214.121 64.5402 213.816V212.428C65.4289 212.838 66.2561 213.043 67.0217 213.043C68.0106 213.043 68.5051 212.745 68.5051 212.148C68.5051 211.957 68.4504 211.797 68.341 211.669C68.2316 211.542 68.0516 211.41 67.801 211.273C67.5503 211.136 67.2017 210.981 66.7551 210.808C65.8846 210.471 65.2945 210.134 64.9846 209.796C64.6792 209.459 64.5266 209.022 64.5266 208.484C64.5266 207.837 64.7863 207.335 65.3059 206.98C65.8299 206.62 66.5409 206.44 67.4387 206.44C68.3273 206.44 69.1682 206.62 69.9611 206.98L69.4416 208.19C68.6258 207.853 67.94 207.684 67.384 207.684C66.5363 207.684 66.1125 207.926 66.1125 208.409C66.1125 208.646 66.2219 208.846 66.4406 209.01C66.6639 209.174 67.147 209.4 67.8898 209.687C68.5142 209.929 68.9676 210.15 69.2502 210.35C69.5327 210.551 69.7424 210.783 69.8791 211.047C70.0158 211.307 70.0842 211.619 70.0842 211.984ZM78.1275 214.137L77.15 210.61C77.0315 210.236 76.8173 209.368 76.5074 208.005H76.4459C76.1816 209.236 75.9719 210.109 75.817 210.624L74.8121 214.137H73.0348L70.9156 206.577H72.5562L73.5201 210.302C73.7389 211.223 73.8938 212.011 73.985 212.667H74.026C74.0715 212.335 74.1399 211.954 74.2311 211.526C74.3268 211.093 74.4088 210.769 74.4771 210.555L75.6256 206.577H77.3893L78.5035 210.555C78.5719 210.778 78.6562 211.12 78.7564 211.581C78.8613 212.041 78.9228 212.399 78.941 212.654H78.9957C79.0641 212.093 79.2236 211.309 79.4742 210.302L80.4518 206.577H82.065L79.9322 214.137H78.1275ZM90.1768 210.343C90.1768 211.578 89.86 212.542 89.2266 213.235C88.5931 213.928 87.7113 214.274 86.5811 214.274C85.8747 214.274 85.2503 214.114 84.708 213.795C84.1657 213.476 83.7487 213.018 83.457 212.421C83.1654 211.824 83.0195 211.132 83.0195 210.343C83.0195 209.117 83.334 208.16 83.9629 207.472C84.5918 206.784 85.4782 206.44 86.6221 206.44C87.7158 206.44 88.5817 206.793 89.2197 207.5C89.8577 208.201 90.1768 209.149 90.1768 210.343ZM84.6738 210.343C84.6738 212.089 85.3187 212.961 86.6084 212.961C87.8844 212.961 88.5225 212.089 88.5225 210.343C88.5225 208.616 87.8799 207.752 86.5947 207.752C85.9202 207.752 85.4303 207.976 85.125 208.422C84.8242 208.869 84.6738 209.509 84.6738 210.343ZM95.9643 206.44C96.2878 206.44 96.5544 206.463 96.7641 206.508L96.6068 208.005C96.379 207.951 96.142 207.923 95.8959 207.923C95.2533 207.923 94.7315 208.133 94.3305 208.552C93.934 208.972 93.7357 209.516 93.7357 210.186V214.137H92.1293V206.577H93.3871L93.599 207.91H93.6811C93.9317 207.458 94.2576 207.101 94.6586 206.836C95.0642 206.572 95.4994 206.44 95.9643 206.44ZM100.822 214.274C99.8787 214.274 99.1427 213.932 98.6141 213.249C98.0854 212.565 97.8211 211.606 97.8211 210.371C97.8211 209.131 98.0877 208.167 98.6209 207.479C99.1587 206.786 99.9015 206.44 100.849 206.44C101.843 206.44 102.599 206.807 103.119 207.541H103.201C103.124 206.998 103.085 206.57 103.085 206.255V203.5H104.698V214.137H103.44L103.16 213.146H103.085C102.57 213.898 101.816 214.274 100.822 214.274ZM101.253 212.975C101.914 212.975 102.394 212.791 102.695 212.421C102.996 212.048 103.151 211.444 103.16 210.61V210.384C103.16 209.432 103.005 208.755 102.695 208.354C102.385 207.953 101.9 207.752 101.239 207.752C100.674 207.752 100.239 207.983 99.9334 208.443C99.6281 208.899 99.4754 209.55 99.4754 210.398C99.4754 211.236 99.6235 211.877 99.9197 212.319C100.216 212.756 100.66 212.975 101.253 212.975Z" fill="#1C4143"/>
<rect x="20.5" y="261.637" width="359" height="58" rx="9.5" fill="#11383A"/>
<rect x="20.5" y="261.637" width="359" height="58" rx="9.5" stroke="#EBEBEB"/>
<path d="M176.819 296.137V286.143H178.453V294.736H182.685V296.137H176.819ZM193.38 291.126C193.38 292.753 192.972 294.018 192.157 294.92C191.345 295.823 190.195 296.274 188.704 296.274C187.196 296.274 186.036 295.827 185.225 294.934C184.418 294.036 184.015 292.763 184.015 291.113C184.015 289.463 184.421 288.196 185.232 287.312C186.048 286.428 187.21 285.986 188.718 285.986C190.204 285.986 191.352 286.435 192.163 287.333C192.975 288.23 193.38 289.495 193.38 291.126ZM185.751 291.126C185.751 292.357 186 293.291 186.496 293.929C186.993 294.563 187.729 294.879 188.704 294.879C189.675 294.879 190.407 294.565 190.899 293.936C191.396 293.307 191.644 292.371 191.644 291.126C191.644 289.901 191.398 288.971 190.906 288.337C190.418 287.704 189.689 287.387 188.718 287.387C187.738 287.387 186.998 287.704 186.496 288.337C186 288.971 185.751 289.901 185.751 291.126ZM199.715 290.716H203.392V295.734C202.791 295.93 202.212 296.069 201.656 296.151C201.105 296.233 200.508 296.274 199.865 296.274C198.352 296.274 197.185 295.827 196.365 294.934C195.545 294.036 195.135 292.772 195.135 291.14C195.135 289.531 195.597 288.274 196.522 287.367C197.447 286.455 198.721 286 200.344 286C201.387 286 202.376 286.2 203.31 286.601L202.736 287.961C201.925 287.588 201.114 287.401 200.303 287.401C199.236 287.401 198.393 287.736 197.773 288.406C197.153 289.076 196.844 289.992 196.844 291.154C196.844 292.375 197.122 293.305 197.678 293.943C198.238 294.576 199.042 294.893 200.091 294.893C200.619 294.893 201.184 294.827 201.786 294.695V292.118H199.715V290.716ZM209.635 296.137V286.143H211.269V296.137H209.635ZM222.341 296.137H220.338L215.423 288.173H215.368L215.402 288.618C215.466 289.465 215.498 290.24 215.498 290.942V296.137H214.015V286.143H215.997L220.898 294.066H220.939C220.93 293.961 220.912 293.581 220.885 292.924C220.857 292.264 220.844 291.749 220.844 291.379V286.143H222.341V296.137Z" fill="#E9F9F6"/>
<path d="M25.5713 349.401C24.6325 349.401 23.8942 349.734 23.3564 350.399C22.8187 351.064 22.5498 351.983 22.5498 353.154C22.5498 354.38 22.8073 355.307 23.3223 355.936C23.8418 356.565 24.5915 356.879 25.5713 356.879C25.9951 356.879 26.4053 356.838 26.8018 356.756C27.1982 356.67 27.6107 356.56 28.0391 356.428V357.83C27.2552 358.126 26.3665 358.274 25.373 358.274C23.9102 358.274 22.7868 357.832 22.0029 356.948C21.2191 356.059 20.8271 354.79 20.8271 353.14C20.8271 352.101 21.0163 351.192 21.3945 350.413C21.7773 349.633 22.3288 349.036 23.0488 348.622C23.7689 348.207 24.6143 348 25.585 348C26.6058 348 27.5492 348.214 28.415 348.642L27.8271 350.002C27.4899 349.843 27.1322 349.704 26.7539 349.585C26.3802 349.462 25.986 349.401 25.5713 349.401ZM33.9564 350.44C34.28 350.44 34.5466 350.463 34.7563 350.508L34.599 352.005C34.3712 351.951 34.1342 351.923 33.8881 351.923C33.2455 351.923 32.7237 352.133 32.3227 352.552C31.9262 352.972 31.7279 353.516 31.7279 354.186V358.137H30.1215V350.577H31.3793L31.5912 351.91H31.6732C31.9239 351.458 32.2497 351.101 32.6508 350.836C33.0564 350.572 33.4916 350.44 33.9564 350.44ZM39.5662 358.274C38.3904 358.274 37.4699 357.932 36.8045 357.249C36.1437 356.56 35.8133 355.615 35.8133 354.412C35.8133 353.177 36.1209 352.206 36.7361 351.5C37.3514 350.793 38.1967 350.44 39.2723 350.44C40.2703 350.44 41.0587 350.743 41.6375 351.349C42.2163 351.955 42.5057 352.789 42.5057 353.851V354.719H37.4676C37.4904 355.453 37.6886 356.018 38.0623 356.415C38.436 356.806 38.9624 357.002 39.6414 357.002C40.088 357.002 40.5027 356.961 40.8855 356.879C41.2729 356.793 41.6876 356.652 42.1297 356.456V357.761C41.7378 357.948 41.3413 358.08 40.9402 358.158C40.5392 358.235 40.0812 358.274 39.5662 358.274ZM39.2723 351.657C38.7618 351.657 38.3517 351.819 38.0418 352.142C37.7365 352.466 37.5542 352.937 37.4949 353.557H40.9266C40.9174 352.933 40.7671 352.461 40.4754 352.142C40.1837 351.819 39.7827 351.657 39.2723 351.657ZM49.1613 358.137L48.84 357.084H48.7854C48.4208 357.545 48.0539 357.859 47.6848 358.028C47.3156 358.192 46.8417 358.274 46.2629 358.274C45.5201 358.274 44.939 358.073 44.5197 357.672C44.105 357.271 43.8977 356.704 43.8977 355.97C43.8977 355.191 44.187 354.603 44.7658 354.207C45.3446 353.81 46.2264 353.594 47.4113 353.557L48.717 353.516V353.113C48.717 352.63 48.6031 352.27 48.3752 352.033C48.1519 351.791 47.8033 351.67 47.3293 351.67C46.9419 351.67 46.5705 351.727 46.215 351.841C45.8596 351.955 45.5178 352.09 45.1896 352.245L44.6701 351.096C45.0803 350.882 45.5292 350.72 46.0168 350.611C46.5044 350.497 46.9647 350.44 47.3977 350.44C48.3592 350.44 49.0839 350.65 49.5715 351.069C50.0637 351.488 50.3098 352.147 50.3098 353.044V358.137H49.1613ZM46.7687 357.043C47.3521 357.043 47.8192 356.882 48.1701 356.558C48.5256 356.23 48.7033 355.772 48.7033 355.184V354.528L47.7326 354.569C46.9761 354.596 46.4247 354.724 46.0783 354.952C45.7365 355.175 45.5656 355.519 45.5656 355.984C45.5656 356.321 45.6659 356.583 45.8664 356.77C46.0669 356.952 46.3677 357.043 46.7687 357.043ZM55.4684 356.975C55.8603 356.975 56.2522 356.914 56.6441 356.791V358C56.4664 358.078 56.2363 358.142 55.9537 358.192C55.6757 358.247 55.3863 358.274 55.0855 358.274C53.5634 358.274 52.8023 357.472 52.8023 355.868V351.793H51.7701V351.083L52.8775 350.495L53.4244 348.895H54.4156V350.577H56.5689V351.793H54.4156V355.84C54.4156 356.228 54.5113 356.515 54.7027 356.702C54.8987 356.884 55.1539 356.975 55.4684 356.975ZM61.5635 358.274C60.3877 358.274 59.4671 357.932 58.8018 357.249C58.141 356.56 57.8105 355.615 57.8105 354.412C57.8105 353.177 58.1182 352.206 58.7334 351.5C59.3486 350.793 60.194 350.44 61.2695 350.44C62.2676 350.44 63.056 350.743 63.6348 351.349C64.2135 351.955 64.5029 352.789 64.5029 353.851V354.719H59.4648C59.4876 355.453 59.6859 356.018 60.0596 356.415C60.4333 356.806 60.9596 357.002 61.6387 357.002C62.0853 357.002 62.5 356.961 62.8828 356.879C63.2702 356.793 63.6849 356.652 64.127 356.456V357.761C63.735 357.948 63.3385 358.08 62.9375 358.158C62.5365 358.235 62.0785 358.274 61.5635 358.274ZM61.2695 351.657C60.7591 351.657 60.349 351.819 60.0391 352.142C59.7337 352.466 59.5514 352.937 59.4922 353.557H62.9238C62.9147 352.933 62.7643 352.461 62.4727 352.142C62.181 351.819 61.7799 351.657 61.2695 351.657ZM76.5359 358.137L75.5379 355.362H71.7166L70.7391 358.137H69.0164L72.7557 348.102H74.533L78.2723 358.137H76.5359ZM75.1072 353.954L74.1707 351.233C74.1023 351.051 74.0066 350.764 73.8836 350.372C73.7651 349.98 73.6831 349.693 73.6375 349.51C73.5145 350.071 73.3344 350.684 73.0975 351.349L72.1951 353.954H75.1072ZM82.5695 358.274C81.4257 358.274 80.5552 357.941 79.9582 357.276C79.3658 356.606 79.0695 355.647 79.0695 354.398C79.0695 353.126 79.3794 352.149 79.9992 351.465C80.6236 350.782 81.5236 350.44 82.6994 350.44C83.4969 350.44 84.2147 350.588 84.8527 350.884L84.3674 352.176C83.6883 351.912 83.1278 351.78 82.6857 351.78C81.3778 351.78 80.7238 352.648 80.7238 354.384C80.7238 355.232 80.8856 355.87 81.2092 356.298C81.5373 356.722 82.0158 356.934 82.6447 356.934C83.3602 356.934 84.037 356.756 84.675 356.401V357.802C84.3879 357.971 84.0803 358.092 83.7521 358.165C83.4286 358.237 83.0344 358.274 82.5695 358.274ZM89.6012 358.274C88.4573 358.274 87.5869 357.941 86.9898 357.276C86.3974 356.606 86.1012 355.647 86.1012 354.398C86.1012 353.126 86.4111 352.149 87.0309 351.465C87.6552 350.782 88.5553 350.44 89.7311 350.44C90.5286 350.44 91.2464 350.588 91.8844 350.884L91.399 352.176C90.72 351.912 90.1594 351.78 89.7174 351.78C88.4094 351.78 87.7555 352.648 87.7555 354.384C87.7555 355.232 87.9173 355.87 88.2408 356.298C88.5689 356.722 89.0475 356.934 89.6764 356.934C90.3919 356.934 91.0686 356.756 91.7066 356.401V357.802C91.4195 357.971 91.1119 358.092 90.7838 358.165C90.4602 358.237 90.066 358.274 89.6012 358.274ZM100.29 354.343C100.29 355.578 99.9733 356.542 99.3398 357.235C98.7064 357.928 97.8245 358.274 96.6943 358.274C95.988 358.274 95.3636 358.114 94.8213 357.795C94.279 357.476 93.862 357.018 93.5703 356.421C93.2786 355.824 93.1328 355.132 93.1328 354.343C93.1328 353.117 93.4473 352.16 94.0762 351.472C94.7051 350.784 95.5915 350.44 96.7354 350.44C97.8291 350.44 98.695 350.793 99.333 351.5C99.971 352.201 100.29 353.149 100.29 354.343ZM94.7871 354.343C94.7871 356.089 95.432 356.961 96.7217 356.961C97.9977 356.961 98.6357 356.089 98.6357 354.343C98.6357 352.616 97.9932 351.752 96.708 351.752C96.0335 351.752 95.5436 351.976 95.2383 352.422C94.9375 352.869 94.7871 353.509 94.7871 354.343ZM107.575 358.137L107.349 357.146H107.267C107.044 357.497 106.725 357.773 106.31 357.973C105.9 358.174 105.43 358.274 104.902 358.274C103.986 358.274 103.302 358.046 102.851 357.59C102.4 357.135 102.174 356.444 102.174 355.519V350.577H103.794V355.239C103.794 355.818 103.913 356.253 104.15 356.544C104.387 356.832 104.758 356.975 105.264 356.975C105.939 356.975 106.433 356.775 106.747 356.374C107.066 355.968 107.226 355.291 107.226 354.343V350.577H108.839V358.137H107.575ZM117.881 358.137H116.267V353.489C116.267 352.905 116.149 352.47 115.912 352.183C115.679 351.896 115.308 351.752 114.798 351.752C114.119 351.752 113.622 351.953 113.307 352.354C112.993 352.755 112.836 353.427 112.836 354.371V358.137H111.229V350.577H112.487L112.713 351.568H112.795C113.023 351.208 113.346 350.93 113.765 350.734C114.185 350.538 114.65 350.44 115.16 350.44C116.974 350.44 117.881 351.363 117.881 353.208V358.137ZM123.032 356.975C123.424 356.975 123.816 356.914 124.208 356.791V358C124.03 358.078 123.8 358.142 123.518 358.192C123.24 358.247 122.95 358.274 122.65 358.274C121.127 358.274 120.366 357.472 120.366 355.868V351.793H119.334V351.083L120.442 350.495L120.988 348.895H121.98V350.577H124.133V351.793H121.98V355.84C121.98 356.228 122.075 356.515 122.267 356.702C122.463 356.884 122.718 356.975 123.032 356.975Z" fill="#EA5480"/>
<path d="M268.939 358.137H267.319V348.143H272.959V349.524H268.939V352.648H272.706V354.036H268.939V358.137ZM281.406 354.343C281.406 355.578 281.089 356.542 280.455 357.235C279.822 357.928 278.94 358.274 277.81 358.274C277.104 358.274 276.479 358.114 275.937 357.795C275.395 357.476 274.978 357.018 274.686 356.421C274.394 355.824 274.248 355.132 274.248 354.343C274.248 353.117 274.563 352.16 275.192 351.472C275.821 350.784 276.707 350.44 277.851 350.44C278.945 350.44 279.811 350.793 280.449 351.5C281.087 352.201 281.406 353.149 281.406 354.343ZM275.903 354.343C275.903 356.089 276.548 356.961 277.837 356.961C279.113 356.961 279.751 356.089 279.751 354.343C279.751 352.616 279.109 351.752 277.824 351.752C277.149 351.752 276.659 351.976 276.354 352.422C276.053 352.869 275.903 353.509 275.903 354.343ZM287.193 350.44C287.517 350.44 287.783 350.463 287.993 350.508L287.836 352.005C287.608 351.951 287.371 351.923 287.125 351.923C286.482 351.923 285.96 352.133 285.559 352.552C285.163 352.972 284.965 353.516 284.965 354.186V358.137H283.358V350.577H284.616L284.828 351.91H284.91C285.161 351.458 285.486 351.101 285.888 350.836C286.293 350.572 286.728 350.44 287.193 350.44ZM295.886 350.577V351.458L294.594 351.698C294.712 351.857 294.81 352.053 294.888 352.286C294.965 352.518 295.004 352.764 295.004 353.024C295.004 353.803 294.735 354.416 294.197 354.863C293.66 355.309 292.919 355.533 291.976 355.533C291.734 355.533 291.515 355.514 291.32 355.478C290.973 355.692 290.8 355.943 290.8 356.23C290.8 356.403 290.88 356.533 291.039 356.62C291.203 356.706 291.502 356.75 291.935 356.75H293.254C294.088 356.75 294.722 356.927 295.154 357.283C295.587 357.638 295.804 358.151 295.804 358.821C295.804 359.678 295.451 360.338 294.744 360.803C294.038 361.268 293.017 361.5 291.682 361.5C290.652 361.5 289.866 361.318 289.323 360.954C288.781 360.589 288.51 360.069 288.51 359.395C288.51 358.93 288.656 358.538 288.947 358.219C289.244 357.905 289.656 357.686 290.185 357.563C289.971 357.472 289.793 357.326 289.652 357.125C289.515 356.92 289.446 356.706 289.446 356.483C289.446 356.2 289.526 355.961 289.686 355.765C289.845 355.569 290.082 355.375 290.397 355.184C290.005 355.015 289.686 354.742 289.44 354.364C289.198 353.981 289.077 353.534 289.077 353.024C289.077 352.204 289.335 351.568 289.85 351.117C290.369 350.666 291.108 350.44 292.065 350.44C292.279 350.44 292.502 350.456 292.735 350.488C292.972 350.515 293.149 350.545 293.268 350.577H295.886ZM289.946 359.313C289.946 359.659 290.1 359.926 290.41 360.113C290.725 360.3 291.165 360.393 291.73 360.393C292.605 360.393 293.256 360.268 293.685 360.017C294.113 359.766 294.327 359.434 294.327 359.019C294.327 358.691 294.209 358.456 293.972 358.315C293.739 358.178 293.304 358.11 292.666 358.11H291.449C290.989 358.11 290.622 358.217 290.349 358.431C290.08 358.65 289.946 358.944 289.946 359.313ZM290.636 353.024C290.636 353.498 290.757 353.862 290.998 354.118C291.244 354.373 291.595 354.5 292.051 354.5C292.981 354.5 293.446 354.004 293.446 353.01C293.446 352.518 293.329 352.14 293.097 351.875C292.869 351.607 292.52 351.472 292.051 351.472C291.586 351.472 291.233 351.604 290.991 351.869C290.754 352.133 290.636 352.518 290.636 353.024ZM300.696 358.274C299.52 358.274 298.6 357.932 297.934 357.249C297.273 356.56 296.943 355.615 296.943 354.412C296.943 353.177 297.251 352.206 297.866 351.5C298.481 350.793 299.326 350.44 300.402 350.44C301.4 350.44 302.188 350.743 302.767 351.349C303.346 351.955 303.635 352.789 303.635 353.851V354.719H298.597C298.62 355.453 298.818 356.018 299.192 356.415C299.566 356.806 300.092 357.002 300.771 357.002C301.218 357.002 301.632 356.961 302.015 356.879C302.403 356.793 302.817 356.652 303.259 356.456V357.761C302.867 357.948 302.471 358.08 302.07 358.158C301.669 358.235 301.211 358.274 300.696 358.274ZM300.402 351.657C299.892 351.657 299.481 351.819 299.171 352.142C298.866 352.466 298.684 352.937 298.625 353.557H302.056C302.047 352.933 301.897 352.461 301.605 352.142C301.313 351.819 300.912 351.657 300.402 351.657ZM308.377 356.975C308.769 356.975 309.161 356.914 309.553 356.791V358C309.375 358.078 309.145 358.142 308.862 358.192C308.584 358.247 308.295 358.274 307.994 358.274C306.472 358.274 305.711 357.472 305.711 355.868V351.793H304.679V351.083L305.786 350.495L306.333 348.895H307.324V350.577H309.478V351.793H307.324V355.84C307.324 356.228 307.42 356.515 307.611 356.702C307.807 356.884 308.062 356.975 308.377 356.975ZM321.695 351.165C321.695 352.208 321.353 353.008 320.67 353.564C319.986 354.12 319.013 354.398 317.751 354.398H316.712V358.137H315.078V348.143H317.956C319.205 348.143 320.139 348.398 320.759 348.909C321.383 349.419 321.695 350.171 321.695 351.165ZM316.712 353.024H317.58C318.418 353.024 319.034 352.878 319.426 352.586C319.818 352.295 320.013 351.839 320.013 351.219C320.013 350.645 319.838 350.217 319.487 349.934C319.136 349.652 318.589 349.51 317.846 349.51H316.712V353.024ZM328.351 358.137L328.029 357.084H327.975C327.61 357.545 327.243 357.859 326.874 358.028C326.505 358.192 326.031 358.274 325.452 358.274C324.71 358.274 324.128 358.073 323.709 357.672C323.294 357.271 323.087 356.704 323.087 355.97C323.087 355.191 323.376 354.603 323.955 354.207C324.534 353.81 325.416 353.594 326.601 353.557L327.906 353.516V353.113C327.906 352.63 327.793 352.27 327.565 352.033C327.341 351.791 326.993 351.67 326.519 351.67C326.131 351.67 325.76 351.727 325.404 351.841C325.049 351.955 324.707 352.09 324.379 352.245L323.86 351.096C324.27 350.882 324.719 350.72 325.206 350.611C325.694 350.497 326.154 350.44 326.587 350.44C327.549 350.44 328.273 350.65 328.761 351.069C329.253 351.488 329.499 352.147 329.499 353.044V358.137H328.351ZM325.958 357.043C326.542 357.043 327.009 356.882 327.36 356.558C327.715 356.23 327.893 355.772 327.893 355.184V354.528L326.922 354.569C326.166 354.596 325.614 354.724 325.268 354.952C324.926 355.175 324.755 355.519 324.755 355.984C324.755 356.321 324.855 356.583 325.056 356.77C325.256 356.952 325.557 357.043 325.958 357.043ZM336.921 355.984C336.921 356.722 336.652 357.29 336.114 357.686C335.576 358.078 334.806 358.274 333.803 358.274C332.796 358.274 331.987 358.121 331.377 357.816V356.428C332.265 356.838 333.092 357.043 333.858 357.043C334.847 357.043 335.341 356.745 335.341 356.148C335.341 355.957 335.287 355.797 335.177 355.669C335.068 355.542 334.888 355.41 334.637 355.273C334.387 355.136 334.038 354.981 333.591 354.808C332.721 354.471 332.131 354.134 331.821 353.796C331.516 353.459 331.363 353.022 331.363 352.484C331.363 351.837 331.623 351.335 332.142 350.98C332.666 350.62 333.377 350.44 334.275 350.44C335.164 350.44 336.004 350.62 336.797 350.98L336.278 352.19C335.462 351.853 334.776 351.684 334.22 351.684C333.373 351.684 332.949 351.926 332.949 352.409C332.949 352.646 333.058 352.846 333.277 353.01C333.5 353.174 333.983 353.4 334.726 353.687C335.351 353.929 335.804 354.15 336.087 354.35C336.369 354.551 336.579 354.783 336.715 355.047C336.852 355.307 336.921 355.619 336.921 355.984ZM343.843 355.984C343.843 356.722 343.574 357.29 343.036 357.686C342.498 358.078 341.728 358.274 340.726 358.274C339.718 358.274 338.91 358.121 338.299 357.816V356.428C339.188 356.838 340.015 357.043 340.78 357.043C341.769 357.043 342.264 356.745 342.264 356.148C342.264 355.957 342.209 355.797 342.1 355.669C341.99 355.542 341.81 355.41 341.56 355.273C341.309 355.136 340.96 354.981 340.514 354.808C339.643 354.471 339.053 354.134 338.743 353.796C338.438 353.459 338.285 353.022 338.285 352.484C338.285 351.837 338.545 351.335 339.064 350.98C339.589 350.62 340.299 350.44 341.197 350.44C342.086 350.44 342.927 350.62 343.72 350.98L343.2 352.19C342.384 351.853 341.699 351.684 341.143 351.684C340.295 351.684 339.871 351.926 339.871 352.409C339.871 352.646 339.98 352.846 340.199 353.01C340.423 353.174 340.906 353.4 341.648 353.687C342.273 353.929 342.726 354.15 343.009 354.35C343.291 354.551 343.501 354.783 343.638 355.047C343.774 355.307 343.843 355.619 343.843 355.984ZM351.886 358.137L350.909 354.61C350.79 354.236 350.576 353.368 350.266 352.005H350.204C349.94 353.236 349.731 354.109 349.576 354.624L348.571 358.137H346.793L344.674 350.577H346.315L347.279 354.302C347.497 355.223 347.652 356.011 347.744 356.667H347.785C347.83 356.335 347.899 355.954 347.99 355.526C348.085 355.093 348.167 354.769 348.236 354.555L349.384 350.577H351.148L352.262 354.555C352.33 354.778 352.415 355.12 352.515 355.581C352.62 356.041 352.681 356.399 352.7 356.654H352.754C352.823 356.093 352.982 355.309 353.233 354.302L354.21 350.577H355.824L353.691 358.137H351.886ZM363.935 354.343C363.935 355.578 363.619 356.542 362.985 357.235C362.352 357.928 361.47 358.274 360.34 358.274C359.633 358.274 359.009 358.114 358.467 357.795C357.924 357.476 357.507 357.018 357.216 356.421C356.924 355.824 356.778 355.132 356.778 354.343C356.778 353.117 357.093 352.16 357.721 351.472C358.35 350.784 359.237 350.44 360.381 350.44C361.474 350.44 362.34 350.793 362.978 351.5C363.616 352.201 363.935 353.149 363.935 354.343ZM358.432 354.343C358.432 356.089 359.077 356.961 360.367 356.961C361.643 356.961 362.281 356.089 362.281 354.343C362.281 352.616 361.638 351.752 360.353 351.752C359.679 351.752 359.189 351.976 358.884 352.422C358.583 352.869 358.432 353.509 358.432 354.343ZM369.723 350.44C370.046 350.44 370.313 350.463 370.523 350.508L370.365 352.005C370.138 351.951 369.901 351.923 369.654 351.923C369.012 351.923 368.49 352.133 368.089 352.552C367.693 352.972 367.494 353.516 367.494 354.186V358.137H365.888V350.577H367.146L367.358 351.91H367.44C367.69 351.458 368.016 351.101 368.417 350.836C368.823 350.572 369.258 350.44 369.723 350.44ZM374.581 358.274C373.637 358.274 372.901 357.932 372.373 357.249C371.844 356.565 371.58 355.606 371.58 354.371C371.58 353.131 371.846 352.167 372.379 351.479C372.917 350.786 373.66 350.44 374.608 350.44C375.601 350.44 376.358 350.807 376.878 351.541H376.96C376.882 350.998 376.843 350.57 376.843 350.255V347.5H378.457V358.137H377.199L376.919 357.146H376.843C376.328 357.898 375.574 358.274 374.581 358.274ZM375.011 356.975C375.672 356.975 376.153 356.791 376.454 356.421C376.754 356.048 376.909 355.444 376.919 354.61V354.384C376.919 353.432 376.764 352.755 376.454 352.354C376.144 351.953 375.658 351.752 374.998 351.752C374.433 351.752 373.997 351.983 373.692 352.443C373.387 352.899 373.234 353.55 373.234 354.398C373.234 355.236 373.382 355.877 373.678 356.319C373.975 356.756 374.419 356.975 375.011 356.975Z" fill="#EA5480"/>
</svg>
