<svg width="135" height="43" viewBox="0 0 135 43" fill="none" xmlns="http://www.w3.org/2000/svg">
<path fill-rule="evenodd" clip-rule="evenodd" d="M25.379 8.51013C26.6998 6.36968 27.8582 4.12639 28.8324 1.81669C28.8656 1.73732 28.8987 1.65714 28.9318 1.57778L25.1576 0.000183105C25.1269 0.07307 25.0962 0.146767 25.0655 0.219654C24.4152 1.76081 23.6745 3.27037 22.8529 4.7354C23.2641 5.42539 23.6939 6.10486 24.1422 6.76975C24.5396 7.35933 24.9524 7.93999 25.379 8.51013Z" fill="#95E4D6"/>
<path fill-rule="evenodd" clip-rule="evenodd" d="M38.9828 22.6086C37.8753 23.2233 36.7944 23.8866 35.7467 24.5968C35.5043 24.7604 35.2636 24.9281 35.0253 25.0965C36.851 26.1688 38.7461 27.1236 40.6873 27.9464C41.0888 28.1165 41.4919 28.2809 41.8983 28.4404L43.4549 24.6487C43.0615 24.4948 42.6697 24.3353 42.2804 24.17C41.1631 23.6963 40.0621 23.1747 38.9828 22.6086Z" fill="#95E4D6"/>
<path fill-rule="evenodd" clip-rule="evenodd" d="M18.0763 8.51013C18.2588 8.80572 18.4438 9.09889 18.6329 9.39044C18.7993 9.64797 18.9681 9.90389 19.1394 10.1582C19.1596 10.189 19.1806 10.2189 19.2016 10.2497C19.9924 11.4175 20.8366 12.5545 21.7276 13.6535C21.9361 13.9102 22.1469 14.1661 22.361 14.4196C22.5742 14.6715 22.7899 14.9209 23.008 15.1687C23.6882 15.943 24.3927 16.6961 25.1189 17.4242C26.0964 18.4041 27.1175 19.3444 28.1757 20.2392C29.1815 19.4415 30.2163 18.6811 31.2762 17.9636C31.382 17.8923 31.487 17.8218 31.5928 17.7514C30.3423 16.7399 29.1451 15.6619 28.0109 14.5249C27.1498 13.6616 26.3234 12.7619 25.5333 11.8305C25.3152 11.5722 25.0995 11.3122 24.887 11.0498C24.673 10.7858 24.4621 10.5186 24.2537 10.2497C23.6527 9.47223 23.0759 8.67615 22.5282 7.86305C22.2543 7.45732 21.9878 7.04591 21.7276 6.63046C21.5346 6.32271 21.3447 6.01173 21.1589 5.69912C20.9691 5.38004 20.7841 5.05853 20.6023 4.7354C19.7808 3.27037 19.04 1.76081 18.3897 0.219654C18.359 0.146767 18.3283 0.07307 18.2976 0.000183105L14.5234 1.57778C14.5566 1.65714 14.5897 1.73732 14.6228 1.81669C15.597 4.12639 16.7555 6.36968 18.0763 8.51013Z" fill="#95E4D6"/>
<path fill-rule="evenodd" clip-rule="evenodd" d="M4.47225 20.3915C5.57978 19.7768 6.66066 19.1136 7.70841 18.4033C7.95076 18.2397 8.19149 18.0721 8.4298 17.9036C6.60411 16.8314 4.70895 15.8766 2.76774 15.0538C2.36625 14.8837 1.96314 14.7193 1.5568 14.5598L0.00012207 18.3515C0.393534 18.5054 0.78533 18.6649 1.1747 18.8301C2.29193 19.3039 3.393 19.8254 4.47225 20.3915Z" fill="#95E4D6"/>
<path fill-rule="evenodd" clip-rule="evenodd" d="M25.379 34.49C25.1964 34.1944 25.0114 33.9012 24.8224 33.6097C24.656 33.3521 24.4871 33.0962 24.3159 32.8419C24.2957 32.8112 24.2747 32.7812 24.2537 32.7504C23.4628 31.5826 22.6186 30.4456 21.7276 29.3466C21.5192 29.0899 21.3083 28.834 21.0943 28.5805C20.881 28.3286 20.6653 28.0792 20.4472 27.8314C19.767 27.0571 19.0626 26.304 18.3364 25.5759C17.3589 24.596 16.3378 23.6558 15.2795 22.7609C14.2738 23.5586 13.239 24.319 12.1791 25.0366C12.0733 25.1078 11.9683 25.1783 11.8624 25.2487C13.1129 26.2602 14.3101 27.3382 15.4443 28.4752C16.3055 29.3385 17.1319 30.2382 17.9219 31.1696C18.14 31.4279 18.3557 31.6879 18.5682 31.9503C18.7823 32.2143 18.9931 32.4815 19.2015 32.7504C19.8026 33.5279 20.3793 34.324 20.9271 35.1371C21.2009 35.5428 21.4675 35.9542 21.7276 36.3696C21.9207 36.6774 22.1105 36.9884 22.2963 37.301C22.4862 37.6201 22.6712 37.9416 22.8529 38.2647C23.6745 39.7297 24.4152 41.2393 25.0656 42.7805C25.0962 42.8533 25.1269 42.927 25.1576 42.9999L28.9318 41.4223C28.8987 41.343 28.8656 41.2628 28.8324 41.1834C27.8582 38.8737 26.6998 36.6304 25.379 34.49Z" fill="#95E4D6"/>
<path fill-rule="evenodd" clip-rule="evenodd" d="M14.5117 20.8755C14.7694 20.6658 15.0263 20.4544 15.2799 20.2398C16.3382 19.3441 17.3585 18.4038 18.3359 17.4239C19.063 16.6959 19.7666 15.9427 20.4476 15.1693C19.5598 14.0898 18.7164 12.9754 17.9215 11.8303C17.1323 12.7616 16.3051 13.6622 15.4439 14.5246C14.3105 15.6617 13.1125 16.7404 11.862 17.7511C11.5962 17.9665 11.3272 18.1787 11.0566 18.3876C10.7828 18.599 10.5065 18.8072 10.2278 19.012C9.75762 19.3579 9.28181 19.6948 8.79873 20.0211C8.03614 20.5378 7.25659 21.031 6.4633 21.4999C6.14017 21.691 5.81462 21.8773 5.48664 22.0603C5.15058 22.2474 4.81291 22.4304 4.47201 22.6086C3.39275 23.1747 2.29249 23.6962 1.17446 24.17C0.785893 24.3352 0.394097 24.4948 -0.00012207 24.6486L1.55656 28.4404C1.9629 28.2808 2.36681 28.1164 2.76749 27.9464C4.70951 27.1235 6.60467 26.1687 8.43036 25.0965C8.73572 24.9175 9.03946 24.7353 9.34078 24.549C9.63887 24.3652 9.93453 24.1781 10.2278 23.9886C10.517 23.8015 10.8038 23.612 11.0889 23.4185C11.9872 22.8103 12.8669 22.1689 13.7265 21.4999C13.9898 21.2942 14.2524 21.0861 14.5117 20.8755Z" fill="#95E4D6"/>
<path fill-rule="evenodd" clip-rule="evenodd" d="M18.0763 34.49C16.7555 36.6304 15.597 38.8737 14.6228 41.1834C14.5897 41.2628 14.5566 41.343 14.5234 41.4223L18.2976 42.9999C18.3283 42.927 18.359 42.8534 18.3897 42.7805C19.04 41.2393 19.7808 39.7297 20.6023 38.2647C20.1912 37.5747 19.7614 36.8953 19.313 36.2296C18.9156 35.6408 18.5028 35.0601 18.0763 34.49Z" fill="#95E4D6"/>
<path fill-rule="evenodd" clip-rule="evenodd" d="M37.9688 20.9397C38.3048 20.7526 38.6425 20.5696 38.9826 20.3914C40.0618 19.8253 41.1629 19.3038 42.2809 18.83C42.6695 18.6648 43.0613 18.5052 43.4555 18.3514L41.898 14.5596C41.4925 14.7192 41.0886 14.8836 40.6871 15.0536C38.7459 15.8765 36.8507 16.8313 35.025 17.9035C34.7197 18.0825 34.4159 18.2655 34.1146 18.451C33.8165 18.6348 33.5209 18.8219 33.2276 19.0114C32.9384 19.1985 32.6517 19.388 32.3665 19.5815C31.4674 20.1897 30.5877 20.8311 29.7289 21.5001C29.4648 21.7058 29.203 21.9139 28.9437 22.1245C28.6852 22.3342 28.4291 22.5456 28.1755 22.761C27.1172 23.6559 26.0961 24.5962 25.1195 25.5761C24.3924 26.3041 23.688 27.0573 23.0078 27.8315C23.8956 28.9102 24.739 30.0246 25.5339 31.1697C26.3231 30.2384 27.1503 29.3378 28.0107 28.4754C29.1449 27.3383 30.3429 26.2604 31.5926 25.2489C31.8592 25.0335 32.1282 24.8221 32.3988 24.6123C32.6727 24.401 32.9489 24.1928 33.2276 23.9888C33.6978 23.6421 34.1736 23.3052 34.6559 22.9789C35.4185 22.4622 36.198 21.969 36.9921 21.5001C37.3152 21.309 37.6408 21.1227 37.9688 20.9397Z" fill="#95E4D6"/>
<path fill-rule="evenodd" clip-rule="evenodd" d="M53.8523 13.3856H62.3498V34.2944H66.8922V13.3856H75.3898V8.83179H53.8523V13.3856Z" fill="#95E4D6"/>
<path fill-rule="evenodd" clip-rule="evenodd" d="M83.7095 34.3799H88.2511V8.74725H83.7095V34.3799Z" fill="#95E4D6"/>
<path fill-rule="evenodd" clip-rule="evenodd" d="M130.458 34.3799H135V8.74725H130.458V34.3799Z" fill="#95E4D6"/>
<path fill-rule="evenodd" clip-rule="evenodd" d="M124.229 8.62048H117.753L109.364 17.0381C107.931 18.4756 106.025 19.2676 103.998 19.2676H103.927H103.296V19.1875V8.64802H98.7549V34.2799H103.296V23.8595H103.927C105.96 23.8595 107.939 24.6961 109.358 26.1554L117.261 34.2823H123.659L112.638 22.95C112.152 22.4504 111.622 21.9985 111.062 21.5927C111.605 21.2024 112.122 20.7675 112.604 20.284L124.229 8.62048Z" fill="#95E4D6"/>
</svg>
