<?xml version="1.0" encoding="UTF-8" standalone="no"?>
<!DOCTYPE svg PUBLIC "-//W3C//DTD SVG 1.1//EN" "http://www.w3.org/Graphics/SVG/1.1/DTD/svg11.dtd">
<svg width="100%" height="100%" viewBox="0 0 92 102" version="1.1" xmlns="http://www.w3.org/2000/svg" xmlns:xlink="http://www.w3.org/1999/xlink" xml:space="preserve" xmlns:serif="http://www.serif.com/" style="fill-rule:evenodd;clip-rule:evenodd;stroke-linejoin:round;stroke-miterlimit:2;">
    <g transform="matrix(1,0,0,1,-1046.9,-7552.58)">
        <g transform="matrix(4.16667,0,0,4.16667,0,7425)">
            <g transform="matrix(1,0,0,1,178.555,-703.513)">
                <path d="M76.97,737.929C73.516,741.067 73.2,744.864 73.2,746.578C73.2,751.553 76.05,754.311 77.539,755.421C80.804,757.921 84.448,757.955 85.81,757.955C89.009,757.955 91.641,757.162 92.718,756.812C93.192,756.654 93.637,756.465 94.08,756.273L94.08,750.033C93.32,751.015 93.034,751.363 92.56,751.805C90.279,754.119 88.059,754.629 86.697,754.629C84.922,754.629 83.591,753.803 83.085,753.454C80.013,751.332 79.853,747.244 79.853,746.327C79.853,744.11 80.55,741.351 82.229,739.672C83.846,738.057 86.065,737.897 86.791,737.897C87.964,737.897 90.372,738.215 92.56,740.432C93.224,741.129 93.921,742.115 94.08,742.302L94.08,736.314C92.907,735.838 89.769,734.632 86.031,734.632C84.448,734.632 80.422,734.76 76.97,737.929" style="fill:none;fill-rule:nonzero;stroke:white;stroke-width:1px;"/>
            </g>
        </g>
    </g>
</svg>
