<?xml version="1.0" encoding="UTF-8"?>
<!-- Generated by Pixelmator Pro 3.7 -->
<svg width="140" height="140" viewBox="0 0 140 140" xmlns="http://www.w3.org/2000/svg">
    <g id="Group">
        <linearGradient id="linearGradient1" x1="59.320417" y1="178.49375" x2="-38.424167" y2="80.749167" gradientUnits="userSpaceOnUse">
            <stop offset="0" stop-color="#007bb8" stop-opacity="1"/>
            <stop offset="1" stop-color="#0044e9" stop-opacity="1"/>
        </linearGradient>
        <path id="Path" fill="url(#linearGradient1)" stroke="none" d="M 69.984375 0.969482 C 31.813477 0.969482 0.868896 31.913818 0.868896 70.085449 C 0.868896 108.25708 31.813477 139.201172 69.984375 139.201172 C 108.156006 139.201172 139.100586 108.25708 139.100586 70.085449 C 139.100586 31.913818 108.156006 0.969482 69.984375 0.969482 Z"/>
        <g id="g1">
            <path id="path1" fill="#ffffff" stroke="none" d="M 35.215332 53.863037 L 50.135986 53.863037 L 50.135986 101.79126 L 35.215332 101.79126 L 35.215332 53.863037 Z M 42.677979 30.046143 C 47.448975 30.046143 51.31543 33.916992 51.31543 38.677979 C 51.31543 43.445313 47.448975 47.322021 42.677979 47.322021 C 37.894531 47.322021 34.029297 43.445313 34.029297 38.677979 C 34.029297 33.916992 37.894531 30.046143 42.677979 30.046143"/>
            <path id="path2" fill="#ffffff" stroke="none" d="M 59.483398 53.863037 L 73.773193 53.863037 L 73.773193 60.418701 L 73.96875 60.418701 C 75.96167 56.646973 80.820801 52.676758 88.076416 52.676758 C 103.15918 52.676758 105.94043 62.596191 105.94043 75.504639 L 105.94043 101.79126 L 91.053467 101.79126 L 91.053467 78.489502 C 91.053467 72.927002 90.945068 65.779541 83.310791 65.779541 C 75.555664 65.779541 74.373047 71.83374 74.373047 78.083252 L 74.373047 101.79126 L 59.483398 101.79126 L 59.483398 53.863037 Z"/>
        </g>
    </g>
</svg>
